<svg data-name="구성 요소 180 – 1" xmlns="http://www.w3.org/2000/svg" width="53" height="53" viewBox="0 0 53 53">
    <circle data-name="타원 384" cx="26.5" cy="26.5" r="26.5" style="opacity:.165;fill:#fff"/>
    <path data-name="Icon awesome-search" d="m.4 25.2 5.675-5.675a1.365 1.365 0 0 1 .968-.4h.928a11.835 11.835 0 1 1 2.049 2.049v.926a1.365 1.365 0 0 1-.4.968l-5.677 5.679a1.361 1.361 0 0 1-1.93 0L.4 27.136a1.373 1.373 0 0 1 0-1.936zm16.9-6.073a7.286 7.286 0 1 0-7.286-7.286 7.282 7.282 0 0 0 7.286 7.286z" transform="translate(11.928 11.926)" style="fill:#fff"/>
</svg>
