<svg data-name="구성 요소 181 – 1" xmlns="http://www.w3.org/2000/svg" width="53" height="53" viewBox="0 0 53 53">
    <defs>
        <clipPath id="nt7dv8ai8a">
            <path data-name="사각형 3684" style="fill:none" d="M0 0h25.671v10.76H0z"/>
        </clipPath>
    </defs>
    <circle data-name="타원 385" cx="26.5" cy="26.5" r="26.5" style="opacity:.165;fill:#fff"/>
    <g data-name="그룹 5620">
        <g data-name="그룹 5619">
            <g data-name="그룹 5618" transform="translate(14 30.692)" style="clip-path:url(#nt7dv8ai8a)">
                <path data-name="패스 7747" d="M2.879 13.006H1.546A1.551 1.551 0 0 1 0 11.46V4.871a1.551 1.551 0 0 1 1.546-1.546h1.333a1.551 1.551 0 0 1 1.546 1.546v6.589a1.551 1.551 0 0 1-1.546 1.546" transform="translate(0 -2.897)" style="fill:#fff"/>
                <path data-name="패스 7748" d="M43.6 1.463v7.769l2.129.648c2.8.851 6.038 1.36 8.728.218l8.155-4.045a1.836 1.836 0 0 0 1.033-1.8 1.307 1.307 0 0 0-.681-1.057A1.889 1.889 0 0 0 61.648 3l-2.733.557a2.41 2.41 0 0 0-1.3.733c-.617.673-2.3 1.647-6.758.858a.911.911 0 0 1-.681-.512c-.107-.241-.078-.51.472-.616a2.025 2.025 0 0 1 .709 0c.794.129 3.372.465 4.853-.321a1.808 1.808 0 0 0 .977-1.665C57.163 1.411 56.8.686 55.306.579c0 0-3.159-.158-4.651-.334 0 0-2.65-1.059-7.055 1.217" transform="translate(-37.983)" style="fill:#fff"/>
            </g>
        </g>
        <path data-name="Icon awesome-heart" d="M16.212 3.322a4.8 4.8 0 0 0-6.544.478l-.691.712-.691-.712a4.8 4.8 0 0 0-6.544-.477 5.036 5.036 0 0 0-.342 7.29l6.781 7.007a1.1 1.1 0 0 0 1.589 0l6.786-7.007a5.032 5.032 0 0 0-.344-7.291z" transform="translate(18.001 9.752)" style="fill:#fff"/>
    </g>
</svg>
