<svg data-name="구성 요소 179 – 1" xmlns="http://www.w3.org/2000/svg" width="53" height="53" viewBox="0 0 53 53">
    <defs>
        <clipPath id="qum7bwq4la">
            <path data-name="사각형 3683" style="fill:none" d="M0 0h35.27v14.252H0z"/>
        </clipPath>
    </defs>
    <circle data-name="타원 383" cx="26.5" cy="26.5" r="26.5" style="opacity:.231;fill:#fff"/>
    <g data-name="그룹 5617">
        <g data-name="그룹 5616" transform="rotate(-41 47.977 4.957)" style="clip-path:url(#qum7bwq4la)">
            <path data-name="패스 7746" d="M30.017 14.252a7.1 7.1 0 0 0 5.183-2.236.26.26 0 0 0-.187-.439h-3.85l-2.57-4.452 2.57-4.452h3.848a.259.259 0 0 0 .186-.439A7.119 7.119 0 0 0 23.62 3.993H3.132a3.133 3.133 0 0 0 0 6.265h20.483a7.126 7.126 0 0 0 6.4 3.993M2.076 7.126a.845.845 0 1 1 .845.845.845.845 0 0 1-.845-.845" style="fill:#fff"/>
        </g>
    </g>
</svg>
