<svg data-name="구성 요소 299 – 1" xmlns="http://www.w3.org/2000/svg" width="100.742" height="100.742" viewBox="0 0 100.742 100.742">
    <defs>
        <clipPath id="wsz2gfccja">
            <path data-name="사각형 4087" style="fill:none" d="M0 0h64v64H0z"/>
        </clipPath>
    </defs>
    <g data-name="그룹 5130" transform="translate(-294.629 -3681.879)">
        <circle data-name="타원 129" cx="50.371" cy="50.371" r="50.371" transform="translate(294.629 3681.879)" style="fill:#00bb68"/>
    </g>
    <g data-name="그룹 6047">
        <g data-name="그룹 6046" style="clip-path:url(#wsz2gfccja)" transform="translate(18.371 20.056)">
            <path data-name="패스 7864" d="M32 4.55 8.636 14.865S6.824 47.456 32 59.036" style="stroke:#08174a;stroke-linecap:round;stroke-linejoin:round;stroke-width:2px;fill:none"/>
            <path data-name="패스 7865" d="m32 4.55 23.364 10.315S57.176 47.456 32 59.036" style="stroke:#08174a;stroke-linecap:round;stroke-linejoin:round;stroke-width:2px;fill:none"/>
            <path data-name="패스 7866" d="M33.346 17.649a1.348 1.348 0 0 0-2.472-.731c-6.947 10.148 2.92 10.606 2.92 15.539a3.588 3.588 0 1 1-7.176-.054V27.61a1.345 1.345 0 0 0-2.322-.925 11.212 11.212 0 0 0-3.06 7.566 10.764 10.764 0 0 0 21.528 0c0-9.551-9.418-10.82-9.418-16.602z" style="stroke:#08174a;stroke-linecap:round;stroke-linejoin:round;stroke-width:2px;fill:none"/>
        </g>
    </g>
</svg>
