<svg data-name="구성 요소 301 – 1" xmlns="http://www.w3.org/2000/svg" width="100.742" height="100.742" viewBox="0 0 100.742 100.742">
    <g data-name="그룹 5648" transform="translate(-294.629 -3681.879)">
        <circle data-name="타원 129" cx="50.371" cy="50.371" r="50.371" transform="translate(294.629 3681.879)" style="fill:#00bb68"/>
    </g>
    <g data-name="그룹 6183">
        <path data-name="패스 8011" d="M20.6 50.157a.923.923 0 0 1-.654-.272l-8.449-8.492a.923.923 0 0 1 0-1.305l9.185-9.139a.923.923 0 1 1 1.3 1.308l-8.531 8.488 7.149 7.184 8.99-8.945a.923.923 0 1 1 1.3 1.308l-9.644 9.6a.923.923 0 0 1-.646.265z" transform="translate(20.108 19.203)" style="fill:#08174a"/>
        <path data-name="패스 8012" d="M31.011 39.09a.923.923 0 0 1-.651-1.577l16.562-16.48-7.148-7.183-17.021 16.937a.923.923 0 0 1-1.3-1.308l17.674-17.588a.923.923 0 0 1 1.305 0l8.449 8.491a.923.923 0 0 1 0 1.305L31.662 38.821a.92.92 0 0 1-.651.269z" transform="translate(19.34 20.674)" style="fill:#08174a"/>
        <path data-name="사각형 4185" d="M.923 0h6.063a.923.923 0 0 1 .923.923V12.9a.923.923 0 0 1-.923.923H.923A.923.923 0 0 1 0 12.9V.923A.923.923 0 0 1 .923 0zm5.141 1.846H1.846v10.133h4.218z" transform="rotate(-44.86 69.14 -53.42)" style="fill:#08174a"/>
        <path data-name="패스 8013" d="M8.464 54.263a.923.923 0 0 1-.887-1.178l3.4-11.832a.923.923 0 0 1 1.541-.4l8.449 8.491a.923.923 0 0 1-.4 1.539L8.715 54.229a.922.922 0 0 1-.251.034zm3.854-10.991L9.809 52l8.743-2.466z" transform="translate(20.393 18.438)" style="fill:#08174a"/>
        <path data-name="선 365" d="M5.08 6.029a.92.92 0 0 1-.654-.272L-.731.574a.923.923 0 0 1 0-1.305.923.923 0 0 1 1.305 0l5.161 5.186a.923.923 0 0 1-.655 1.574z" transform="translate(31.076 64.404)" style="fill:#08174a"/>
        <path data-name="패스 8014" d="M45.7 54.58a.922.922 0 0 1-.654-.272L31.1 40.293a.923.923 0 0 1 1.308-1.3l13.3 13.362 7.18-7.155L40.05 32.3a.923.923 0 0 1 1.309-1.3l13.488 13.557a.923.923 0 0 1 0 1.305l-8.491 8.449a.923.923 0 0 1-.656.269z" transform="translate(18.595 19.199)" style="fill:#08174a"/>
        <path data-name="패스 8015" d="M21.433 30.152a.92.92 0 0 1-.654-.272L6.833 15.865a.923.923 0 0 1 0-1.305l8.495-8.45a.923.923 0 0 1 1.305 0l13.488 13.56a.923.923 0 0 1-1.308 1.3L15.975 8.07l-7.183 7.147 13.3 13.362a.923.923 0 0 1-.654 1.574z" transform="translate(20.468 21.12)" style="fill:#08174a"/>
        <path data-name="선 366" d="M-.077 6.088a.92.92 0 0 1-.654-.272.923.923 0 0 1 0-1.305L4.541-.731a.923.923 0 0 1 1.305 0 .923.923 0 0 1 0 1.305L.574 5.82a.92.92 0 0 1-.651.268z" transform="translate(35.532 32.26)" style="fill:#08174a"/>
        <path data-name="선 367" d="M-.077 3.467A.92.92 0 0 1-.731 3.2a.923.923 0 0 1 0-1.305L1.907-.731a.923.923 0 0 1 1.305 0 .923.923 0 0 1 0 1.305L.574 3.2a.92.92 0 0 1-.651.267z" transform="translate(41.776 35.888)" style="fill:#08174a"/>
        <path data-name="선 368" d="M-.077 3.467A.92.92 0 0 1-.731 3.2a.923.923 0 0 1 0-1.305L1.907-.731a.923.923 0 0 1 1.305 0 .923.923 0 0 1 0 1.305L.574 3.2a.92.92 0 0 1-.651.267z" transform="translate(45.387 39.516)" style="fill:#08174a"/>
        <path data-name="선 369" d="M-.077 6.088a.92.92 0 0 1-.654-.272.923.923 0 0 1 0-1.305L4.541-.731a.923.923 0 0 1 1.305 0 .923.923 0 0 1 0 1.305L.574 5.82a.92.92 0 0 1-.651.268z" transform="translate(58.348 55.19)" style="fill:#08174a"/>
        <path data-name="선 370" d="M-.077 3.467A.92.92 0 0 1-.731 3.2a.923.923 0 0 1 0-1.305L1.907-.731a.923.923 0 0 1 1.305 0 .923.923 0 0 1 0 1.305L.574 3.2a.92.92 0 0 1-.651.267z" transform="translate(65.315 59.544)" style="fill:#08174a"/>
    </g>
</svg>
