<svg data-name="구성 요소 300 – 1" xmlns="http://www.w3.org/2000/svg" width="100.742" height="100.742" viewBox="0 0 100.742 100.742">
    <defs>
        <clipPath id="fp96r4agsa">
            <path data-name="사각형 4185" style="fill:none" d="M0 0h64v64H0z"/>
        </clipPath>
    </defs>
    <g data-name="그룹 5131" transform="translate(-294.629 -3681.879)">
        <circle data-name="타원 129" cx="50.371" cy="50.371" r="50.371" transform="translate(294.629 3681.879)" style="fill:#00bb68"/>
    </g>
    <g data-name="그룹 6185">
        <g data-name="그룹 6184" style="clip-path:url(#fp96r4agsa)" transform="translate(19.371 19.056)">
            <path data-name="패스 8011" d="M39.812 15.662a1 1 0 0 1 .708.294 19.391 19.391 0 0 1 4.167 6.959 13.982 13.982 0 0 1 .512 7.238A15.322 15.322 0 0 1 41.747 37a16.547 16.547 0 0 0 8.569-1.213 1 1 0 0 1 1.16 1.562 22.417 22.417 0 0 1-17.045 8.322 19.221 19.221 0 0 1-11.095-3.481A20.5 20.5 0 0 1 18.8 37.8a24.732 24.732 0 0 1-3.379-6.152 7.927 7.927 0 0 1-.275-.875A12.626 12.626 0 0 1 10.3 26.6a1 1 0 0 1 1.07-1.538 15.444 15.444 0 0 0 3.815.479c.167 0 .335 0 .5-.008a7.753 7.753 0 0 1 14.3.6l.177.463a15.03 15.03 0 0 0 8.685-10.175 1 1 0 0 1 .97-.756zm3.979 23.46a18.572 18.572 0 0 1-4.242-.492 1 1 0 0 1-.477-1.682 14.225 14.225 0 0 0 4.167-7.191 12.009 12.009 0 0 0-.45-6.213 17.413 17.413 0 0 0-2.568-4.839 17.061 17.061 0 0 1-10.3 10.126 1 1 0 0 1-1.267-.585l-.539-1.408v-.012a5.751 5.751 0 0 0-10.8.014 1 1 0 0 1-.867.654c-.417.03-.839.045-1.257.045q-.711 0-1.42-.058a10.634 10.634 0 0 0 2.663 1.673 1 1 0 0 1 .583.741 5.841 5.841 0 0 0 .287 1.038 22.728 22.728 0 0 0 3.1 5.652 18.5 18.5 0 0 0 4.09 3.962 17.231 17.231 0 0 0 9.946 3.118 19.842 19.842 0 0 0 12.781-4.86 18.553 18.553 0 0 1-3.43.317z" style="fill:#08174a"/>
            <path data-name="타원 555" d="M26.187-1A27.194 27.194 0 0 1 36.77 51.237a27.194 27.194 0 0 1-21.17-50.1A27.018 27.018 0 0 1 26.187-1zm0 52.374a25.194 25.194 0 0 0 9.8-48.4A25.194 25.194 0 0 0 16.383 49.4a25.028 25.028 0 0 0 9.804 1.974z" transform="translate(5.813 5.606)" style="fill:#08174a"/>
            <path data-name="선 365" d="M0 37.977a1 1 0 0 1-.707-.293 1 1 0 0 1 0-1.414L36.27-.707a1 1 0 0 1 1.414 0 1 1 0 0 1 0 1.414L.707 37.684a1 1 0 0 1-.707.293z" transform="translate(13.512 13.265)" style="fill:#08174a"/>
        </g>
    </g>
</svg>
