<svg data-name="구성 요소 245 – 1" xmlns="http://www.w3.org/2000/svg" width="100.742" height="100.742" viewBox="0 0 100.742 100.742">
    <defs>
        <clipPath id="ra9ofal85a">
            <path data-name="사각형 4085" style="fill:none" d="M0 0h64v64H0z"/>
        </clipPath>
    </defs>
    <g data-name="그룹 5130" transform="translate(-294.629 -3681.879)">
        <circle data-name="타원 129" cx="50.371" cy="50.371" r="50.371" transform="translate(294.629 3681.879)" style="fill:#00bb68"/>
    </g>
    <g data-name="그룹 6043">
        <path data-name="사각형 4084" transform="translate(28.296 34.609)" style="stroke:#08174a;stroke-linecap:round;stroke-linejoin:round;stroke-width:2px;fill:none" d="M0 0h44.4v31.526H0z"/>
        <path data-name="선 345" transform="translate(28.296 44.964)" style="stroke:#08174a;stroke-linecap:round;stroke-linejoin:round;stroke-width:2px;fill:none" d="M0 0h44.4"/>
        <path data-name="선 346" transform="translate(28.296 55.878)" style="stroke:#08174a;stroke-linecap:round;stroke-linejoin:round;stroke-width:2px;fill:none" d="M0 0h44.4"/>
        <path data-name="선 347" transform="translate(42.683 34.609)" style="stroke:#08174a;stroke-linecap:round;stroke-linejoin:round;stroke-width:2px;fill:none" d="M0 0v10.355"/>
        <path data-name="선 348" transform="translate(58.31 34.609)" style="stroke:#08174a;stroke-linecap:round;stroke-linejoin:round;stroke-width:2px;fill:none" d="M0 0v10.355"/>
        <path data-name="선 349" transform="translate(34.87 44.9)" style="stroke:#08174a;stroke-linecap:round;stroke-linejoin:round;stroke-width:2px;fill:none" d="M0 0v10.355"/>
        <path data-name="선 350" transform="translate(50.496 44.9)" style="stroke:#08174a;stroke-linecap:round;stroke-linejoin:round;stroke-width:2px;fill:none" d="M0 0v10.355"/>
        <path data-name="선 351" transform="translate(67.003 44.9)" style="stroke:#08174a;stroke-linecap:round;stroke-linejoin:round;stroke-width:2px;fill:none" d="M0 0v10.355"/>
        <path data-name="선 352" transform="translate(42.683 55.846)" style="stroke:#08174a;stroke-linecap:round;stroke-linejoin:round;stroke-width:2px;fill:none" d="M0 0v10.355"/>
        <path data-name="선 353" transform="translate(58.31 55.846)" style="stroke:#08174a;stroke-linecap:round;stroke-linejoin:round;stroke-width:2px;fill:none" d="M0 0v10.355"/>
        <g data-name="그룹 6042">
            <g data-name="그룹 6041" style="clip-path:url(#ra9ofal85a)" transform="translate(18.371 18.056)">
                <path data-name="패스 7860" d="M17.647 53.634a7.449 7.449 0 0 1-7.721-7.721A7.45 7.45 0 0 1 2.2 53.634a7.45 7.45 0 0 1 7.722 7.721 7.449 7.449 0 0 1 7.725-7.721z" style="stroke:#08174a;stroke-linecap:round;stroke-linejoin:round;stroke-width:2px;fill:none"/>
                <path data-name="패스 7861" d="M62.047 11.09a7.449 7.449 0 0 1-7.721-7.721A7.45 7.45 0 0 1 46.6 11.09a7.45 7.45 0 0 1 7.722 7.721 7.449 7.449 0 0 1 7.725-7.721z" style="stroke:#08174a;stroke-linecap:round;stroke-linejoin:round;stroke-width:2px;fill:none"/>
            </g>
        </g>
    </g>
</svg>
