<svg data-name="구성 요소 205 – 1" xmlns="http://www.w3.org/2000/svg" width="111" height="111" viewBox="0 0 111 111">
    <defs>
        <clipPath id="gksj8v9z3a">
            <path data-name="사각형 3551" style="fill:none" d="M0 0h53.748v45.751H0z"/>
        </clipPath>
    </defs>
    <circle data-name="타원 380" cx="55.5" cy="55.5" r="55.5" style="fill:#00bb68"/>
    <g data-name="그룹 5467">
        <g data-name="그룹 5466" transform="translate(29.627 35)" style="clip-path:url(#gksj8v9z3a)">
            <path data-name="패스 7476" d="M47.819 16.412H30.375a.589.589 0 0 1-.589-.589V9.039a.589.589 0 0 1 .589-.589h17.444a.589.589 0 0 1 .589.589v6.783a.589.589 0 0 1-.589.589" transform="translate(-23.117 -5.426)" style="fill:#fff"/>
            <path data-name="패스 7477" d="M18.033 45.835H.589A.589.589 0 0 1 0 45.246v-6.784a.589.589 0 0 1 .589-.589h17.444a.589.589 0 0 1 .589.589v6.783a.589.589 0 0 1-.589.589" transform="translate(-3.991 -24.319)" style="fill:#fff"/>
            <path data-name="패스 7478" d="M77.061 45.835H59.617a.589.589 0 0 1-.589-.589v-6.784a.589.589 0 0 1 .589-.589h17.444a.589.589 0 0 1 .589.589v6.783a.589.589 0 0 1-.589.589" transform="translate(-41.894 -24.319)" style="fill:#fff"/>
            <path data-name="패스 7479" d="M136.089 45.835h-17.444a.589.589 0 0 1-.589-.589v-6.784a.589.589 0 0 1 .589-.589h17.443a.589.589 0 0 1 .589.589v6.783a.589.589 0 0 1-.589.589" transform="translate(-79.798 -24.319)" style="fill:#fff"/>
            <path data-name="패스 7480" d="M18.033 105.045H.589a.589.589 0 0 1-.589-.589v-6.784a.589.589 0 0 1 .589-.589h17.444a.589.589 0 0 1 .589.589v6.783a.589.589 0 0 1-.589.589" transform="translate(-3.991 -62.34)" style="fill:#fff"/>
            <path data-name="패스 7481" d="M77.061 105.045H59.617a.589.589 0 0 1-.589-.589v-6.784a.589.589 0 0 1 .589-.589h17.444a.589.589 0 0 1 .589.589v6.783a.589.589 0 0 1-.589.589" transform="translate(-41.894 -62.34)" style="fill:#fff"/>
            <path data-name="패스 7482" d="M136.089 105.045h-17.444a.589.589 0 0 1-.589-.589v-6.784a.589.589 0 0 1 .589-.589h17.443a.589.589 0 0 1 .589.589v6.783a.589.589 0 0 1-.589.589" transform="translate(-79.798 -62.34)" style="fill:#fff"/>
            <path data-name="패스 7483" d="M106.848 16.412H89.4a.589.589 0 0 1-.589-.589V9.039a.589.589 0 0 1 .589-.589h17.443a.589.589 0 0 1 .589.589v6.783a.589.589 0 0 1-.589.589" transform="translate(-61.021 -5.426)" style="fill:#fff"/>
            <path data-name="패스 7484" d="M152.941 16.412h-4.327a.589.589 0 0 1-.589-.589V9.039a.589.589 0 0 1 .589-.589h4.327a.589.589 0 0 1 .589.589v6.783a.589.589 0 0 1-.589.589" transform="translate(-99.041 -5.426)" style="fill:#fff"/>
            <path data-name="패스 7485" d="M12.181 16.412H7.854a.589.589 0 0 1-.589-.589V9.039a.589.589 0 0 1 .589-.589h4.327a.589.589 0 0 1 .589.589v6.783a.589.589 0 0 1-.589.589" transform="translate(-8.656 -5.426)" style="fill:#fff"/>
            <path data-name="패스 7486" d="M47.819 75.258H30.375a.589.589 0 0 1-.589-.589v-6.784a.589.589 0 0 1 .589-.589h17.444a.589.589 0 0 1 .589.589v6.783a.589.589 0 0 1-.589.589" transform="translate(-23.117 -43.213)" style="fill:#fff"/>
            <path data-name="패스 7487" d="M106.848 75.258H89.4a.589.589 0 0 1-.589-.589v-6.784a.589.589 0 0 1 .589-.585h17.443a.589.589 0 0 1 .589.589v6.783a.589.589 0 0 1-.589.589" transform="translate(-61.021 -43.213)" style="fill:#fff"/>
            <path data-name="패스 7488" d="M152.941 75.258h-4.327a.589.589 0 0 1-.589-.589v-6.784a.589.589 0 0 1 .589-.589h4.327a.589.589 0 0 1 .589.589v6.783a.589.589 0 0 1-.589.589" transform="translate(-99.041 -43.213)" style="fill:#fff"/>
            <path data-name="패스 7489" d="M12.181 75.258H7.854a.589.589 0 0 1-.589-.589v-6.784a.589.589 0 0 1 .589-.589h4.327a.589.589 0 0 1 .589.589v6.783a.589.589 0 0 1-.589.589" transform="translate(-8.656 -43.213)" style="fill:#fff"/>
        </g>
    </g>
</svg>
