<svg data-name="구성 요소 202 – 1" xmlns="http://www.w3.org/2000/svg" width="111" height="111" viewBox="0 0 111 111">
    <defs>
        <clipPath id="3e1adu23na">
            <path data-name="사각형 3547" style="fill:none" d="M0 0h51.646v50.673H0z"/>
        </clipPath>
    </defs>
    <circle data-name="타원 377" cx="55.5" cy="55.5" r="55.5" style="fill:#00bb68"/>
    <g data-name="그룹 5459">
        <g data-name="그룹 5458" style="clip-path:url(#3e1adu23na)" transform="translate(28.998 29.745)">
            <path data-name="패스 7462" d="M25.139 20.929 8.609 34.544v14.694a1.434 1.434 0 0 0 1.435 1.435l10.047-.026a1.435 1.435 0 0 0 1.427-1.435v-8.581a1.434 1.434 0 0 1 1.435-1.431h5.738a1.434 1.434 0 0 1 1.435 1.435v8.575a1.434 1.434 0 0 0 1.431 1.439l10.044.028a1.434 1.434 0 0 0 1.435-1.435v-14.7L26.511 20.929a1.092 1.092 0 0 0-1.372 0m26.112 9.254L43.751 24V11.585a1.076 1.076 0 0 0-1.076-1.076h-5.017a1.076 1.076 0 0 0-1.076 1.076V18.1l-8.027-6.6a4.3 4.3 0 0 0-5.469 0L.39 30.183A1.076 1.076 0 0 0 .247 31.7l2.286 2.779a1.076 1.076 0 0 0 1.515.147l21.09-17.367a1.092 1.092 0 0 1 1.372 0L47.6 34.623a1.076 1.076 0 0 0 1.515-.143L51.4 31.7a1.077 1.077 0 0 0-.148-1.515z" style="fill:#fff"/>
            <path data-name="패스 7463" d="M13.314 12.391A8.7 8.7 0 0 1 8.1 7.171a.638.638 0 0 0-.543-.371.58.58 0 0 0-.54.381A8.544 8.544 0 0 1 5 10.362a8.631 8.631 0 0 1-3.183 2.022.58.58 0 0 0-.008 1.085 8.68 8.68 0 0 1 5.216 5.208.582.582 0 0 0 .542.371.58.58 0 0 0 .541-.371 8.67 8.67 0 0 1 5.2-5.2.581.581 0 0 0 0-1.082" style="fill:#fff"/>
            <path data-name="패스 7464" d="M17.4 3.306A5.14 5.14 0 0 1 14.324.22.382.382 0 0 0 14 0a.345.345 0 0 0-.32.226 5.059 5.059 0 0 1-1.19 1.881A5.11 5.11 0 0 1 10.608 3.3a.343.343 0 0 0-.005.641 5.135 5.135 0 0 1 3.084 3.079.343.343 0 0 0 .64 0A5.124 5.124 0 0 1 17.4 3.946a.343.343 0 0 0 0-.64" style="fill:#fff"/>
        </g>
    </g>
</svg>
