<svg data-name="구성 요소 193 – 1" xmlns="http://www.w3.org/2000/svg" width="73" height="73" viewBox="0 0 73 73">
    <defs>
        <clipPath id="wfcdbjktsa">
            <path data-name="사각형 3551" style="fill:none" d="M0 0h35.424v30.154H0z"/>
        </clipPath>
    </defs>
    <g data-name="그룹 5886">
        <g data-name="그룹 5879">
            <circle data-name="타원 502" cx="36.5" cy="36.5" r="36.5" style="fill:#1b6a48"/>
        </g>
    </g>
    <g data-name="그룹 5467">
        <g data-name="그룹 5466" transform="translate(18.288 21.423)" style="clip-path:url(#wfcdbjktsa)">
            <path data-name="패스 7476" d="M41.671 13.7h-11.5a.389.389 0 0 1-.388-.388V8.838a.389.389 0 0 1 .388-.388h11.5a.388.388 0 0 1 .388.388v4.471a.388.388 0 0 1-.388.388" transform="translate(-25.391 -6.457)" style="fill:#fff"/>
            <path data-name="패스 7477" d="M11.885 43.121H.388A.389.389 0 0 1 0 42.732v-4.471a.389.389 0 0 1 .388-.388h11.5a.388.388 0 0 1 .388.388v4.471a.388.388 0 0 1-.388.388" transform="translate(-2.63 -28.94)" style="fill:#fff"/>
            <path data-name="패스 7478" d="M70.913 43.121h-11.5a.389.389 0 0 1-.388-.388v-4.472a.389.389 0 0 1 .388-.388h11.5a.388.388 0 0 1 .388.388v4.471a.388.388 0 0 1-.388.388" transform="translate(-47.735 -28.94)" style="fill:#fff"/>
            <path data-name="패스 7479" d="M129.941 43.121h-11.5a.389.389 0 0 1-.388-.388v-4.472a.389.389 0 0 1 .388-.388h11.5a.388.388 0 0 1 .388.388v4.471a.388.388 0 0 1-.388.388" transform="translate(-92.841 -28.94)" style="fill:#fff"/>
            <path data-name="패스 7480" d="M11.885 102.331H.388a.389.389 0 0 1-.388-.389v-4.471a.389.389 0 0 1 .388-.388h11.5a.388.388 0 0 1 .388.388v4.471a.388.388 0 0 1-.388.388" transform="translate(-2.63 -74.184)" style="fill:#fff"/>
            <path data-name="패스 7481" d="M70.913 102.331h-11.5a.389.389 0 0 1-.388-.388v-4.472a.389.389 0 0 1 .388-.388h11.5a.388.388 0 0 1 .388.388v4.471a.388.388 0 0 1-.388.388" transform="translate(-47.735 -74.184)" style="fill:#fff"/>
            <path data-name="패스 7482" d="M129.941 102.331h-11.5a.389.389 0 0 1-.388-.388v-4.472a.389.389 0 0 1 .388-.388h11.5a.388.388 0 0 1 .388.388v4.471a.388.388 0 0 1-.388.388" transform="translate(-92.841 -74.184)" style="fill:#fff"/>
            <path data-name="패스 7483" d="M100.7 13.7H89.2a.389.389 0 0 1-.388-.388V8.838a.389.389 0 0 1 .388-.388h11.5a.388.388 0 0 1 .388.388v4.471a.388.388 0 0 1-.388.388" transform="translate(-70.497 -6.457)" style="fill:#fff"/>
            <path data-name="패스 7484" d="M151.265 13.7h-2.852a.388.388 0 0 1-.388-.388V8.838a.388.388 0 0 1 .388-.388h2.852a.388.388 0 0 1 .388.388v4.471a.388.388 0 0 1-.388.388" transform="translate(-115.741 -6.457)" style="fill:#fff"/>
            <path data-name="패스 7485" d="M10.505 13.7H7.653a.388.388 0 0 1-.388-.388V8.838a.388.388 0 0 1 .388-.388h2.852a.388.388 0 0 1 .388.388v4.471a.388.388 0 0 1-.388.388" transform="translate(-8.182 -6.457)" style="fill:#fff"/>
            <path data-name="패스 7486" d="M41.671 72.544h-11.5a.388.388 0 0 1-.388-.388v-4.472a.389.389 0 0 1 .388-.388h11.5a.388.388 0 0 1 .388.388v4.471a.388.388 0 0 1-.388.388" transform="translate(-25.391 -51.423)" style="fill:#fff"/>
            <path data-name="패스 7487" d="M100.7 72.544H89.2a.388.388 0 0 1-.388-.388v-4.472a.389.389 0 0 1 .388-.384h11.5a.388.388 0 0 1 .388.388v4.471a.388.388 0 0 1-.388.388" transform="translate(-70.497 -51.423)" style="fill:#fff"/>
            <path data-name="패스 7488" d="M151.265 72.544h-2.852a.388.388 0 0 1-.388-.388v-4.472a.388.388 0 0 1 .388-.388h2.852a.388.388 0 0 1 .388.388v4.471a.388.388 0 0 1-.388.388" transform="translate(-115.741 -51.423)" style="fill:#fff"/>
            <path data-name="패스 7489" d="M10.505 72.544H7.653a.388.388 0 0 1-.388-.388v-4.472a.388.388 0 0 1 .388-.388h2.852a.388.388 0 0 1 .388.388v4.471a.388.388 0 0 1-.388.388" transform="translate(-8.182 -51.423)" style="fill:#fff"/>
        </g>
    </g>
</svg>
