<svg data-name="구성 요소 203 – 1" xmlns="http://www.w3.org/2000/svg" width="111" height="111" viewBox="0 0 111 111">
    <defs>
        <clipPath id="g301ok9j3a">
            <path data-name="사각형 3552" style="fill:none" d="M0 0h48.908v50.754H0z"/>
        </clipPath>
    </defs>
    <circle data-name="타원 378" cx="55.5" cy="55.5" r="55.5" style="fill:#1b6a48"/>
    <g data-name="그룹 5469">
        <g data-name="그룹 5468" transform="translate(31.046 30.123)" style="clip-path:url(#g301ok9j3a)">
            <path data-name="패스 7490" d="m78.323 55.814-22.042 7.029V29.756l22.952-7.319v32.132a1.308 1.308 0 0 1-.91 1.246" transform="translate(-30.324 -12.089)" style="fill:#fff"/>
            <path data-name="패스 7491" d="m14.167 26.954-.031 8.377a.861.861 0 0 1-.862.861l-2.408-.754c-.516-.217-.861-.386-.861-.861l.016-8.8a.858.858 0 0 1 .014-.143L0 22.437v32.132a1.308 1.308 0 0 0 .91 1.246l22.042 7.029V29.756z" transform="translate(0 -12.089)" style="fill:#fff"/>
            <path data-name="패스 7492" d="m11.308 10.11 22.627-7.3L25.463.1a2.115 2.115 0 0 0-1.3 0L1.4 7.507l9.418 2.99a.887.887 0 0 1 .486-.387" transform="translate(-.756)" style="fill:#fff"/>
            <path data-name="패스 7493" d="M67.435 13.423 59.8 10.98c-.013.005-.024.012-.038.017l-23.4 7.546 7.566 2.4z" transform="translate(-19.595 -5.916)" style="fill:#fff"/>
        </g>
    </g>
</svg>
