<svg data-name="구성 요소 204 – 1" xmlns="http://www.w3.org/2000/svg" width="111" height="111" viewBox="0 0 111 111">
    <defs>
        <clipPath id="abi8hyu7aa">
            <path data-name="사각형 3550" style="fill:none" d="M0 0h42.74v51.805H0z"/>
        </clipPath>
    </defs>
    <circle data-name="타원 379" cx="55.5" cy="55.5" r="55.5" style="fill:#1b6a48"/>
    <g data-name="그룹 5465">
        <g data-name="그룹 5464" style="clip-path:url(#abi8hyu7aa)" transform="translate(34.131 33)">
            <path data-name="패스 7472" d="M38.192 2.215v11.25a2.221 2.221 0 0 1-2.215 2.215H2.215A2.221 2.221 0 0 1 0 13.465V2.215A2.221 2.221 0 0 1 2.215 0h33.762a2.221 2.221 0 0 1 2.215 2.215" style="fill:#fff"/>
            <path data-name="패스 7473" d="M83.25 56.384a1.007 1.007 0 0 1-1.007-1.007V51.23a1.007 1.007 0 0 1 .643-.939l21.675-8.41v-9.889H99.1a1.007 1.007 0 0 1 0-2.014h6.464a1.007 1.007 0 0 1 1.007 1.007v11.586a1.007 1.007 0 0 1-.643.939l-21.671 8.41v3.457a1.007 1.007 0 0 1-1.007 1.007" transform="translate(-63.835 -23.268)" style="fill:#fff"/>
            <path data-name="패스 7474" d="M73.056 164.452a3.749 3.749 0 0 1-3.749-3.749v-12.488A2.219 2.219 0 0 1 71.526 146h2.8a2.219 2.219 0 0 1 2.219 2.219v12.75a3.488 3.488 0 0 1-3.488 3.488" transform="translate(-53.794 -113.318)" style="fill:#fff"/>
            <path data-name="패스 7475" d="M70.727 162.8a4.425 4.425 0 0 1-4.42-4.42v-12.494A2.893 2.893 0 0 1 69.2 143H72a2.893 2.893 0 0 1 2.89 2.89v12.75a4.164 4.164 0 0 1-4.159 4.159m-1.531-18.46a1.549 1.549 0 0 0-1.547 1.547v12.489a3.081 3.081 0 0 0 3.077 3.077 2.819 2.819 0 0 0 2.816-2.816v-12.75A1.549 1.549 0 0 0 72 144.339z" transform="translate(-51.466 -110.99)" style="fill:#fff"/>
        </g>
    </g>
</svg>
