<svg data-name="구성 요소 39 – 1" xmlns="http://www.w3.org/2000/svg" width="120" height="120" viewBox="0 0 120 120">
    <defs>
        <clipPath id="zcmomacm6a">
            <path data-name="사각형 3557" style="fill:none" d="M0 0h66.739v75.359H0z"/>
        </clipPath>
    </defs>
    <circle data-name="타원 375" cx="60" cy="60" r="60" style="fill:#fff"/>
    <g data-name="그룹 5473">
        <g data-name="그룹 5472" style="clip-path:url(#zcmomacm6a)" transform="translate(27 22)">
            <path data-name="패스 7513" d="M97.363 191.5a7.656 7.656 0 1 1-7.656-7.656 7.656 7.656 0 0 1 7.656 7.656" transform="translate(-55.892 -125.231)" style="fill:#fff"/>
            <path data-name="패스 7514" d="M86.641 197.525a9.091 9.091 0 1 1 9.091-9.091 9.1 9.1 0 0 1-9.091 9.091m0-15.312a6.222 6.222 0 1 0 6.222 6.222 6.229 6.229 0 0 0-6.222-6.222" transform="translate(-52.826 -122.165)" style="fill:#46bad1"/>
            <path data-name="패스 7515" d="M69.882 86.58H53.894a1.434 1.434 0 0 1-1.416-1.2c-.068-.413-.127-.823-.186-1.23-.122-.848-.238-1.65-.424-2.415a13.278 13.278 0 0 0-4.154-6.705 19.73 19.73 0 0 1-6.576-15.9 20.1 20.1 0 0 1 9.1-16.371 20.573 20.573 0 0 1 24.426.862A19.859 19.859 0 0 1 82.4 57.583a20.011 20.011 0 0 1-5.919 16.9 19.68 19.68 0 0 0-3.5 4.313 13.147 13.147 0 0 0-1.638 5.782l-.035.645a1.435 1.435 0 0 1-1.433 1.356M55.129 83.71h13.407a16.172 16.172 0 0 1 1.934-6.289 22.125 22.125 0 0 1 3.985-4.964 17.262 17.262 0 0 0 5.1-14.583 17.085 17.085 0 0 0-6.674-12.008 17.686 17.686 0 0 0-21-.759 17.358 17.358 0 0 0-7.873 14.128 16.974 16.974 0 0 0 5.653 13.681 16.053 16.053 0 0 1 5 8.136c.216.89.347 1.788.472 2.658" transform="translate(-28.011 -26.67)" style="fill:#46bad1"/>
            <path data-name="사각형 3556" transform="translate(20.47 55.618)" style="fill:#fff" d="M0 0h26.691v7.586H0z"/>
            <path data-name="패스 7516" d="M87.831 180.407H61.14a1.435 1.435 0 0 1-1.435-1.435v-7.586a1.435 1.435 0 0 1 1.435-1.435h26.691a1.435 1.435 0 0 1 1.435 1.435v7.586a1.435 1.435 0 0 1-1.435 1.435m-25.257-2.869H86.4v-4.718H62.574z" transform="translate(-40.67 -115.768)" style="fill:#46bad1"/>
            <path data-name="패스 7517" d="M65.8 76.656s.448-9.4 12.119-11.305" transform="translate(-44.824 -44.516)" style="fill:#fff"/>
            <path data-name="패스 7518" d="M62.74 75.026h-.07a1.435 1.435 0 0 1-1.365-1.5c.005-.106.65-10.587 13.321-12.653a1.435 1.435 0 1 1 .462 2.832c-10.4 1.7-10.913 9.875-10.917 9.958a1.434 1.434 0 0 1-1.432 1.366" transform="translate(-41.759 -41.451)" style="fill:#46bad1"/>
            <path data-name="패스 7519" d="M189.417 102.364h-5.781a1.435 1.435 0 0 1 0-2.869h5.781a1.435 1.435 0 1 1 0 2.869" transform="translate(-124.112 -67.774)" style="fill:#46bad1"/>
            <path data-name="패스 7520" d="M167.147 40.988a1.434 1.434 0 0 1-1.014-2.449l4.088-4.088a1.434 1.434 0 1 1 2.029 2.028l-4.088 4.088a1.431 1.431 0 0 1-1.014.42" transform="translate(-112.88 -23.182)" style="fill:#46bad1"/>
            <path data-name="패스 7521" d="M7.216 97.8H1.435a1.435 1.435 0 0 1 0-2.869h5.781a1.435 1.435 0 0 1 0 2.869" transform="translate(0 -64.666)" style="fill:#46bad1"/>
            <path data-name="패스 7522" d="M27.322 36.424A1.43 1.43 0 0 1 26.308 36l-4.088-4.085a1.434 1.434 0 0 1 2.029-2.029l4.088 4.088a1.435 1.435 0 0 1-1.014 2.449" transform="translate(-14.849 -20.072)" style="fill:#46bad1"/>
            <path data-name="패스 7523" d="M103 8.65a1.435 1.435 0 0 1-1.435-1.435v-5.78a1.435 1.435 0 1 1 2.869 0v5.781A1.435 1.435 0 0 1 103 8.65" transform="translate(-69.184)" style="fill:#46bad1"/>
        </g>
    </g>
</svg>
