<svg data-name="구성 요소 40 – 1" xmlns="http://www.w3.org/2000/svg" width="120" height="120" viewBox="0 0 120 120">
    <defs>
        <clipPath id="akoenrwsta">
            <path data-name="사각형 3561" style="fill:none" d="M0 0h64.605v72.795H0z"/>
        </clipPath>
    </defs>
    <circle data-name="타원 374" cx="60" cy="60" r="60" style="fill:#fff"/>
    <g data-name="그룹 5475">
        <g data-name="그룹 5474" style="clip-path:url(#akoenrwsta)" transform="translate(34.111 23.602)">
            <path data-name="패스 7524" d="M74.307 11.509a5.754 5.754 0 1 1 5.754-5.754 5.761 5.761 0 0 1-5.754 5.754m0-9.152a3.4 3.4 0 1 0 3.4 3.4 3.4 3.4 0 0 0-3.4-3.4" transform="translate(-48.359)" style="fill:#46bad1"/>
            <path data-name="사각형 3558" transform="translate(1.178 8.492)" style="fill:#fff" d="M0 0h49.541v63.125H0z"/>
            <path data-name="패스 7525" d="M50.719 90.308H1.178A1.178 1.178 0 0 1 0 89.13V26a1.178 1.178 0 0 1 1.178-1.178h49.541A1.178 1.178 0 0 1 51.9 26v63.13a1.178 1.178 0 0 1-1.178 1.178M2.357 87.951h47.184V27.183H2.357z" transform="translate(0 -17.513)" style="fill:#46bad1"/>
            <path data-name="사각형 3559" transform="translate(13.265 5.072)" style="fill:#fff" d="M0 0h25.367v7.347H0z"/>
            <path data-name="패스 7526" d="M67.576 22.922H42.208a1.178 1.178 0 0 1-1.178-1.178V14.4a1.178 1.178 0 0 1 1.178-1.178h25.368a1.178 1.178 0 0 1 1.178 1.178v7.347a1.178 1.178 0 0 1-1.178 1.178m-24.189-2.36H66.4v-4.99H43.387z" transform="translate(-28.943 -9.324)" style="fill:#46bad1"/>
            <path data-name="패스 7527" d="M39.66 116.426a1.386 1.386 0 0 1-.477-.246.935.935 0 0 1-.269-.353 1.022 1.022 0 0 1-.084-.4 1.2 1.2 0 0 1 .062-.384l3.335-9.422a1.382 1.382 0 0 1 .454-.592 1.6 1.6 0 0 1 1.037-.285 1.639 1.639 0 0 1 1.045.285 1.368 1.368 0 0 1 .461.592l3.336 9.453a.994.994 0 0 1-.015.861 1.131 1.131 0 0 1-.692.461 1.312 1.312 0 0 1-.976-.031 1.093 1.093 0 0 1-.546-.661l-.707-2.106H41.9l-.738 2.183a.974.974 0 0 1-.538.569 1.455 1.455 0 0 1-.968.077m4.1-8.361-1.245 3.674h2.475z" transform="translate(-27.391 -73.889)" style="fill:#46bad1"/>
            <path data-name="패스 7528" d="M39.708 116.267a1.984 1.984 0 0 1-.433-.05h-.012a1.537 1.537 0 0 1-.526-.273 1.087 1.087 0 0 1-.31-.409 1.172 1.172 0 0 1-.1-.457 1.34 1.34 0 0 1 .07-.431l3.336-9.424a1.533 1.533 0 0 1 .5-.656 1.749 1.749 0 0 1 1.131-.318 1.785 1.785 0 0 1 1.137.317 1.514 1.514 0 0 1 .508.658l3.336 9.452a1.135 1.135 0 0 1-.029.987 1.276 1.276 0 0 1-.777.526 1.454 1.454 0 0 1-1.083-.042 1.237 1.237 0 0 1-.619-.746l-.673-2h-3.507l-.7 2.083a1.121 1.121 0 0 1-.613.654 1.445 1.445 0 0 1-.632.138m-.362-.336a1.31 1.31 0 0 0 .866-.067.825.825 0 0 0 .462-.483l.772-2.283h3.931l.741 2.206a.943.943 0 0 0 .473.577 1.181 1.181 0 0 0 .869.02.994.994 0 0 0 .607-.4.864.864 0 0 0 0-.736l-3.335-9.452a1.236 1.236 0 0 0-.415-.526 1.511 1.511 0 0 0-.953-.252 1.479 1.479 0 0 0-.944.251 1.256 1.256 0 0 0-.408.527l-3.335 9.423a1.049 1.049 0 0 0-.053.335.88.88 0 0 0 .073.343.793.793 0 0 0 .228.3 1.239 1.239 0 0 0 .42.217m5.5-4.4h-2.888l1.451-4.282zm-2.474-.295h2.065l-1.026-3.065z" transform="translate(-27.039 -73.536)" style="fill:#46bad1"/>
            <path data-name="패스 7529" d="M83.6 102.11a.919.919 0 0 1 .547-.545 1.317 1.317 0 0 1 .861-.037 1.107 1.107 0 0 1 .68.482 1.063 1.063 0 0 1 0 .949l-4.281 11.475a1.1 1.1 0 0 1-.59.659 1.431 1.431 0 0 1-.886.1.9.9 0 0 1-.719-.513 1.094 1.094 0 0 1-.016-.874z" transform="translate(-55.806 -71.581)" style="fill:#46bad1"/>
            <path data-name="패스 7530" d="M79.874 115.016a1.677 1.677 0 0 1-.326-.032 1.038 1.038 0 0 1-.825-.6 1.242 1.242 0 0 1-.019-.988l4.4-11.694a1.066 1.066 0 0 1 .63-.63 1.471 1.471 0 0 1 .955-.042 1.26 1.26 0 0 1 .767.547 1.2 1.2 0 0 1 .016 1.078l-4.281 11.476a1.244 1.244 0 0 1-.668.741 1.563 1.563 0 0 1-.649.141m4.389-13.747a1.118 1.118 0 0 0-.418.08.773.773 0 0 0-.464.46L78.98 113.5a.946.946 0 0 0 .013.762.752.752 0 0 0 .61.428 1.278 1.278 0 0 0 .8-.088.947.947 0 0 0 .513-.575l4.284-11.471a.932.932 0 0 0 .01-.82.959.959 0 0 0-.594-.418 1.33 1.33 0 0 0-.349-.049" transform="translate(-55.454 -71.229)" style="fill:#46bad1"/>
            <path data-name="패스 7531" d="M110.31 114.732a4.684 4.684 0 0 0 .868-.077 2.209 2.209 0 0 0 .7-.246 1.334 1.334 0 0 0 .461-.431 1.106 1.106 0 0 0 .169-.614 1.231 1.231 0 0 0-.192-.692 1.906 1.906 0 0 0-.515-.515 3.9 3.9 0 0 0-.738-.392q-.415-.169-.861-.323-.692-.245-1.422-.53a6.933 6.933 0 0 1-1.322-.676 3.561 3.561 0 0 1-.968-.93 2.193 2.193 0 0 1-.376-1.291 2.516 2.516 0 0 1 .446-1.529 3.259 3.259 0 0 1 1.137-.968 5.371 5.371 0 0 1 1.553-.518 9.6 9.6 0 0 1 1.691-.154q.415 0 .922.038a8.779 8.779 0 0 1 .991.131 7.347 7.347 0 0 1 .907.23 1.886 1.886 0 0 1 .653.338.791.791 0 0 1 .254.361 1.205 1.205 0 0 1 .069.376.953.953 0 0 1-.185.576.856.856 0 0 1-.407.284 1.431 1.431 0 0 1-.523.062 1.621 1.621 0 0 1-.515-.108q-.569-.185-1.076-.308a4.624 4.624 0 0 0-1.091-.123 3.836 3.836 0 0 0-1.545.269.913.913 0 0 0-.607.884.98.98 0 0 0 .2.615 1.98 1.98 0 0 0 .53.469 4.455 4.455 0 0 0 .768.376q.438.169.915.323l.845.292a12 12 0 0 1 1.145.492 4.575 4.575 0 0 1 1 .661 3.121 3.121 0 0 1 .707.891 2.488 2.488 0 0 1 .269 1.184 3.243 3.243 0 0 1-.354 1.552 3.017 3.017 0 0 1-.991 1.091 4.558 4.558 0 0 1-1.514.638 8.342 8.342 0 0 1-1.921.207 7.974 7.974 0 0 1-2.6-.369 4.1 4.1 0 0 1-1.552-.861.789.789 0 0 1-.23-.292 1.029 1.029 0 0 1-.092-.338.945.945 0 0 1 .315-.845 1.106 1.106 0 0 1 .361-.207 1.263 1.263 0 0 1 .415-.069 1.521 1.521 0 0 1 .469.077 1.237 1.237 0 0 1 .407.215c.164.113.323.215.477.308a2.862 2.862 0 0 0 .507.238 3.725 3.725 0 0 0 .63.162 4.806 4.806 0 0 0 .815.061" transform="translate(-74.709 -73.963)" style="fill:#46bad1"/>
            <path data-name="패스 7532" d="M110.035 116.449a8.164 8.164 0 0 1-2.646-.377 4.267 4.267 0 0 1-1.608-.9.915.915 0 0 1-.26-.336 1.179 1.179 0 0 1-.1-.386 1.089 1.089 0 0 1 .366-.97 1.254 1.254 0 0 1 .409-.235 1.524 1.524 0 0 1 .977.007 1.388 1.388 0 0 1 .455.241c.151.1.308.2.459.295a2.724 2.724 0 0 0 .481.226 3.61 3.61 0 0 0 .606.155 5.059 5.059 0 0 0 1.63-.015 2.064 2.064 0 0 0 .653-.229 1.189 1.189 0 0 0 .412-.383.966.966 0 0 0 .146-.535 1.078 1.078 0 0 0-.168-.611 1.755 1.755 0 0 0-.475-.475 3.76 3.76 0 0 0-.71-.377 17.127 17.127 0 0 0-.853-.32 53.547 53.547 0 0 1-1.427-.532 7.125 7.125 0 0 1-1.35-.691 3.736 3.736 0 0 1-1.007-.968 2.347 2.347 0 0 1-.4-1.375 2.673 2.673 0 0 1 .474-1.617 3.427 3.427 0 0 1 1.188-1.012 5.545 5.545 0 0 1 1.595-.529 9.811 9.811 0 0 1 1.717-.156c.277 0 .59.013.933.039a9.05 9.05 0 0 1 1.008.133 7.512 7.512 0 0 1 .925.235 2.049 2.049 0 0 1 .7.367.938.938 0 0 1 .3.425 1.36 1.36 0 0 1 .077.424 1.106 1.106 0 0 1-.218.669 1 1 0 0 1-.476.332 1.571 1.571 0 0 1-.575.068 1.762 1.762 0 0 1-.562-.118c-.366-.118-.724-.22-1.056-.3a4.476 4.476 0 0 0-1.056-.119 3.717 3.717 0 0 0-1.485.256.771.771 0 0 0-.519.749.829.829 0 0 0 .169.525 1.843 1.843 0 0 0 .492.434 4.363 4.363 0 0 0 .743.364c.294.113.6.221.907.32l.848.293a12.177 12.177 0 0 1 1.162.5 4.766 4.766 0 0 1 1.031.682 3.285 3.285 0 0 1 .74.933 2.644 2.644 0 0 1 .287 1.253 3.4 3.4 0 0 1-.371 1.622 3.173 3.173 0 0 1-1.039 1.144 4.717 4.717 0 0 1-1.562.659 8.511 8.511 0 0 1-1.955.212m-3.381-2.982a1.109 1.109 0 0 0-.367.061.951.951 0 0 0-.314.18.807.807 0 0 0-.214.3.817.817 0 0 0-.051.418.889.889 0 0 0 .08.293.648.648 0 0 0 .189.239 4 4 0 0 0 1.508.836 7.862 7.862 0 0 0 2.549.361 8.224 8.224 0 0 0 1.887-.2 4.44 4.44 0 0 0 1.466-.617 2.882 2.882 0 0 0 .944-1.038 3.111 3.111 0 0 0 .337-1.483 2.36 2.36 0 0 0-.252-1.114 3 3 0 0 0-.674-.85 4.461 4.461 0 0 0-.967-.64 11.991 11.991 0 0 0-1.131-.485l-.842-.291c-.31-.1-.62-.209-.92-.324a4.655 4.655 0 0 1-.794-.389 2.13 2.13 0 0 1-.569-.5 1.127 1.127 0 0 1-.23-.7 1.054 1.054 0 0 1 .694-1.019 4 4 0 0 1 1.6-.282 4.8 4.8 0 0 1 1.126.127c.339.082.7.187 1.087.311a1.5 1.5 0 0 0 .478.1 1.293 1.293 0 0 0 .469-.055.7.7 0 0 0 .338-.237.816.816 0 0 0 .152-.49 1.053 1.053 0 0 0-.062-.324.643.643 0 0 0-.208-.294 1.761 1.761 0 0 0-.605-.312 7.16 7.16 0 0 0-.888-.226 8.71 8.71 0 0 0-.975-.128 12.434 12.434 0 0 0-.911-.038 9.534 9.534 0 0 0-1.665.151 5.248 5.248 0 0 0-1.51.5 3.13 3.13 0 0 0-1.086.924 2.386 2.386 0 0 0-.417 1.443 2.058 2.058 0 0 0 .35 1.207 3.436 3.436 0 0 0 .929.891 6.822 6.822 0 0 0 1.294.662c.478.187.955.364 1.418.529.3.1.59.212.867.325a4.036 4.036 0 0 1 .766.407 2.046 2.046 0 0 1 .554.555 1.38 1.38 0 0 1 .217.773 1.253 1.253 0 0 1-.193.695 1.474 1.474 0 0 1-.511.478 2.357 2.357 0 0 1-.746.263 5.333 5.333 0 0 1-1.736.016 3.9 3.9 0 0 1-.655-.168 3.025 3.025 0 0 1-.533-.25q-.234-.14-.485-.312a1.12 1.12 0 0 0-.369-.2 1.392 1.392 0 0 0-.423-.07" transform="translate(-74.357 -73.611)" style="fill:#46bad1"/>
            <path data-name="패스 7533" d="m131.073 169.848-.436 6.993 7.275-1.674" transform="translate(-92.154 -119.814)" style="fill:#fff"/>
            <path data-name="패스 7534" d="M127.817 175.2a1.178 1.178 0 0 1-1.176-1.252l.435-6.993a1.178 1.178 0 0 1 2.352.147l-.338 5.417 5.737-1.32a1.178 1.178 0 1 1 .528 2.3l-7.276 1.674a1.164 1.164 0 0 1-.264.03" transform="translate(-89.333 -116.994)" style="fill:#46bad1"/>
            <path data-name="사각형 3560" transform="rotate(-52.127 70.608 -14.769)" style="fill:#fff" d="M0 0h28.781v8.665H0z"/>
            <path data-name="패스 7535" d="M136.134 119.117a1.171 1.171 0 0 1-.723-.248l-6.84-5.319a1.179 1.179 0 0 1-.207-1.653l17.669-22.719a1.179 1.179 0 0 1 1.654-.207l6.84 5.32a1.178 1.178 0 0 1 .206 1.653l-17.668 22.719a1.176 1.176 0 0 1-.931.455m-5.185-6.7 4.979 3.873 16.222-20.865-4.979-3.873z" transform="translate(-90.376 -62.586)" style="fill:#46bad1"/>
            <path data-name="패스 7536" d="M188.2 107.658a1.174 1.174 0 0 1-.711-.239l-6.393-4.843a1.178 1.178 0 1 1 1.423-1.879l6.393 4.844a1.178 1.178 0 0 1-.713 2.117" transform="translate(-127.417 -70.865)" style="fill:#46bad1"/>
            <path data-name="패스 7537" d="M57.949 159.524H25.717a1.178 1.178 0 1 1 0-2.357h32.232a1.178 1.178 0 1 1 0 2.357" transform="translate(-17.31 -110.869)" style="fill:#46bad1"/>
        </g>
    </g>
</svg>
