<svg xmlns="http://www.w3.org/2000/svg" width="120" height="120" viewBox="0 0 120 120">
    <defs>
        <clipPath id="yuqpxq09pa">
            <path data-name="사각형 3565" style="fill:none" d="M0 0h72.061v70.395H0z"/>
        </clipPath>
    </defs>
    <g data-name="그룹 5773">
        <g data-name="구성 요소 41 – 1">
            <circle data-name="타원 373" cx="60" cy="60" r="60" style="fill:#fff"/>
            <g data-name="그룹 5478">
                <path data-name="사각형 3562" transform="translate(70.439 37.983)" style="fill:#fff" d="M0 0h4.987v15.322H0z"/>
                <g data-name="그룹 5477">
                    <g data-name="그룹 5476" style="clip-path:url(#yuqpxq09pa)" transform="translate(29.384 21.803)">
                        <path data-name="패스 7538" d="M172.673 80.416h-4.987a1.08 1.08 0 0 1-1.08-1.08V64.015a1.08 1.08 0 0 1 1.08-1.08h4.987a1.08 1.08 0 0 1 1.08 1.08v15.321a1.08 1.08 0 0 1-1.08 1.08m-3.908-2.159h2.828V65.094h-2.828z" transform="translate(-126.63 -47.834)" style="fill:#46bad1"/>
                        <path data-name="사각형 3563" transform="translate(37.442 28.601)" style="fill:#fff" d="M0 0h12.214v7.125H0z"/>
                        <path data-name="패스 7539" d="M164.841 123.986h-12.214a1.08 1.08 0 0 1-1.08-1.08v-7.125a1.08 1.08 0 0 1 1.08-1.08h12.214a1.08 1.08 0 0 1 1.08 1.08v7.125a1.08 1.08 0 0 1-1.08 1.08m-11.134-2.159h10.055v-4.965h-10.056z" transform="translate(-115.185 -87.179)" style="fill:#46bad1"/>
                        <path data-name="패스 7540" d="M143.57 147.623a14.277 14.277 0 0 1 8.143 11.4v22.494h-27.482v-22.9s-.178-6.845 8.473-10.916c0 0 11.018.076 10.866-.076" transform="translate(-94.423 -112.202)" style="fill:#fff"/>
                        <path data-name="패스 7541" d="M148.291 179.175H120.81a1.08 1.08 0 0 1-1.08-1.08V155.2c-.008-.5.04-7.644 9.094-11.9a1.144 1.144 0 0 1 .467-.1c3.651.025 9.6.036 10.568-.037a1.071 1.071 0 0 1 .69.038 15.252 15.252 0 0 1 8.814 12.274 1.137 1.137 0 0 1 .007.128v22.494a1.08 1.08 0 0 1-1.08 1.08m-26.4-2.159h25.322v-21.35a13.137 13.137 0 0 0-7.225-10.356c-.371.033-.867.039-1.546.048-.893.012-2.125.018-3.665.018h-.082c-2.21 0-4.438-.013-5.169-.018-7.637 3.7-7.639 9.563-7.635 9.813z" transform="translate(-91.001 -108.78)" style="fill:#46bad1"/>
                        <path data-name="패스 7542" d="M228.575 76.187s-4.377 2.392-3.664 13.181h-2.9V75.932z" transform="translate(-168.741 -57.713)" style="fill:#fff"/>
                        <path data-name="패스 7543" d="M221.492 87.027h-2.9a1.08 1.08 0 0 1-1.08-1.08V72.512a1.08 1.08 0 0 1 1.121-1.079l6.565.254a1.08 1.08 0 0 1 .492 2.018 5.638 5.638 0 0 0-1.775 2.3c-.8 1.649-1.687 4.7-1.345 9.867a1.08 1.08 0 0 1-1.077 1.151m-1.821-2.159h.685c-.149-4.144.435-7.522 1.742-10.052a10.347 10.347 0 0 1 .629-1.062l-3.056-.119z" transform="translate(-165.321 -54.292)" style="fill:#46bad1"/>
                        <path data-name="사각형 3564" transform="translate(35.406 14.453)" style="fill:#fff" d="M0 0h25.141v4.987H0z"/>
                        <path data-name="패스 7544" d="M169.283 62.883h-25.141a1.08 1.08 0 0 1-1.08-1.08v-4.987a1.08 1.08 0 0 1 1.08-1.08h25.141a1.08 1.08 0 0 1 1.08 1.08V61.8a1.08 1.08 0 0 1-1.08 1.08m-24.061-2.159H168.2V57.9h-22.979z" transform="translate(-108.735 -42.363)" style="fill:#46bad1"/>
                        <path data-name="패스 7545" d="M37.87 52.418h-9.21a1.1 1.1 0 0 1-1.095-1.095v-4.361a1.1 1.1 0 0 1 1.095-1.094h9.21a1.1 1.1 0 0 1 1.095 1.094v4.361a1.1 1.1 0 0 1-1.095 1.095" transform="translate(-20.951 -34.862)" style="fill:#fff"/>
                        <path data-name="패스 7546" d="M34.45 50.076h-9.21a2.177 2.177 0 0 1-2.175-2.176v-4.359a2.177 2.177 0 0 1 2.175-2.174h9.21a2.177 2.177 0 0 1 2.174 2.174V47.9a2.177 2.177 0 0 1-2.174 2.174m-9.211-6.55-.014 4.376 9.226.015a.02.02 0 0 0 .015-.015v-4.359z" transform="translate(-17.531 -31.441)" style="fill:#46bad1"/>
                        <path data-name="패스 7547" d="M9.653 70.986S5.263 73.62 4.5 84.918v38.322h39.543V92.453a9.289 9.289 0 0 0-.293-2.322C42.6 85.684 40.371 72.1 21.269 70.948c0 0-11.247.038-11.616.038" transform="translate(-3.42 -53.925)" style="fill:#fff"/>
                        <path data-name="패스 7548" d="M40.623 120.9H1.08A1.08 1.08 0 0 1 0 119.818V81.427C.795 69.7 5.478 66.758 5.677 66.639a1.079 1.079 0 0 1 .556-.154c.363 0 11.5-.038 11.612-.038a.661.661 0 0 1 .069 0c8.061.487 14.19 3.207 18.218 8.084a26.435 26.435 0 0 1 5.048 11.12c.07.287.134.551.2.788a10.381 10.381 0 0 1 .328 2.591v30.786a1.08 1.08 0 0 1-1.08 1.08m-38.469-2.158h37.384V89.032a8.234 8.234 0 0 0-.259-2.052c-.063-.246-.13-.519-.2-.816-1.2-4.939-4.025-16.5-21.264-17.558l-11.24.037c-1.412 1.125-3.878 5-4.419 12.889z" transform="translate(0 -50.503)" style="fill:#46bad1"/>
                        <path data-name="패스 7549" d="M88.62 114.027c-2.057 2.057-6.987.462-11.012-3.563s-5.62-8.955-3.563-11.012 6.987-.462 11.012 3.563 5.62 8.955 3.563 11.012" transform="translate(-55.597 -74.907)" style="fill:#fff"/>
                        <path data-name="패스 7550" d="M82.769 112.581a8.569 8.569 0 0 1-2.62-.454 17.467 17.467 0 0 1-6.674-4.326c-4.514-4.514-6.079-10.022-3.563-12.539 1.3-1.3 3.379-1.568 5.864-.763a17.468 17.468 0 0 1 6.675 4.326c4.514 4.515 6.079 10.022 3.562 12.539a4.435 4.435 0 0 1-3.243 1.217m-9.6-16.371a2.389 2.389 0 0 0-1.731.579c-1.4 1.4-.282 5.641 3.563 9.485a15.291 15.291 0 0 0 5.812 3.8c1.65.534 2.989.448 3.672-.235 1.4-1.4.282-5.64-3.563-9.485-2.788-2.787-5.783-4.142-7.753-4.142" transform="translate(-52.225 -71.48)" style="fill:#46bad1"/>
                        <path data-name="패스 7551" d="M40.47 201.276H1.08a1.08 1.08 0 1 1 0-2.159h39.39a1.08 1.08 0 1 1 0 2.159" transform="translate(0 -151.341)" style="fill:#46bad1"/>
                        <path data-name="패스 7552" d="M40.47 260.452H1.08a1.08 1.08 0 0 1 0-2.159h39.39a1.08 1.08 0 0 1 0 2.159" transform="translate(0 -196.318)" style="fill:#46bad1"/>
                        <path data-name="패스 7553" d="M105.825 17.626h-6.962a1.56 1.56 0 0 1 0-3.119h6.962a1.56 1.56 0 1 1 0 3.119" transform="translate(-73.956 -11.026)" style="fill:#46bad1"/>
                        <path data-name="패스 7554" d="M113.371 10.081a1.559 1.559 0 0 1-1.56-1.56V1.56a1.56 1.56 0 1 1 3.119 0v6.962a1.56 1.56 0 0 1-1.56 1.56" transform="translate(-84.983)" style="fill:#46bad1"/>
                        <path data-name="패스 7555" d="M266.836 165.56h-6.962a1.56 1.56 0 1 1 0-3.119h6.962a1.56 1.56 0 1 1 0 3.119" transform="translate(-196.334 -123.465)" style="fill:#46bad1"/>
                        <path data-name="패스 7556" d="M274.381 158.014a1.56 1.56 0 0 1-1.56-1.56v-6.962a1.56 1.56 0 0 1 3.119 0v6.962a1.56 1.56 0 0 1-1.56 1.56" transform="translate(-207.36 -112.438)" style="fill:#46bad1"/>
                    </g>
                </g>
            </g>
        </g>
    </g>
</svg>
