<svg data-name="구성 요소 42 – 1" xmlns="http://www.w3.org/2000/svg" width="120" height="120" viewBox="0 0 120 120">
    <defs>
        <clipPath id="f3qsbib82a">
            <path data-name="사각형 3555" style="fill:none" d="M0 0h79.21v72.453H0z"/>
        </clipPath>
    </defs>
    <circle data-name="타원 372" cx="60" cy="60" r="60" style="fill:#fff"/>
    <g data-name="그룹 5471">
        <g data-name="그룹 5470" style="clip-path:url(#f3qsbib82a)" transform="translate(20.396 19.773)">
            <path data-name="패스 7494" d="M53.1 107.58a11.865 11.865 0 1 1-11.86-11.865A11.865 11.865 0 0 1 53.1 107.58" transform="translate(-21.454 -69.909)" style="fill:#fff"/>
            <path data-name="패스 7495" d="M37.953 117.371a13.079 13.079 0 1 1 13.079-13.079 13.093 13.093 0 0 1-13.079 13.079m0-23.731A10.652 10.652 0 1 0 48.6 104.293a10.664 10.664 0 0 0-10.647-10.652" transform="translate(-18.168 -66.621)" style="fill:#46bad1"/>
            <path data-name="패스 7496" d="m10.289 146.571 6.417 31.722h20.582l7.022-30.269z" transform="translate(-7.515 -107.053)" style="fill:#fff"/>
            <path data-name="패스 7497" d="M34 176.219H13.419a1.214 1.214 0 0 1-1.189-.973l-6.417-31.721a1.213 1.213 0 0 1 .267-1.025 1.2 1.2 0 0 1 .974-.424l34.022 1.453a1.214 1.214 0 0 1 1.13 1.486l-7.023 30.265a1.213 1.213 0 0 1-1.182.939m-19.59-2.427h18.627l6.474-27.906L8.5 144.562z" transform="translate(-4.228 -103.766)" style="fill:#46bad1"/>
            <path data-name="사각형 3553" transform="translate(1.213 35.375)" style="fill:#fff" d="M0 0h37.144v7.681H0z"/>
            <path data-name="패스 7498" d="M38.357 136.812H1.213A1.213 1.213 0 0 1 0 135.6v-7.681a1.213 1.213 0 0 1 1.213-1.213h37.144a1.213 1.213 0 0 1 1.213 1.213v7.681a1.213 1.213 0 0 1-1.213 1.213m-35.93-2.427h34.717v-5.254H2.427z" transform="translate(0 -92.543)" style="fill:#46bad1"/>
            <path data-name="패스 7499" d="M188.443 53.278h-1.458a3.085 3.085 0 0 1-3.085-3.085V7.585a3.085 3.085 0 0 1 3.085-3.085h1.458a3.085 3.085 0 0 1 3.085 3.085v42.608a3.085 3.085 0 0 1-3.085 3.085" transform="translate(-134.318 -3.287)" style="fill:#fff"/>
            <path data-name="패스 7500" d="M185.157 51.2H183.7a4.3 4.3 0 0 1-4.3-4.3V4.3a4.3 4.3 0 0 1 4.3-4.3h1.458a4.3 4.3 0 0 1 4.3 4.3v42.606a4.3 4.3 0 0 1-4.3 4.3M183.7 2.427a1.874 1.874 0 0 0-1.872 1.873v42.606a1.874 1.874 0 0 0 1.872 1.872h1.458a1.874 1.874 0 0 0 1.872-1.872V4.3a1.874 1.874 0 0 0-1.872-1.872z" transform="translate(-131.032)" style="fill:#46bad1"/>
            <path data-name="사각형 3554" transform="translate(47.209 45.518)" style="fill:#fff" d="M0 0h12.18v8.102H0z"/>
            <path data-name="패스 7501" d="M183.993 174.855h-12.18a1.213 1.213 0 0 1-1.213-1.213v-8.1a1.213 1.213 0 0 1 1.213-1.213h12.18a1.213 1.213 0 0 1 1.213 1.213v8.1a1.213 1.213 0 0 1-1.213 1.213m-10.967-2.427h9.754v-5.675h-9.754z" transform="translate(-124.604 -120.022)" style="fill:#46bad1"/>
            <path data-name="패스 7502" d="M174.1 214.627h-28.19v-13.24a3.822 3.822 0 0 1 3.821-3.822h20.551a3.822 3.822 0 0 1 3.821 3.822z" transform="translate(-106.57 -144.299)" style="fill:#fff"/>
            <path data-name="패스 7503" d="M170.817 212.555h-28.194a1.213 1.213 0 0 1-1.213-1.213V198.1a5.04 5.04 0 0 1 5.035-5.035H167a5.04 5.04 0 0 1 5.035 5.035v13.24a1.213 1.213 0 0 1-1.213 1.213m-26.98-2.427H169.6V198.1a2.611 2.611 0 0 0-2.6-2.606h-20.555a2.611 2.611 0 0 0-2.608 2.608z" transform="translate(-103.284 -141.013)" style="fill:#46bad1"/>
            <path data-name="패스 7504" d="M172.38 223.309h-27.242a1.213 1.213 0 1 1 0-2.427h27.242a1.213 1.213 0 1 1 0 2.427" transform="translate(-105.121 -161.329)" style="fill:#46bad1"/>
            <path data-name="패스 7505" d="M164.223 232.779a1.213 1.213 0 0 1-1.213-1.213v-9.02a1.213 1.213 0 1 1 2.427 0v9.02a1.213 1.213 0 0 1-1.213 1.213" transform="translate(-119.06 -161.657)" style="fill:#46bad1"/>
            <path data-name="패스 7506" d="M184.992 232.779a1.213 1.213 0 0 1-1.213-1.213v-9.02a1.213 1.213 0 0 1 2.427 0v9.02a1.213 1.213 0 0 1-1.213 1.213" transform="translate(-134.229 -161.657)" style="fill:#46bad1"/>
            <path data-name="패스 7507" d="M205.986 232.779a1.213 1.213 0 0 1-1.213-1.213v-9.02a1.213 1.213 0 1 1 2.427 0v9.02a1.213 1.213 0 0 1-1.213 1.213" transform="translate(-149.563 -161.657)" style="fill:#46bad1"/>
            <path data-name="패스 7508" d="M227.317 232.779a1.213 1.213 0 0 1-1.213-1.213v-9.02a1.213 1.213 0 0 1 2.427 0v9.02a1.214 1.214 0 0 1-1.213 1.213" transform="translate(-165.143 -161.657)" style="fill:#46bad1"/>
            <path data-name="패스 7509" d="M117.626 58.171a8.15 8.15 0 0 0-4.864 4.864 8.154 8.154 0 0 0-4.875-4.868 8.088 8.088 0 0 0 4.87-4.874 8.16 8.16 0 0 0 4.869 4.878" transform="translate(-78.799 -38.924)" style="fill:#fff"/>
            <path data-name="패스 7510" d="M109.474 60.962a1.213 1.213 0 0 1-1.131-.775 6.961 6.961 0 0 0-4.182-4.175 1.213 1.213 0 0 1 .016-2.269 6.875 6.875 0 0 0 4.153-4.153 1.215 1.215 0 0 1 1.129-.8h.011a1.213 1.213 0 0 1 1.131.776 6.97 6.97 0 0 0 4.177 4.185 1.213 1.213 0 0 1 0 2.262 6.952 6.952 0 0 0-4.172 4.171 1.213 1.213 0 0 1-1.131.776zm-2.274-6.075a9.063 9.063 0 0 1 2.277 2.277 9.062 9.062 0 0 1 2.281-2.28 9.069 9.069 0 0 1-2.277-2.275 9.365 9.365 0 0 1-1.037 1.235 9.078 9.078 0 0 1-1.244 1.043" transform="translate(-75.511 -35.638)" style="fill:#46bad1"/>
            <path data-name="패스 7511" d="M257.413 160.552a9.846 9.846 0 0 0-5.876 5.877 9.851 9.851 0 0 0-5.89-5.881 9.772 9.772 0 0 0 5.884-5.889 9.858 9.858 0 0 0 5.883 5.894" transform="translate(-179.417 -112.96)" style="fill:#fff"/>
            <path data-name="패스 7512" d="M248.25 164.355a1.213 1.213 0 0 1-1.131-.774 8.653 8.653 0 0 0-5.2-5.189 1.213 1.213 0 0 1 .016-2.269 8.559 8.559 0 0 0 5.166-5.168 1.214 1.214 0 0 1 1.129-.8h.011a1.214 1.214 0 0 1 1.132.776 8.661 8.661 0 0 0 5.191 5.2 1.213 1.213 0 0 1 0 2.262 8.639 8.639 0 0 0-5.184 5.184 1.213 1.213 0 0 1-1.131.776zm-3.2-7.085a10.746 10.746 0 0 1 3.2 3.2 10.737 10.737 0 0 1 3.21-3.208 10.764 10.764 0 0 1-3.2-3.2 10.987 10.987 0 0 1-1.433 1.766 10.751 10.751 0 0 1-1.774 1.442" transform="translate(-176.13 -109.673)" style="fill:#46bad1"/>
        </g>
    </g>
</svg>
