<svg xmlns="http://www.w3.org/2000/svg" width="62.842" height="59.528" viewBox="0 0 62.842 59.528">
    <path data-name="패스 8058" d="M-5.713-158.7q-7.887 1.481-11.087 11.422a31.24 31.24 0 0 0-1.6 9.712 7.009 7.009 0 0 0 .057.971q.057.4.171 1.771h12.459v24.908H-30.05v-22.966q0-16.91 6.741-26.051a25.02 25.02 0 0 1 17.6-10.512zm38.5 0a12.811 12.811 0 0 0-9.541 7.084A28.976 28.976 0 0 0 20-137.681q0 .686.057 1.371a7.8 7.8 0 0 0 .286 1.485h12.449v24.908H8.341v-22.966a50.678 50.678 0 0 1 5.713-24.28q5.713-10.683 18.738-12.283z" transform="rotate(180 16.396 -54.958)" style="fill:#001a3d;opacity:.28"/>
</svg>
