<svg xmlns="http://www.w3.org/2000/svg" width="35.181" height="33.325" viewBox="0 0 35.181 33.325">
    <path data-name="패스 7956" d="M-3.2-88.847q-4.414.832-6.2 6.4a17.489 17.489 0 0 0-.9 5.437 3.924 3.924 0 0 0 .032.544q.032.224.1.991H-3.2v13.944h-13.623v-12.86q0-9.467 3.774-14.584A14.007 14.007 0 0 1-3.2-94.86zm21.556 0a7.172 7.172 0 0 0-5.341 3.966 16.222 16.222 0 0 0-1.823 7.8q0 .384.032.768a4.365 4.365 0 0 0 .16.832h6.972v13.944H4.669v-12.854a28.371 28.371 0 0 1 3.2-13.593q3.2-5.981 10.49-6.876z" transform="translate(16.823 94.859)" style="fill:#46bad1"/>
</svg>
