<?xml version="1.0" standalone="no"?>
<!DOCTYPE svg PUBLIC "-//W3C//DTD SVG 20010904//EN"
 "http://www.w3.org/TR/2001/REC-SVG-20010904/DTD/svg10.dtd">
<svg version="1.0" xmlns="http://www.w3.org/2000/svg"
 width="513.000000pt" height="513.000000pt" viewBox="0 0 513.000000 513.000000"
 preserveAspectRatio="xMidYMid meet">
<metadata>
Created by potrace 1.14, written by Peter Selinger 2001-2017
</metadata>
<g transform="translate(0.000000,513.000000) scale(0.100000,-0.100000)"
fill="#000000" stroke="none">
<path d="M2104 4489 c-2 -5 5 -6 16 -4 11 2 20 0 20 -4 0 -5 -11 -11 -25 -13
-14 -3 -25 -1 -25 5 0 6 -5 6 -12 -1 -7 -5 -25 -9 -40 -7 -16 2 -28 -1 -28 -6
0 -6 -4 -8 -9 -4 -5 3 -11 -2 -13 -11 -3 -15 -25 -21 -95 -26 -7 -1 -10 -5 -7
-10 3 -5 10 -6 15 -3 5 4 9 1 9 -4 0 -6 -18 -11 -40 -11 -41 0 -49 -7 -29 -27
7 -7 4 -10 -13 -9 -28 2 -47 -14 -41 -34 3 -10 -1 -8 -11 4 -16 20 -16 20 -16
-1 0 -13 -6 -20 -17 -19 -10 0 -18 -3 -18 -9 0 -5 6 -9 15 -7 8 1 4 -4 -9 -12
-14 -7 -32 -11 -40 -8 -12 4 -11 -1 4 -19 15 -18 16 -20 3 -10 -13 10 -18 10
-18 2 0 -7 -4 -9 -10 -6 -14 9 -12 -8 3 -25 6 -8 1 -6 -12 5 l-23 20 3 -24 c3
-14 -2 -26 -10 -29 -8 -2 -11 0 -8 5 3 5 0 10 -8 10 -7 0 -12 -8 -10 -19 4
-18 -27 -43 -39 -31 -3 3 -6 -1 -6 -10 0 -8 -9 -18 -19 -22 -12 -4 -18 -12
-14 -21 3 -9 -1 -14 -11 -14 -9 0 -21 -11 -26 -24 -5 -13 -14 -27 -21 -32 -8
-4 -10 -3 -5 4 4 7 3 12 -3 12 -5 0 -13 -9 -16 -20 -3 -11 -13 -20 -21 -20
-12 0 -19 -23 -16 -51 1 -3 -5 -6 -13 -6 -8 0 -12 4 -9 9 3 4 0 8 -7 8 -6 0
-9 -8 -7 -18 3 -12 -2 -24 -14 -31 -12 -7 -17 -8 -13 -2 3 6 1 11 -4 11 -6 0
-11 -8 -11 -19 0 -10 -9 -21 -20 -24 -11 -3 -20 -12 -20 -20 0 -8 -10 -17 -22
-20 -17 -5 -19 -9 -10 -20 9 -11 8 -14 -3 -15 -8 -1 -22 -3 -30 -4 -18 -2 -20
-18 -2 -18 7 -1 4 -7 -7 -15 -10 -8 -23 -12 -27 -9 -9 5 -13 -10 -10 -30 1 -5
-7 -6 -19 -3 -24 6 -26 -11 -3 -28 15 -11 14 -12 -10 -10 -15 2 -27 -1 -27 -6
0 -6 -4 -7 -10 -4 -5 3 -10 -3 -10 -14 0 -14 -6 -21 -20 -21 -11 0 -19 -3 -19
-7 4 -24 -3 -34 -19 -29 -13 4 -19 1 -19 -9 0 -10 6 -14 16 -10 12 4 11 1 -2
-9 -11 -8 -28 -13 -38 -11 -11 2 -18 1 -15 -3 7 -12 -13 -52 -26 -52 -9 0 -9
3 2 11 13 9 13 10 0 6 -8 -2 -15 -12 -15 -23 0 -10 -6 -20 -13 -20 -6 -1 -17
-2 -23 -3 -8 -1 -7 -6 1 -17 8 -8 9 -14 4 -13 -30 5 -44 -3 -44 -25 0 -19 -4
-24 -20 -21 -14 3 -20 -2 -20 -16 0 -12 -7 -19 -20 -19 -11 0 -20 -4 -20 -10
0 -5 8 -7 17 -3 10 3 16 4 13 2 -40 -33 -52 -42 -46 -32 5 9 2 11 -8 7 -9 -3
-16 -15 -16 -26 0 -12 -6 -18 -17 -16 -17 3 -19 -1 -22 -37 0 -8 -6 -15 -12
-15 -5 0 -8 4 -5 8 3 5 -1 9 -9 9 -7 0 -12 -8 -10 -18 2 -10 -4 -24 -13 -31
-11 -9 -14 -9 -8 -1 5 9 2 11 -8 7 -9 -3 -12 -12 -9 -21 5 -13 2 -15 -16 -10
-17 4 -21 2 -17 -9 3 -8 0 -14 -6 -14 -6 0 -8 -3 -5 -7 4 -3 -3 -11 -16 -18
-12 -6 -21 -17 -19 -23 1 -7 -7 -12 -18 -12 -11 0 -20 -7 -20 -15 0 -14 -12
-19 -32 -16 -7 1 -13 -31 -9 -52 1 -4 -8 -3 -19 3 -11 6 -20 7 -19 3 4 -26 -2
-45 -15 -40 -20 8 -28 -4 -15 -20 9 -10 7 -13 -7 -14 -11 -1 -22 -1 -27 0 -10
1 -9 -17 2 -23 5 -4 12 -1 14 4 3 6 4 5 3 -2 -2 -7 -9 -13 -17 -13 -8 0 -14
-9 -14 -20 0 -11 -8 -21 -18 -23 -15 -3 -21 -14 -18 -34 0 -5 -3 -9 -9 -9 -5
-1 -14 -3 -20 -4 -5 -1 -13 -3 -16 -4 -4 0 -1 -8 6 -16 10 -12 10 -15 -4 -15
-9 0 -16 -5 -16 -11 0 -5 4 -7 10 -4 5 3 10 1 10 -5 0 -6 -7 -10 -16 -8 -10 2
-18 -5 -20 -16 -1 -10 -12 -25 -23 -33 -14 -9 -21 -25 -21 -48 0 -28 -3 -33
-20 -30 -11 2 -19 1 -19 -3 5 -36 -3 -71 -18 -75 -17 -4 -17 -5 0 -6 9 0 17
-6 17 -12 0 -6 -9 -8 -21 -4 -17 6 -20 3 -19 -17 4 -44 0 -79 -8 -74 -4 2 -14
1 -20 -3 -10 -6 -9 -11 3 -21 13 -11 14 -10 9 5 -5 13 -4 16 5 11 15 -10 9
-31 -10 -31 -9 0 -14 -12 -15 -35 -4 -104 -4 -103 -17 -92 -10 9 -13 5 -12
-14 0 -14 7 -29 15 -35 13 -9 12 -10 -2 -5 -16 5 -23 -4 -19 -26 1 -11 1 -57
-2 -205 -1 -79 1 -143 5 -143 4 0 4 -11 -1 -23 -6 -14 -6 -30 0 -38 7 -12 9
-12 10 1 1 8 1 20 0 26 -1 7 6 14 14 18 11 4 14 2 9 -6 -11 -17 -15 -68 -6
-68 4 0 7 -18 6 -40 0 -22 3 -40 8 -40 5 0 4 -9 -2 -20 -9 -16 -8 -20 5 -20
10 0 13 5 9 12 -4 7 -3 8 4 4 19 -12 14 -36 -5 -29 -17 5 -17 5 -1 -8 11 -9
18 -31 20 -57 2 -36 5 -41 20 -36 12 3 18 0 18 -10 0 -10 -6 -13 -17 -10 -14
4 -14 2 2 -8 14 -9 20 -23 19 -45 -1 -18 3 -34 8 -34 4 -1 14 -2 21 -3 7 -1
11 -12 9 -30 -3 -18 0 -26 7 -22 6 4 11 2 11 -4 0 -6 4 -9 9 -6 4 3 8 -5 8
-17 1 -41 3 -48 13 -42 5 3 10 -1 10 -10 0 -10 -5 -13 -12 -9 -7 4 -8 3 -4 -4
4 -6 14 -8 23 -5 11 4 14 3 9 -5 -4 -7 -3 -12 3 -12 6 0 8 -6 5 -14 -7 -18 12
-30 22 -15 5 8 3 9 -6 4 -9 -6 -11 -4 -6 4 5 7 11 9 15 6 6 -7 8 -13 10 -46 0
-11 6 -17 11 -14 6 3 10 1 10 -5 0 -6 5 -8 12 -4 6 4 8 3 4 -4 -3 -6 1 -17 9
-25 18 -19 20 -31 3 -21 -8 4 -10 3 -5 -2 5 -5 14 -9 20 -9 7 0 12 -9 12 -19
0 -11 8 -20 20 -22 11 -2 21 -7 23 -13 2 -5 9 -9 15 -7 7 1 9 1 5 -1 -5 -3 -8
-10 -8 -16 0 -5 3 -7 7 -3 4 3 13 -6 20 -21 7 -16 11 -20 9 -11 -3 10 -1 20 4
23 6 4 11 1 11 -4 1 -6 2 -17 3 -23 0 -7 10 -13 21 -13 13 0 20 -6 19 -17 -1
-13 5 -18 22 -18 25 0 31 -9 14 -26 -6 -6 -2 -10 13 -12 41 -4 56 -8 64 -17 4
-4 3 -5 -3 -2 -7 4 -15 0 -18 -8 -3 -9 -1 -15 7 -14 38 5 57 -2 57 -21 0 -13
7 -20 20 -20 11 0 20 -4 20 -10 0 -5 5 -10 11 -10 5 0 8 4 5 8 -3 5 1 9 9 9 8
0 12 -3 10 -7 -9 -14 14 -31 44 -32 34 -1 48 -12 30 -24 -8 -4 -9 -3 -5 4 5 8
1 10 -10 5 -25 -9 3 -21 59 -24 25 -2 43 -7 40 -12 -3 -5 -14 -6 -26 -3 -14 3
-17 2 -9 -6 6 -6 39 -12 74 -13 35 -2 65 -4 68 -5 3 -1 9 -2 13 -1 5 1 6 -3 2
-9 -4 -7 -11 -8 -18 -1 -8 6 -17 4 -26 -6 -12 -13 -11 -14 7 -9 11 4 23 2 27
-4 4 -7 12 -7 26 0 10 6 19 7 19 2 0 -5 19 -9 43 -10 64 -2 77 -5 71 -14 -3
-4 -14 -4 -24 2 -10 6 -21 6 -24 2 -3 -5 0 -9 7 -10 7 0 22 -3 34 -6 13 -2 25
0 28 5 4 5 12 6 18 2 19 -12 457 -10 458 2 1 6 1 13 1 16 -1 3 5 6 13 6 7 0
12 -8 10 -19 -2 -10 0 -16 6 -13 5 4 9 12 9 18 0 11 42 16 137 19 17 0 19 3
10 13 -8 8 -16 10 -24 4 -7 -7 -14 -6 -19 2 -4 7 -3 9 4 5 6 -3 13 -2 16 3 3
5 15 7 26 4 13 -3 20 0 20 8 0 11 3 11 11 -1 8 -11 12 -12 16 -3 3 9 10 10 24
3 21 -12 26 -1 8 17 -14 14 7 13 31 -1 8 -5 12 -6 8 -1 -4 4 -3 14 3 22 9 10
15 10 25 2 11 -9 14 -8 14 0 0 7 5 9 13 5 8 -5 8 -2 -2 9 -12 15 -10 17 20 18
19 1 41 1 49 0 11 -1 12 0 3 6 -8 6 -9 14 -3 23 7 11 10 12 10 2 0 -10 3 -10
15 1 8 9 24 13 35 10 16 -4 19 -2 14 11 -3 9 -11 13 -18 9 -6 -3 -7 -2 -3 3 9
10 14 11 51 13 19 1 23 5 19 20 -4 16 1 20 28 23 30 3 56 28 29 28 -6 0 -8 -5
-4 -12 4 -7 3 -8 -5 -4 -19 12 -2 26 31 26 23 0 29 4 24 15 -3 10 3 17 19 21
16 4 25 13 25 26 0 16 5 19 25 16 20 -4 23 -2 15 12 -7 13 -5 20 6 24 9 3 20
4 25 0 5 -3 9 7 9 21 0 19 5 25 18 23 11 -2 18 4 20 20 2 14 10 22 23 22 13 0
19 7 19 21 0 16 4 19 21 14 19 -6 21 -4 16 13 -3 13 1 26 11 34 13 11 14 11 8
-1 -6 -9 -5 -12 5 -9 8 3 13 12 11 22 -2 12 5 16 25 16 16 0 23 3 16 8 -8 5
-8 12 3 26 8 11 14 15 14 8 0 -7 7 -9 17 -5 11 4 12 8 5 11 -21 7 5 41 27 35
16 -4 19 -1 14 16 -4 15 -1 21 12 21 9 0 19 9 22 20 3 11 14 20 25 20 10 0 17
4 14 9 -11 17 5 39 24 34 10 -3 21 0 24 6 4 6 2 11 -4 11 -6 0 -8 5 -5 10 3 6
15 10 25 10 12 0 17 5 14 14 -3 8 3 16 15 19 16 4 21 0 21 -13 0 -12 8 -20 23
-22 14 -2 21 -9 19 -20 -2 -12 3 -16 18 -13 18 3 25 -8 21 -37 0 -3 7 -5 17
-4 10 2 19 -5 22 -16 3 -11 8 -18 12 -16 10 4 37 -35 32 -44 -3 -4 2 -5 10 -2
9 4 18 -1 22 -10 3 -9 10 -16 16 -16 5 0 6 5 2 12 -5 7 -3 8 6 3 10 -6 9 -11
-6 -23 -17 -13 -17 -14 -1 -9 22 8 67 -12 67 -30 0 -11 27 -18 53 -14 4 1 12
-10 17 -23 7 -19 14 -23 39 -20 32 4 50 -10 30 -22 -8 -5 -9 -3 -4 7 7 11 6
12 -7 2 -8 -7 -19 -9 -23 -5 -5 4 -6 2 -2 -3 3 -6 31 -11 61 -10 34 0 56 -4
56 -11 0 -19 50 -36 66 -23 10 9 14 9 14 0 0 -7 10 -10 25 -7 14 3 25 0 25 -6
0 -6 6 -6 15 2 11 9 15 9 15 1 0 -7 5 -9 12 -5 17 11 48 12 48 3 0 -9 20 -7
37 4 6 4 14 3 18 -2 3 -5 15 -8 27 -6 12 3 26 -1 30 -8 6 -9 8 -8 8 3 0 9 9
16 19 16 13 0 17 -4 11 -11 -6 -7 -2 -11 10 -11 10 0 16 4 14 8 -6 9 -3 9 38
12 14 0 30 4 33 8 4 4 16 3 27 -3 16 -9 19 -7 16 8 -2 15 4 18 40 18 23 0 42
2 42 5 0 3 15 5 33 5 22 -1 34 3 34 12 0 8 -8 11 -21 8 -12 -3 -15 -2 -8 1 6
3 10 9 8 13 -3 4 11 5 30 3 32 -4 40 3 35 31 0 4 4 7 9 7 6 0 10 -6 8 -13 -2
-6 2 -12 7 -12 6 0 9 6 9 13 -1 6 9 12 22 12 17 0 24 6 24 19 0 10 6 19 13 18
31 -1 45 4 51 19 5 14 4 15 -9 4 -10 -8 -15 -9 -15 -1 0 6 3 11 8 12 4 0 16 3
27 5 11 3 25 6 32 6 6 1 9 7 6 15 -4 9 -9 10 -18 3 -8 -7 -12 -6 -12 4 0 7 7
13 16 13 43 0 51 4 51 23 0 13 7 20 19 20 17 0 36 32 32 54 -1 5 6 3 15 -5 16
-13 17 -12 12 8 -5 17 -1 23 16 25 11 2 19 7 18 12 -5 13 26 28 40 20 7 -5 9
0 6 13 -3 12 -2 27 3 34 5 8 9 9 9 3 0 -6 7 -11 15 -11 12 0 12 3 2 16 -9 12
-9 13 1 7 7 -4 12 -2 12 8 0 8 5 18 12 22 7 4 8 3 4 -4 -4 -7 -2 -12 3 -12 6
0 11 9 11 20 0 13 7 20 20 20 19 0 27 22 20 55 -1 6 4 4 11 -2 20 -20 26 -16
34 20 4 17 9 26 12 20 8 -20 21 -15 25 9 2 16 9 22 21 20 16 -3 22 13 19 58 0
12 3 11 13 -3 15 -20 24 -11 27 26 1 14 6 23 10 21 5 -3 6 -10 3 -15 -4 -5 -2
-9 3 -9 6 0 12 7 16 15 3 8 1 15 -5 15 -6 0 -3 7 5 16 9 8 13 20 10 26 -4 6 1
8 15 3 17 -5 21 -2 22 14 3 40 5 46 17 44 7 -2 12 0 13 5 0 4 3 16 5 27 3 11
6 25 6 32 1 7 5 10 10 7 5 -3 6 -10 3 -15 -4 -5 -1 -9 6 -9 6 0 9 8 6 20 -3
11 -1 20 5 20 5 0 6 9 3 20 -6 18 2 24 26 22 10 -1 7 32 -5 47 -8 11 -8 13 0
8 17 -10 20 7 19 101 0 45 1 78 3 72 2 -5 7 -8 11 -6 10 7 7 -26 -4 -43 -5
-10 -4 -12 3 -7 15 9 12 -35 -3 -47 -6 -5 -4 -7 4 -5 19 5 25 139 7 150 -7 5
-7 8 3 8 11 0 10 5 -4 20 -15 16 -16 23 -6 33 10 9 11 9 6 -4 -4 -10 -2 -20 3
-23 5 -3 9 29 8 75 -1 65 -4 83 -19 94 -11 8 -17 25 -17 46 1 42 -9 111 -17
119 -3 3 -3 -7 -1 -23 3 -15 2 -29 -2 -32 -7 -4 -8 -1 -14 50 -2 17 -4 30 -6
30 -1 0 -3 10 -4 22 -2 13 -6 26 -11 30 -4 5 -5 0 -2 -10 5 -13 3 -17 -5 -14
-7 2 -12 14 -10 25 3 20 -7 27 -31 23 -5 -1 -6 3 -2 9 3 6 10 8 15 5 5 -3 11
-1 15 5 3 5 -3 10 -14 10 -14 0 -21 6 -21 20 0 11 -6 20 -12 20 -8 0 -9 3 -3
8 12 9 18 32 8 31 -21 -3 -33 3 -33 17 0 9 -9 18 -20 21 -13 4 -20 14 -20 30
0 20 -3 23 -13 14 -16 -13 -27 -5 -27 21 0 11 -7 18 -20 18 -11 0 -19 3 -19 8
4 25 -2 33 -22 27 -15 -5 -19 -4 -15 4 4 6 3 11 -3 11 -6 0 -8 6 -5 14 4 11 0
13 -15 9 -13 -3 -21 -1 -21 7 0 7 -7 10 -15 7 -18 -7 -30 9 -14 19 8 5 9 3 4
-6 -5 -9 -4 -11 4 -6 19 12 3 25 -25 20 -20 -4 -24 -1 -22 13 2 14 -4 18 -29
17 -18 0 -33 5 -33 11 0 5 -5 3 -10 -5 -8 -13 -10 -12 -11 5 -1 11 -1 22 -1
25 0 3 -8 6 -18 6 -10 0 -16 -5 -13 -11 4 -5 -4 -1 -17 10 -13 11 -20 14 -16
8 5 -9 2 -11 -9 -7 -9 4 -14 13 -11 21 3 8 2 11 -3 8 -5 -3 -12 -2 -14 2 -3 5
-31 8 -64 8 -57 0 -86 11 -75 29 3 5 0 6 -7 2 -9 -6 -9 -12 1 -24 11 -15 11
-15 -4 -4 -11 9 -18 10 -23 2 -4 -7 -11 -8 -18 -2 -7 5 -22 8 -35 7 -13 -1
-25 1 -27 5 -3 4 6 6 18 6 12 -1 28 3 36 8 11 8 13 8 8 0 -3 -6 0 -11 8 -11
18 0 20 17 3 18 -56 5 -124 2 -130 -6 -5 -6 -11 -6 -16 2 -5 8 -13 9 -22 3 -8
-5 -19 -5 -25 0 -6 5 -17 5 -25 0 -11 -7 -11 -10 -2 -11 6 -1 17 -2 22 -3 6 0
10 -4 10 -8 0 -5 0 -11 0 -14 0 -4 -6 -1 -14 5 -8 7 -17 8 -20 3 -3 -5 -17 -9
-31 -9 -13 0 -22 4 -19 9 4 7 0 7 -12 1 -11 -6 -34 -9 -53 -8 -24 1 -35 -4
-38 -16 -3 -10 -12 -20 -20 -23 -8 -3 -11 -1 -8 4 3 6 2 10 -4 10 -5 0 -13 -5
-16 -10 -4 -6 -11 -8 -16 -5 -5 4 -9 2 -9 -3 0 -6 -7 -13 -16 -16 -8 -3 -12
-2 -9 3 3 5 1 12 -4 15 -5 4 -11 -4 -13 -16 -2 -15 -9 -22 -19 -20 -9 1 -21
-8 -28 -20 -6 -13 -9 -15 -7 -6 3 10 2 19 -2 22 -9 5 -32 -20 -25 -28 6 -5
-39 -11 -60 -7 -5 1 -6 -3 -2 -9 3 -6 11 -8 16 -5 5 4 9 2 9 -4 0 -6 -16 -13
-37 -17 -34 -6 -35 -8 -17 -21 13 -10 14 -14 4 -12 -8 1 -28 -3 -45 -10 -23
-10 -26 -14 -15 -21 12 -8 12 -10 -3 -10 -12 0 -16 -4 -11 -12 5 -8 0 -7 -11
2 -17 14 -18 13 -12 -3 4 -11 1 -20 -9 -24 -9 -3 -13 -12 -10 -22 4 -11 2 -10
-9 3 -14 19 -15 19 -15 -6 0 -15 -5 -30 -12 -34 -7 -4 -8 -3 -4 4 4 7 1 12 -8
12 -9 0 -13 -6 -10 -14 3 -9 -3 -17 -16 -21 -18 -6 -41 -41 -44 -67 -1 -3 -4
-10 -8 -14 -4 -3 -6 3 -3 15 2 11 0 21 -6 21 -5 0 -9 -8 -9 -19 0 -11 -9 -21
-22 -25 -22 -6 -22 -7 -5 -20 18 -14 16 -15 -15 -18 -21 -2 -32 -8 -30 -16 1
-8 -7 -16 -18 -19 -11 -3 -20 -14 -20 -25 0 -12 -6 -18 -17 -16 -11 2 -19 -5
-21 -17 -2 -11 -9 -24 -14 -30 -7 -7 -9 -6 -5 1 3 6 0 11 -8 11 -8 0 -14 -3
-13 -6 3 -27 -4 -41 -18 -39 -10 2 -19 -3 -22 -11 -3 -8 0 -11 6 -7 6 3 14 1
18 -5 4 -7 3 -9 -4 -5 -6 3 -13 2 -17 -4 -4 -6 -10 -8 -14 -6 -4 3 -13 0 -21
-5 -13 -8 -13 -10 0 -19 13 -8 12 -10 -4 -10 -13 0 -16 -5 -12 -17 5 -15 4
-15 -9 1 -8 11 -16 17 -16 13 -1 -4 -2 -13 -3 -19 -1 -7 -11 -13 -22 -12 -11
0 -21 -5 -21 -12 0 -7 5 -10 11 -7 6 3 6 0 -1 -7 -13 -14 -111 -21 -119 -9 -2
4 -13 5 -24 2 -16 -4 -19 -2 -14 13 5 15 4 16 -4 5 -11 -16 -35 -23 -67 -21
-11 1 -27 1 -35 0 -8 0 -32 -1 -52 -2 -29 -1 -38 -6 -40 -22 -2 -14 -9 -20
-20 -18 -16 3 -23 -8 -19 -30 2 -15 -18 -8 -29 10 -10 16 -10 15 -8 -3 2 -11
-3 -20 -9 -21 -7 -1 -18 -2 -24 -3 -5 0 -8 -5 -4 -10 3 -6 -5 -19 -17 -31 -17
-16 -18 -19 -5 -15 9 4 17 3 17 -3 0 -5 -10 -12 -21 -15 -15 -4 -20 -11 -16
-21 4 -9 2 -16 -2 -16 -5 0 -7 -9 -4 -19 3 -13 -1 -20 -13 -23 -15 -2 -18 -14
-19 -71 0 -37 3 -67 7 -67 4 0 8 -5 8 -11 0 -5 -4 -7 -10 -4 -5 3 -10 1 -10
-4 0 -6 6 -11 13 -11 8 0 7 -4 -3 -11 -12 -9 -11 -10 6 -6 18 4 21 -1 23 -40
2 -37 -1 -44 -15 -41 -9 2 -19 -4 -21 -12 -4 -13 -3 -13 6 0 8 12 10 11 9 -6
-1 -11 -8 -21 -15 -22 -7 -1 -20 -3 -28 -4 -18 -2 -20 -14 -2 -21 10 -4 10 -6
0 -6 -7 -1 -13 -9 -13 -18 0 -16 -2 -16 -11 -3 -8 11 -12 12 -16 3 -2 -7 -13
-13 -24 -13 -12 0 -19 -7 -19 -20 0 -18 -11 -25 -34 -21 -5 1 -6 -7 -3 -19 4
-16 0 -20 -19 -20 -17 0 -24 -6 -24 -19 0 -10 -9 -21 -20 -24 -11 -3 -20 -10
-20 -17 0 -6 6 -8 13 -4 8 5 9 4 2 -4 -5 -5 -19 -12 -30 -14 -11 -2 -20 -8
-20 -13 -1 -23 -17 -36 -30 -25 -11 9 -13 7 -9 -14 3 -21 0 -26 -15 -26 -12 0
-21 -9 -25 -24 -4 -18 -11 -23 -25 -19 -14 3 -19 0 -18 -14 1 -11 -4 -18 -15
-17 -10 1 -16 -2 -13 -6 3 -5 1 -11 -5 -15 -6 -4 -8 -10 -6 -14 3 -4 1 -13 -5
-21 -7 -12 -9 -12 -9 3 0 10 -5 15 -10 12 -6 -4 -9 -14 -8 -23 2 -9 -3 -16 -9
-14 -7 1 -13 -4 -13 -10 0 -9 -4 -8 -10 2 -8 12 -10 11 -10 -7 0 -14 -6 -23
-15 -23 -9 0 -19 -8 -23 -17 -7 -19 -23 -26 -60 -26 -12 -1 -21 -6 -19 -11 2
-6 13 -9 23 -8 10 2 16 1 12 -3 -7 -7 -33 -13 -64 -14 -14 -1 -21 -7 -20 -17
1 -19 -15 -24 -106 -27 -65 -2 -79 -9 -38 -20 11 -3 18 -1 14 4 -8 14 12 10
25 -5 9 -10 3 -13 -29 -12 -22 0 -40 4 -40 7 0 4 -7 10 -16 13 -14 5 -15 4 -5
-8 10 -12 4 -15 -36 -18 -70 -5 -115 1 -107 14 5 7 2 8 -7 2 -19 -12 -79 -13
-79 -1 0 5 7 7 15 3 22 -8 18 2 -6 15 -12 6 -19 7 -16 2 3 -5 2 -15 -3 -23 -8
-13 -12 -12 -27 4 -17 19 -17 19 1 5 17 -12 19 -12 14 1 -4 14 -30 20 -87 20
-13 0 -30 5 -37 11 -7 6 -19 7 -26 3 -10 -5 -10 -4 -1 6 10 11 15 11 28 0 13
-11 14 -10 9 4 -4 11 -18 16 -45 16 -25 0 -38 4 -37 12 2 7 -7 17 -19 22 -12
6 -24 19 -27 29 -2 11 -9 16 -15 13 -5 -4 -16 3 -24 15 -8 11 -18 16 -21 11
-3 -6 -1 -13 4 -15 6 -3 5 -4 -2 -3 -7 2 -13 9 -13 17 0 8 -10 15 -21 17 -17
2 -21 8 -16 24 4 17 2 20 -11 15 -11 -4 -21 3 -31 25 -9 17 -13 34 -10 39 3 5
-4 9 -14 9 -15 0 -19 5 -15 20 5 18 -3 24 -28 22 -3 0 -6 16 -7 36 -3 35 -18
56 -34 46 -4 -3 -8 0 -8 5 0 6 6 11 14 11 8 0 18 5 22 11 4 8 0 9 -15 4 -19
-6 -21 -2 -22 32 -1 21 -1 41 0 46 0 4 -3 7 -9 7 -5 0 -10 5 -10 11 0 5 4 8 8
5 5 -3 9 2 9 10 0 10 -4 11 -11 4 -16 -16 -21 -12 -23 24 -2 30 1 34 19 31 11
-3 17 -1 14 3 -4 4 -13 7 -19 7 -8 0 -13 25 -15 68 -2 52 0 67 9 61 8 -5 9 -3
3 7 -14 23 -14 66 1 66 10 0 11 -5 4 -18 -7 -14 -6 -17 4 -13 7 2 14 15 14 27
1 12 2 43 3 70 2 45 13 61 23 35 3 -8 6 -6 6 5 1 9 1 20 2 25 0 4 10 18 22 32
16 17 17 20 3 10 -17 -13 -18 -12 -14 5 2 12 10 19 20 17 12 -2 16 3 13 18 -4
19 6 25 30 20 5 -1 7 2 3 6 -4 4 -3 13 3 21 6 7 9 22 6 33 -4 16 -1 19 18 16
18 -3 22 0 21 17 -1 14 6 24 19 28 11 3 19 11 17 17 -1 7 7 12 18 12 11 0 20
6 20 14 0 8 11 17 24 20 18 4 23 11 19 25 -3 10 1 22 8 26 7 5 10 4 6 -2 -4
-6 -1 -13 6 -16 8 -3 14 1 15 9 1 8 3 20 4 28 1 8 9 13 21 10 16 -3 18 1 14
22 -4 20 -1 23 14 19 11 -4 20 -2 20 4 1 6 2 17 3 24 1 6 9 11 19 9 11 -2 17
4 17 17 0 14 9 22 33 27 17 4 26 9 20 11 -7 3 -13 9 -13 15 0 6 7 7 15 4 11
-4 19 3 25 19 6 15 17 25 28 25 14 0 19 7 18 23 -1 17 4 21 21 19 17 -2 20 1
16 18 -4 15 -1 20 16 20 14 0 21 6 21 20 0 11 3 19 8 19 19 -3 30 2 36 17 3 8
2 12 -4 9 -6 -3 -7 1 -4 9 5 12 10 13 26 5 15 -8 19 -7 17 3 -3 29 2 40 16 34
8 -3 15 -1 15 5 0 6 5 7 11 3 8 -4 7 0 -1 15 -10 20 -9 21 13 16 22 -6 24 -4
20 22 -5 27 -5 28 12 8 9 -11 14 -15 11 -9 -6 13 33 68 42 60 2 -3 -1 -14 -9
-23 -13 -16 -12 -17 4 -4 9 7 17 24 17 37 0 13 3 23 8 23 25 -4 41 3 36 15 -3
8 -1 17 5 21 6 3 11 1 11 -5 0 -6 5 -8 10 -5 6 4 8 10 5 15 -10 16 7 39 26 35
10 -2 21 0 24 6 4 5 2 9 -4 9 -6 0 -8 6 -5 14 3 8 12 12 20 9 12 -5 19 7 15
30 0 4 10 7 23 7 20 0 23 4 18 22 -4 18 -2 20 16 16 18 -5 22 -2 22 18 0 17 6
24 20 24 13 0 20 7 20 20 0 14 6 20 18 18 11 -2 18 5 20 20 3 18 8 22 24 16
17 -5 20 -3 16 13 -3 13 2 24 14 32 16 10 18 10 13 0 -5 -8 -4 -10 3 -5 7 4
12 16 12 27 0 10 6 19 14 19 8 0 17 9 21 19 3 11 12 18 20 15 7 -3 16 0 21 7
5 8 3 10 -7 4 -8 -5 -5 1 5 14 15 16 21 18 28 9 5 -9 8 -6 8 8 0 12 11 29 25
38 13 9 22 22 19 29 -3 9 7 12 34 11 26 0 39 4 39 12 0 10 -4 11 -13 3 -8 -7
-14 -7 -19 1 -8 13 -13 12 72 15 63 3 73 1 78 -16 4 -10 9 -18 13 -18 26 4 62
-3 62 -12 0 -6 -9 -8 -22 -4 -13 3 -3 -5 22 -19 25 -13 44 -27 43 -30 -7 -16
-2 -117 5 -112 5 3 9 -1 9 -9 0 -8 -4 -12 -9 -9 -4 3 -8 -7 -8 -21 0 -22 -3
-25 -22 -21 -13 3 -18 3 -11 0 8 -4 8 -12 -3 -32 -9 -18 -10 -28 -3 -33 7 -4
5 -9 -5 -12 -11 -4 -16 -1 -17 11 0 10 -7 4 -15 -15 -8 -18 -21 -33 -29 -33
-8 0 -14 -3 -14 -7 4 -23 -3 -33 -22 -33 -15 0 -19 -5 -15 -15 3 -10 -3 -17
-20 -21 -15 -4 -23 -12 -20 -19 3 -8 -2 -16 -10 -19 -9 -3 -14 1 -15 12 0 14
-2 14 -8 -3 -5 -11 -6 -24 -4 -28 3 -5 -4 -11 -15 -14 -11 -3 -23 -16 -26 -29
-5 -17 -11 -21 -23 -17 -13 5 -15 2 -10 -11 4 -10 3 -15 -3 -11 -6 3 -10 1
-10 -4 0 -6 -5 -11 -11 -11 -5 0 -7 6 -4 13 4 6 -1 3 -9 -7 -12 -15 -13 -22
-4 -27 7 -4 2 -9 -13 -11 -13 -1 -25 -9 -25 -15 -4 -37 -4 -38 -14 -23 -11 17
-19 11 -25 -20 -5 -28 -15 -39 -15 -17 0 9 -4 19 -10 22 -5 3 -7 0 -4 -9 3 -9
-5 -20 -23 -31 -24 -13 -25 -15 -4 -9 16 4 21 3 17 -5 -4 -6 -13 -11 -19 -11
-7 0 -17 -10 -22 -22 -6 -13 -17 -22 -27 -20 -12 2 -15 -3 -11 -19 5 -17 3
-21 -8 -17 -8 3 -23 0 -34 -8 -10 -8 -13 -14 -7 -14 7 0 12 -4 12 -10 0 -5 -3
-9 -7 -9 -23 4 -33 -3 -33 -22 0 -14 -5 -19 -14 -16 -8 3 -20 -1 -26 -9 -10
-11 -10 -14 0 -14 14 0 4 -14 -11 -16 -5 -1 -13 -2 -18 -3 -5 0 -11 -10 -14
-22 -3 -12 -10 -18 -15 -15 -12 7 -54 -23 -47 -35 4 -5 2 -9 -4 -9 -5 0 -13
-9 -16 -20 -4 -11 -11 -18 -16 -15 -5 4 -9 -3 -9 -15 0 -12 -5 -18 -10 -15 -6
4 -8 11 -5 16 4 5 -2 6 -11 2 -11 -4 -13 -8 -6 -11 7 -2 12 -8 12 -13 0 -6 -4
-8 -9 -5 -5 3 -12 -6 -15 -20 -5 -17 -12 -24 -21 -20 -15 5 -19 -4 -16 -34 1
-12 -2 -11 -13 3 -13 16 -14 16 -21 -5 -4 -13 -6 -27 -6 -32 1 -5 -5 -4 -13 4
-9 7 -17 9 -18 4 0 -5 -2 -13 -3 -19 -2 -5 -3 -17 -4 -25 -1 -13 -3 -13 -10 0
-6 8 -7 18 -4 24 3 5 1 6 -6 2 -6 -4 -9 -12 -6 -17 4 -5 2 -9 -4 -9 -5 0 -8
-9 -6 -19 2 -11 -3 -22 -12 -25 -11 -5 -14 -2 -9 10 5 14 4 15 -9 4 -8 -7 -13
-16 -10 -20 6 -10 -20 -32 -28 -23 -4 3 -7 -6 -7 -20 0 -22 -5 -27 -24 -27
-20 0 -23 -4 -18 -22 4 -16 2 -20 -10 -16 -18 8 -53 -28 -35 -36 7 -2 2 -5
-10 -5 -16 -1 -23 -7 -23 -21 0 -13 -7 -20 -20 -20 -19 0 -26 -19 -21 -55 1
-5 -5 -2 -13 8 -13 17 -14 16 -19 -3 -3 -13 -1 -18 5 -13 7 4 8 1 2 -8 -10
-17 -15 -38 -15 -61 0 -10 -5 -18 -10 -18 -6 0 -8 4 -4 9 3 5 1 12 -4 15 -5 4
-12 2 -15 -3 -4 -5 -2 -13 4 -16 8 -5 7 -11 -1 -21 -6 -8 -9 -17 -6 -21 4 -3
9 2 13 11 3 9 11 16 17 16 6 0 1 -11 -11 -23 l-22 -24 22 -11 c19 -9 19 -11 4
-9 -11 1 -20 -5 -21 -16 -2 -9 0 -17 5 -17 4 0 6 -15 3 -34 -2 -19 1 -37 6
-40 5 -3 7 2 4 13 -3 10 -1 21 4 24 5 3 10 -4 11 -16 5 -50 10 -62 23 -62 8 0
13 -8 13 -18 -1 -9 3 -17 8 -17 6 0 7 -7 4 -15 -3 -9 1 -18 9 -20 43 -14 50
-17 38 -22 -14 -5 -18 -24 -5 -22 23 4 52 -2 52 -12 0 -5 -4 -7 -10 -4 -6 4
-7 -1 -3 -11 5 -14 8 -13 20 7 l14 24 -7 -24 c-6 -21 -4 -23 20 -19 25 5 33
-5 26 -37 -1 -5 4 -4 11 2 14 14 33 18 25 5 -7 -12 58 -9 66 3 5 6 8 4 8 -5 0
-13 1 -13 10 0 6 10 10 11 10 3 0 -7 5 -13 11 -13 5 0 7 4 4 10 -3 5 -1 10 4
10 6 0 11 -6 11 -12 0 -9 4 -8 10 2 5 8 10 10 10 4 0 -12 33 -12 40 1 3 4 -3
9 -13 11 -39 5 -26 12 19 10 27 -1 52 3 59 11 10 9 14 10 17 1 3 -8 9 -8 24 1
13 9 14 11 2 7 -9 -2 -18 1 -21 8 -3 7 5 13 19 14 46 3 54 5 54 14 0 5 -10 7
-22 4 -13 -3 -17 -3 -10 0 6 3 10 10 7 14 -3 5 3 9 12 9 38 1 52 5 47 12 -2 4
3 14 11 22 18 19 20 31 3 21 -9 -6 -9 -3 0 9 8 9 19 15 25 14 7 -1 11 4 9 12
-3 12 -1 12 14 0 12 -9 15 -9 10 -2 -7 13 10 18 42 14 10 -2 12 4 7 18 -4 12
-2 21 4 21 6 0 10 3 10 8 -3 19 2 33 11 27 5 -3 7 -13 4 -23 -5 -14 -4 -14 4
-2 6 8 8 18 6 22 -3 4 0 8 6 8 6 0 9 4 5 9 -8 13 32 34 48 25 6 -4 9 -4 5 1
-4 4 0 14 8 22 8 8 12 19 9 24 -9 13 9 11 22 -2 9 -9 11 -8 9 4 -1 9 -6 20
-11 24 -4 4 -5 2 0 -6 5 -10 4 -12 -4 -7 -16 10 -4 26 14 19 8 -3 15 0 15 6 0
6 6 10 13 9 7 -2 11 5 9 16 -3 15 1 18 17 13 17 -4 22 0 27 21 12 56 14 59 30
37 15 -20 16 -20 12 0 -2 11 2 20 9 20 7 0 18 7 25 15 11 12 11 12 -3 2 -14
-10 -18 -10 -22 2 -4 10 2 16 16 18 12 2 22 10 22 18 0 8 7 15 15 15 8 1 14 7
12 15 -3 12 -1 13 9 2 16 -15 29 -16 29 -1 0 5 -4 8 -9 5 -5 -3 -11 0 -14 8
-3 7 0 13 6 12 7 0 14 4 15 9 8 22 24 34 39 28 12 -5 14 -3 8 6 -6 10 -2 11
16 7 21 -6 21 -5 6 4 -20 13 -14 32 8 23 11 -4 14 1 13 18 -2 18 2 24 17 24
12 0 19 6 17 14 -3 12 0 12 12 2 11 -9 16 -9 22 0 4 7 3 9 -3 6 -6 -4 -13 0
-16 8 -4 9 -1 12 9 8 7 -3 14 0 14 7 0 7 7 10 18 6 14 -5 13 -3 -3 10 -14 11
-15 15 -5 14 31 -4 39 0 33 18 -5 14 -3 15 8 5 7 -7 18 -13 24 -13 5 0 3 4 -5
10 -12 8 -12 10 2 15 10 4 15 13 12 23 -4 13 -2 12 12 -3 14 -17 16 -17 11 -2
-4 9 -2 17 3 17 6 0 10 9 10 21 0 12 4 17 11 14 6 -4 8 -14 4 -22 -5 -13 -3
-14 10 -3 13 10 13 15 3 21 -9 6 -8 10 5 15 9 3 17 10 17 16 0 5 -5 6 -12 2
-7 -4 -8 -3 -4 4 4 6 13 9 21 6 8 -4 12 -11 8 -17 -3 -6 -1 -7 5 -3 6 3 9 16
7 27 -3 14 0 19 9 16 7 -3 18 4 24 14 7 10 19 19 27 19 8 0 15 5 15 10 0 12
-22 9 -33 -5 -5 -6 -7 -4 -4 5 2 8 9 14 15 13 19 -4 111 86 107 106 -2 10 2
18 8 19 27 2 47 9 54 17 4 4 3 5 -3 2 -7 -4 -14 0 -17 7 -4 10 0 13 14 11 17
-3 24 8 21 36 -1 3 5 6 13 6 10 0 11 -5 4 -19 -6 -11 -6 -18 0 -18 5 0 12 11
15 25 4 17 11 23 24 19 9 -3 6 1 -7 9 -20 12 -21 15 -7 20 10 4 15 3 11 -3 -3
-6 -2 -10 3 -10 5 0 12 10 15 22 4 15 10 19 19 12 8 -5 5 -1 -6 9 -15 13 -16
18 -6 17 30 -5 39 0 35 21 -3 16 0 19 15 14 18 -6 20 -1 20 34 0 23 5 41 11
41 5 0 8 -4 5 -9 -3 -5 2 -15 12 -22 15 -13 16 -12 4 3 -9 11 -10 18 -2 23 6
4 10 12 9 18 -3 24 1 37 12 37 5 0 7 -5 3 -12 -5 -7 -3 -8 6 -3 10 6 10 11 -3
20 -23 17 -21 28 2 16 15 -9 18 -7 18 12 1 67 4 87 14 87 5 0 8 -4 5 -8 -3 -5
1 -9 8 -9 14 0 15 34 3 55 -5 6 -4 12 2 12 11 0 9 19 -3 39 -6 9 -5 12 2 8 6
-5 11 13 14 49 1 31 0 58 -4 60 -13 8 4 35 18 30 15 -6 29 10 15 18 -5 3 -8
22 -6 41 1 20 -2 38 -7 41 -4 3 -6 10 -3 15 3 5 -1 6 -9 3 -9 -3 -16 -1 -16 5
0 6 5 11 11 11 6 0 7 5 2 13 -4 6 -8 21 -8 32 0 11 -5 26 -9 34 -6 9 -5 12 2
7 7 -4 10 1 9 14 -1 11 -6 20 -12 20 -5 0 -3 5 5 10 11 7 11 10 2 10 -7 0 -10
5 -6 12 4 7 3 8 -5 4 -6 -4 -9 -11 -6 -16 3 -5 0 -12 -6 -15 -6 -5 -10 0 -9
11 4 38 0 75 -8 70 -5 -3 -9 1 -9 9 0 8 4 12 9 9 4 -3 8 0 8 5 0 6 -8 11 -18
11 -18 0 -20 5 -24 55 -1 17 -8 25 -20 25 -23 0 -23 17 0 23 16 4 16 5 0 6
-12 1 -18 9 -18 25 0 16 -5 23 -17 22 -10 0 -18 5 -19 12 -1 6 -2 16 -3 22 0
5 -4 9 -8 9 -25 -4 -35 3 -30 21 4 15 0 20 -13 20 -10 0 -22 9 -25 21 -4 12
-12 18 -21 15 -8 -3 -14 1 -14 9 0 9 6 12 18 9 14 -5 15 -4 2 5 -8 6 -22 11
-31 11 -21 0 -48 30 -28 30 9 1 8 4 -4 11 -9 6 -14 15 -11 21 4 7 2 8 -5 4 -6
-4 -9 -12 -6 -17 4 -5 0 -9 -8 -9 -10 0 -13 7 -10 20 4 16 0 20 -21 21 -46 2
-49 4 -53 19 -3 9 -1 11 4 5 12 -15 30 -16 30 -2 0 7 -10 13 -21 14 -12 1 -30
4 -41 7 -11 2 -23 5 -27 5 -5 1 -8 6 -8 12 0 5 6 7 13 3 7 -4 8 -3 4 2 -4 4
-22 9 -40 11 -54 3 -72 10 -70 24 2 10 -7 15 -30 16 -70 2 -88 7 -82 22 4 9
-6 5 -22 -9 -15 -14 -22 -18 -15 -10 6 8 12 17 12 20 0 10 -183 6 -199 -4 -10
-6 -12 -6 -7 2 5 8 -8 11 -39 10 -26 0 -45 -5 -45 -12 0 -8 -3 -8 -8 0 -8 12
-61 14 -68 3z m-544 -399 c0 -5 -2 -10 -4 -10 -3 0 -8 5 -11 10 -3 6 -1 10 4
10 6 0 11 -4 11 -10z m-115 -120 c3 -6 -1 -7 -9 -4 -18 7 -21 14 -7 14 6 0 13
-4 16 -10z m960 -180 c3 -5 1 -10 -4 -10 -6 0 -11 5 -11 10 0 6 2 10 4 10 3 0
8 -4 11 -10z m800 -110 c3 -5 2 -10 -4 -10 -5 0 -13 5 -16 10 -3 6 -2 10 4 10
5 0 13 -4 16 -10z m0 -42 c-1 -13 2 -29 8 -36 7 -9 6 -11 -5 -7 -15 6 -23 65
-9 65 4 0 7 -10 6 -22z m-720 -138 c-3 -5 -11 -10 -16 -10 -6 0 -7 5 -4 10 3
6 11 10 16 10 6 0 7 -4 4 -10z m692 -134 c0 -8 -6 -12 -15 -9 -11 5 -11 7 0
14 7 5 13 9 14 9 0 0 1 -6 1 -14z m888 -56 c3 -5 1 -10 -4 -10 -6 0 -11 5 -11
10 0 6 2 10 4 10 3 0 8 -4 11 -10z m65 6 c0 -3 -4 -8 -10 -11 -5 -3 -10 -1
-10 4 0 6 5 11 10 11 6 0 10 -2 10 -4z m268 -51 c-3 -3 -9 2 -12 12 -6 14 -5
15 5 6 7 -7 10 -15 7 -18z m-3888 -215 c0 -5 -5 -10 -11 -10 -5 0 -7 5 -4 10
3 6 8 10 11 10 2 0 4 -4 4 -10z m4353 -125 c-3 -9 -8 -14 -10 -11 -3 3 -2 9 2
15 9 16 15 13 8 -4z m-2033 -60 c0 -2 -6 -8 -13 -14 -10 -8 -14 -7 -14 2 0 8
6 14 14 14 7 0 13 -1 13 -2z m-40 -41 c0 -8 -19 -13 -24 -6 -3 5 1 9 9 9 8 0
15 -2 15 -3z m-1036 -59 c-4 -8 -10 -12 -15 -9 -11 6 -2 24 11 24 5 0 7 -7 4
-15z m953 -21 c-3 -3 -12 -4 -19 -1 -8 3 -5 6 6 6 11 1 17 -2 13 -5z m-2457
-38 c0 -2 -8 -10 -17 -17 -16 -13 -17 -12 -4 4 13 16 21 21 21 13z m3870 -81
c5 3 11 1 14 -4 7 -10 -52 -7 -62 4 -4 5 1 5 11 2 10 -4 17 -1 18 6 0 9 2 9 6
-1 2 -6 9 -10 13 -7z m45 -3 c-3 -3 -11 0 -18 7 -9 10 -8 11 6 5 10 -3 15 -9
12 -12z m-3955 -6 c0 -2 -7 -7 -16 -10 -8 -3 -12 -2 -9 4 6 10 25 14 25 6z
m3975 -6 c-6 -10 7 -14 33 -11 6 1 12 -8 12 -21 0 -13 4 -18 8 -13 8 12 36 19
29 8 -8 -13 12 -55 23 -48 6 4 8 10 5 15 -3 5 -2 11 3 14 4 2 8 -10 9 -27 3
-76 7 -97 15 -97 5 0 7 4 4 8 -3 5 0 9 7 9 7 0 12 -11 12 -24 0 -12 -3 -23 -7
-23 -4 0 -5 -9 -3 -19 3 -14 -1 -18 -11 -14 -13 5 -20 -23 -15 -63 1 -6 -9
-11 -21 -10 -17 1 -23 -5 -23 -19 0 -13 -6 -20 -17 -19 -13 1 -18 -5 -18 -22
0 -17 -5 -22 -20 -19 -14 3 -20 -2 -20 -15 0 -10 -7 -21 -16 -24 -10 -4 -13
-2 -8 7 5 8 4 9 -4 2 -7 -6 -13 -23 -14 -37 -1 -15 -6 -24 -10 -22 -5 3 -5 11
-1 17 4 7 0 6 -10 -2 -9 -7 -17 -21 -17 -31 0 -25 -11 -32 -28 -17 -13 10 -15
9 -10 -10 6 -21 2 -25 -18 -22 -14 2 -23 -26 -11 -33 7 -5 2 -8 -13 -8 -25 0
-67 -20 -42 -20 21 0 13 -18 -10 -22 -16 -2 -22 -9 -20 -22 3 -15 -1 -18 -17
-13 -14 3 -21 0 -21 -9 0 -8 -9 -14 -20 -14 -13 0 -20 -7 -20 -20 0 -14 -7
-20 -23 -20 -24 0 -35 -28 -13 -32 27 -4 -125 -13 -176 -10 -40 3 -58 8 -58
17 0 7 6 16 13 19 6 3 3 5 -8 5 -38 -2 -45 1 -45 22 0 11 -5 17 -10 14 -6 -3
-13 1 -16 9 -3 9 -16 16 -29 16 -18 0 -22 4 -18 20 4 16 0 20 -19 20 -17 0
-24 6 -25 20 -1 13 2 18 10 14 8 -5 8 -3 0 7 -7 7 -13 19 -13 26 0 7 6 12 13
10 6 -1 11 4 9 12 -3 12 0 12 12 2 16 -14 25 -5 21 22 -3 15 -1 16 11 6 14
-12 19 -3 15 29 -1 8 6 12 16 10 12 -2 19 4 21 20 3 18 8 23 23 19 15 -4 19 0
19 18 0 18 5 23 20 20 16 -3 20 2 20 21 0 21 4 24 20 19 15 -5 18 -2 15 14 -2
14 1 21 11 21 10 0 12 5 8 13 -5 7 0 6 11 -3 17 -14 18 -13 13 8 -6 21 5 28
35 23 11 -2 8 14 -5 28 -10 11 -10 13 0 7 6 -4 12 -3 12 2 0 6 9 8 20 5 15 -4
18 -1 15 15 -2 11 3 23 11 26 8 3 14 0 14 -7 0 -8 3 -7 9 2 5 8 7 20 4 27 -2
6 1 15 6 19 6 3 8 11 5 17 -4 7 -2 8 4 4 6 -4 8 -14 5 -23 -4 -11 -3 -14 5 -9
7 4 12 15 12 26 0 10 7 21 16 24 15 6 15 4 3 -11 -13 -16 -12 -17 4 -4 10 8
16 20 13 28 -3 7 -1 13 5 13 6 0 8 4 5 9 -4 5 3 7 14 4 17 -4 20 0 20 23 0 21
3 25 9 15 8 -12 14 -12 33 -4 19 10 20 12 5 12 -10 1 -16 5 -13 10 3 4 17 7
31 6 14 -2 27 0 29 4 6 8 88 7 103 -2 6 -4 13 0 17 8 3 8 8 15 11 15 4 0 3 -4
0 -10z m842 -70 c-1 -11 -4 -20 -8 -20 -9 0 -18 37 -12 44 10 10 22 -4 20 -24z
m-2387 -35 c11 -13 10 -14 -4 -9 -9 3 -16 10 -16 15 0 13 6 11 20 -6z m2385
-5 c3 -6 -1 -7 -9 -4 -18 7 -21 14 -7 14 6 0 13 -4 16 -10z m-675 -26 c0 -8
-19 -13 -24 -6 -3 5 1 9 9 9 8 0 15 -2 15 -3z m674 -3 c3 -5 -2 -15 -12 -22
-15 -13 -16 -12 -4 3 10 13 10 17 0 21 -9 4 -9 6 -1 6 6 1 14 -3 17 -8z
m-4134 -36 c-7 -9 -15 -13 -19 -10 -3 3 1 10 9 15 21 14 24 12 10 -5z m1635
-16 c-10 -15 -25 -10 -19 6 4 8 10 12 15 9 5 -3 7 -10 4 -15z m-44 -76 c13
-16 12 -17 -3 -4 -17 13 -22 21 -14 21 2 0 10 -8 17 -17z m2549 7 c0 -5 -2
-10 -4 -10 -3 0 -8 5 -11 10 -3 6 -1 10 4 10 6 0 11 -4 11 -10z m-2583 -85 c0
-8 -4 -12 -9 -9 -4 3 -8 9 -8 15 0 5 4 9 8 9 5 0 9 -7 9 -15z m-2347 -11 c0
-8 -19 -13 -24 -6 -3 5 1 9 9 9 8 0 15 -2 15 -3z m2070 -54 c0 -5 -4 -10 -10
-10 -5 0 -10 5 -10 10 0 6 5 10 10 10 6 0 10 -4 10 -10z m271 -17 c13 -16 12
-17 -3 -4 -10 7 -18 15 -18 17 0 8 8 3 21 -13z m2543 -64 c-3 -5 -10 -7 -15
-3 -5 3 -7 10 -3 15 3 5 10 7 15 3 5 -3 7 -10 3 -15z m-2939 -39 c-3 -5 -12
-10 -18 -10 -7 0 -6 4 3 10 19 12 23 12 15 0z m-112 -113 c3 -8 0 -14 -7 -14
-7 0 -13 6 -13 14 0 7 4 13 8 13 4 0 9 -6 12 -13z m-118 -96 c3 -5 0 -13 -6
-17 -7 -4 -9 -3 -5 4 3 5 0 13 -6 15 -9 4 -10 6 -1 6 6 1 14 -3 18 -8z m1888
-56 c-3 -9 -8 -14 -10 -11 -3 3 -2 9 2 15 9 16 15 13 8 -4z m-2253 -59 c0 -2
-7 -6 -15 -10 -8 -3 -15 -1 -15 4 0 6 7 10 15 10 8 0 15 -2 15 -4z m40 -6 c0
-5 -8 -10 -17 -10 -15 0 -16 2 -3 10 19 12 20 12 20 0z m1500 -236 c0 -8 -19
-13 -24 -6 -3 5 1 9 9 9 8 0 15 -2 15 -3z m-1947 -55 c-8 -8 -13 -7 -18 2 -5
8 -4 10 3 5 7 -4 12 -2 12 5 0 7 3 9 7 6 4 -4 2 -12 -4 -18z m-833 -20 c0 -15
-18 -19 -23 -6 -3 8 1 14 9 14 8 0 14 -4 14 -8z m2935 -87 c-3 -3 -11 0 -18 7
-9 10 -8 11 6 5 10 -3 15 -9 12 -12z m352 -199 c0 -8 -6 -9 -19 -2 -10 5 -18
11 -18 12 0 2 8 3 18 3 10 0 19 -6 19 -13z m-3064 -66 c3 -8 -1 -14 -8 -14 -7
0 -11 6 -8 14 3 7 6 13 8 13 2 0 5 -6 8 -13z"/>
<path d="M4313 2400 c-1 -11 2 -20 5 -20 4 0 8 9 9 20 1 11 -2 20 -5 20 -4 0
-8 -9 -9 -20z"/>
<path d="M2616 4452 c-2 -4 4 -9 15 -9 10 -1 19 2 19 8 0 11 -27 12 -34 1z"/>
<path d="M2900 4289 c0 -5 5 -7 10 -4 6 3 10 8 10 11 0 2 -4 4 -10 4 -5 0 -10
-5 -10 -11z"/>
<path d="M2967 4219 c7 -7 15 -10 18 -7 3 3 -2 9 -12 12 -14 6 -15 5 -6 -5z"/>
<path d="M3120 3991 c0 -6 4 -13 10 -16 6 -3 7 1 4 9 -7 18 -14 21 -14 7z"/>
<path d="M2350 3781 c0 -6 4 -13 10 -16 6 -3 7 1 4 9 -7 18 -14 21 -14 7z"/>
<path d="M2276 3768 c3 -5 10 -6 15 -3 13 9 11 12 -6 12 -8 0 -12 -4 -9 -9z"/>
<path d="M2456 3695 c4 -8 8 -15 10 -15 2 0 4 7 4 15 0 8 -4 15 -10 15 -5 0
-7 -7 -4 -15z"/>
<path d="M3206 3555 c13 -10 15 -14 5 -15 -8 0 -12 -3 -8 -6 3 -3 11 -3 17 1
13 8 -5 35 -23 35 -6 0 -2 -7 9 -15z"/>
<path d="M2296 3348 c3 -5 10 -6 15 -3 13 9 11 12 -6 12 -8 0 -12 -4 -9 -9z"/>
<path d="M3962 3314 c10 -10 20 -15 24 -12 3 4 -5 12 -18 18 -22 12 -22 12 -6
-6z"/>
<path d="M3807 3289 c7 -7 15 -10 18 -7 3 3 -2 9 -12 12 -14 6 -15 5 -6 -5z"/>
<path d="M335 2899 c-4 -6 -5 -12 -2 -15 2 -3 7 2 10 11 7 17 1 20 -8 4z"/>
<path d="M2855 2891 c-3 -5 -1 -12 5 -16 5 -3 10 1 10 9 0 18 -6 21 -15 7z"/>
<path d="M5013 2603 c0 -9 4 -10 14 -2 7 6 13 12 13 14 0 1 -6 2 -13 2 -8 0
-14 -6 -14 -14z"/>
<path d="M2735 2551 c-3 -5 -2 -12 3 -15 5 -3 9 1 9 9 0 17 -3 19 -12 6z"/>
<path d="M2420 2470 c0 -6 7 -10 15 -10 8 0 15 2 15 4 0 2 -7 6 -15 10 -8 3
-15 1 -15 -4z"/>
<path d="M1376 2432 c-3 -5 1 -9 9 -9 8 0 12 4 9 9 -3 4 -7 8 -9 8 -2 0 -6 -4
-9 -8z"/>
<path d="M2346 2391 c-4 -5 -2 -12 3 -15 5 -4 12 -2 15 3 4 5 2 12 -3 15 -5 4
-12 2 -15 -3z"/>
<path d="M2276 2307 c3 -10 9 -15 12 -12 3 3 0 11 -7 18 -10 9 -11 8 -5 -6z"/>
<path d="M2415 2310 c3 -5 8 -10 11 -10 2 0 4 5 4 10 0 6 -5 10 -11 10 -5 0
-7 -4 -4 -10z"/>
<path d="M775 2130 c-3 -5 -1 -10 4 -10 6 0 11 5 11 10 0 6 -2 10 -4 10 -3 0
-8 -4 -11 -10z"/>
<path d="M2010 2030 c0 -5 5 -10 11 -10 5 0 7 5 4 10 -3 6 -8 10 -11 10 -2 0
-4 -4 -4 -10z"/>
<path d="M4903 1955 c0 -8 4 -15 9 -15 4 0 8 4 8 9 0 6 -4 12 -8 15 -5 3 -9
-1 -9 -9z"/>
<path d="M1856 1897 c3 -10 9 -15 12 -12 3 3 0 11 -7 18 -10 9 -11 8 -5 -6z"/>
<path d="M1656 1737 c3 -10 9 -15 12 -12 3 3 0 11 -7 18 -10 9 -11 8 -5 -6z"/>
<path d="M840 1711 c0 -6 4 -13 10 -16 6 -3 7 1 4 9 -7 18 -14 21 -14 7z"/>
<path d="M923 1591 c0 -11 5 -18 9 -15 4 3 5 11 1 19 -7 21 -12 19 -10 -4z"/>
<path d="M1713 1397 c0 -8 6 -14 13 -14 7 0 10 6 7 14 -3 7 -8 13 -12 13 -4 0
-8 -6 -8 -13z"/>
<path d="M216 1342 c-3 -5 1 -9 9 -9 8 0 12 4 9 9 -3 4 -7 8 -9 8 -2 0 -6 -4
-9 -8z"/>
<path d="M3276 1223 c-6 -14 -5 -15 5 -6 7 7 10 15 7 18 -3 3 -9 -2 -12 -12z"/>
<path d="M3977 1146 c-4 -10 -1 -13 8 -9 8 3 12 9 9 14 -7 12 -11 11 -17 -5z"/>
<path d="M3705 1120 c-3 -6 -11 -8 -16 -5 -5 4 -6 -2 -2 -11 4 -10 8 -13 10
-7 2 6 18 9 38 6 20 -3 35 0 35 5 0 6 -8 9 -17 7 -10 -1 -23 2 -30 7 -7 5 -14
5 -18 -2z"/>
<path d="M3650 1110 c0 -5 5 -10 11 -10 5 0 7 5 4 10 -3 6 -8 10 -11 10 -2 0
-4 -4 -4 -10z"/>
<path d="M535 959 c-4 -6 -5 -12 -2 -15 2 -3 7 2 10 11 7 17 1 20 -8 4z"/>
</g>
</svg>
