<svg xmlns="http://www.w3.org/2000/svg" width="64.053" height="78.052" viewBox="0 0 64.053 78.052">
    <defs>
        <clipPath id="6aeuxczvra">
            <path data-name="사각형 3544" style="fill:none" d="M0 0h64.053v78.052H0z"/>
        </clipPath>
    </defs>
    <g data-name="그룹 5452" style="clip-path:url(#6aeuxczvra)">
        <path data-name="패스 7427" d="M15.372 125.534H1.041A1.041 1.041 0 0 1 0 124.493V82.445A1.041 1.041 0 0 1 1.041 81.4h14.331a1.041 1.041 0 0 1 1.041 1.041v42.049a1.041 1.041 0 0 1-1.041 1.041m-13.29-2.082h12.249V83.485H2.082z" transform="translate(0 -47.512)" style="fill:#46bad1"/>
        <path data-name="패스 7428" d="M89.93 164.545H75.619a1.041 1.041 0 0 1-1.041-1.041v-14.27a1.041 1.041 0 0 1 1.041-1.041H89.93a1.041 1.041 0 0 1 1.041 1.041V163.5a1.041 1.041 0 0 1-1.041 1.041m-13.27-2.082h12.229v-12.184H76.66z" transform="translate(-43.528 -86.493)" style="fill:#46bad1"/>
        <path data-name="패스 7429" d="M83.256 11.741H71.711a12.23 12.23 0 0 0-24.44 0H35.726a1.041 1.041 0 0 0-1.041 1.041v64.2a1.041 1.041 0 0 0 1.041 1.041h47.53a1.041 1.041 0 0 0 1.044-1.041v-64.2a1.041 1.041 0 0 0-1.041-1.041M59.491 2.082a10.151 10.151 0 1 1-10.151 10.15 10.162 10.162 0 0 1 10.151-10.15m22.724 73.859H36.767V13.822h10.6a12.229 12.229 0 0 0 24.252 0h10.6z" transform="translate(-20.244)" style="fill:#46bad1"/>
        <path data-name="패스 7430" d="M89.576 18.043h-3.57v-3.57a1.665 1.665 0 1 0-3.331 0v3.57H79.1a1.665 1.665 0 0 0 0 3.331h3.57v3.57a1.665 1.665 0 1 0 3.331 0v-3.57h3.57a1.665 1.665 0 1 0 0-3.331" transform="translate(-45.197 -7.475)" style="fill:#46bad1"/>
        <path data-name="패스 7431" d="M108.746 83.481H100.2a1.041 1.041 0 0 1-1.041-1.041v-8.666a1.041 1.041 0 0 1 1.041-1.041h8.549a1.041 1.041 0 0 1 1.041 1.041v8.666a1.041 1.041 0 0 1-1.041 1.041m-7.511-2.081h6.468v-6.585h-6.468z" transform="translate(-57.873 -42.451)" style="fill:#46bad1"/>
        <path data-name="패스 7432" d="M73.43 83.481h-8.549a1.041 1.041 0 0 1-1.041-1.041v-8.666a1.041 1.041 0 0 1 1.041-1.041h8.549a1.041 1.041 0 0 1 1.041 1.041v8.666a1.041 1.041 0 0 1-1.041 1.041M65.922 81.4h6.468v-6.585h-6.468z" transform="translate(-37.26 -42.451)" style="fill:#46bad1"/>
        <path data-name="패스 7433" d="M108.746 115.81H100.2a1.041 1.041 0 0 1-1.041-1.041V106.1a1.041 1.041 0 0 1 1.041-1.041h8.549a1.041 1.041 0 0 1 1.041 1.041v8.666a1.041 1.041 0 0 1-1.041 1.041m-7.508-2.082h6.468v-6.585h-6.468z" transform="translate(-57.873 -61.32)" style="fill:#46bad1"/>
        <path data-name="패스 7434" d="M73.43 115.81h-8.549a1.041 1.041 0 0 1-1.041-1.041V106.1a1.041 1.041 0 0 1 1.041-1.041h8.549a1.041 1.041 0 0 1 1.041 1.041v8.666a1.041 1.041 0 0 1-1.041 1.041m-7.508-2.082h6.468v-6.585h-6.468z" transform="translate(-37.26 -61.32)" style="fill:#46bad1"/>
        <path data-name="패스 7435" d="M17.815 98.663h-4.991a1.041 1.041 0 1 1 0-2.082h4.991a1.041 1.041 0 1 1 0 2.082" transform="translate(-6.877 -56.37)" style="fill:#46bad1"/>
        <path data-name="패스 7436" d="M17.815 112.421h-4.991a1.041 1.041 0 1 1 0-2.082h4.991a1.041 1.041 0 1 1 0 2.082" transform="translate(-6.877 -64.4)" style="fill:#46bad1"/>
        <path data-name="패스 7437" d="M17.815 125.225h-4.991a1.041 1.041 0 0 1 0-2.082h4.991a1.041 1.041 0 0 1 0 2.082" transform="translate(-6.877 -71.873)" style="fill:#46bad1"/>
        <path data-name="패스 7438" d="M17.815 138.439h-4.991a1.041 1.041 0 0 1 0-2.082h4.991a1.041 1.041 0 0 1 0 2.082" transform="translate(-6.877 -79.585)" style="fill:#46bad1"/>
    </g>
</svg>
