<svg data-name="구성 요소 36 – 1" xmlns="http://www.w3.org/2000/svg" width="64" height="64" viewBox="0 0 64 64">
    <circle data-name="타원 348" cx="32" cy="32" r="32" style="fill:#001a3d"/>
    <path data-name="Icon awesome-fax" d="M3.137 6.273H1.568A1.568 1.568 0 0 0 0 7.841v15.683a1.568 1.568 0 0 0 1.568 1.568h1.569A1.568 1.568 0 0 0 4.7 23.524V7.841a1.568 1.568 0 0 0-1.563-1.568zm20.387 1.568V3.786a1.569 1.569 0 0 0-.459-1.109L20.847.459A1.568 1.568 0 0 0 19.738 0H7.841a1.568 1.568 0 0 0-1.568 1.568v21.956a1.568 1.568 0 0 0 1.568 1.568h15.683a1.568 1.568 0 0 0 1.568-1.568V9.41a1.568 1.568 0 0 0-1.568-1.569zm-9.41 13.331a.784.784 0 0 1-.784.784h-1.568a.784.784 0 0 1-.784-.784V19.6a.784.784 0 0 1 .784-.784h1.568a.784.784 0 0 1 .784.784zm0-6.273a.784.784 0 0 1-.784.784h-1.568a.784.784 0 0 1-.784-.784v-1.568a.784.784 0 0 1 .784-.784h1.568a.784.784 0 0 1 .784.784zm6.273 6.273a.784.784 0 0 1-.784.784h-1.568a.784.784 0 0 1-.784-.784V19.6a.784.784 0 0 1 .784-.784H19.6a.784.784 0 0 1 .784.784zm0-6.273a.784.784 0 0 1-.784.784h-1.568a.784.784 0 0 1-.784-.784v-1.568a.784.784 0 0 1 .784-.784H19.6a.784.784 0 0 1 .784.784zm.784-5.489H8.626V2.352H18.82v1.569a.784.784 0 0 0 .78.779h1.568z" transform="translate(19.453 18.454)" style="fill:#46bad1"/>
</svg>
