<svg data-name="구성 요소 35 – 1" xmlns="http://www.w3.org/2000/svg" width="64" height="64" viewBox="0 0 64 64">
    <circle data-name="타원 347" cx="32" cy="32" r="32" style="fill:#001a3d"/>
    <path data-name="Icon zocial-call" d="M3.321 7.972A1.885 1.885 0 0 1 3.8 6.949l3.838-3.838q.448-.384.672.128l3.1 5.821a.837.837 0 0 1-.16.991l-1.405 1.407a1.591 1.591 0 0 0-.448.991 4.882 4.882 0 0 0 .991 2.463 21.03 21.03 0 0 0 1.951 2.559l.991 1.022c.3.3.682.667 1.152 1.1a19.308 19.308 0 0 0 2.318 1.732 5.187 5.187 0 0 0 2.544 1.075 1.392 1.392 0 0 0 1.023-.416l1.664-1.663a.7.7 0 0 1 .958-.128l5.6 3.294a.467.467 0 0 1 .256.336.408.408 0 0 1-.128.368l-3.838 3.838a1.879 1.879 0 0 1-1.022.479 7.737 7.737 0 0 1-3.535-.432 15.993 15.993 0 0 1-3.645-1.743q-1.677-1.091-3.12-2.21t-2.3-1.919l-.832-.8q-.319-.319-.847-.879t-1.844-2.207a32.119 32.119 0 0 1-2.27-3.218A18.75 18.75 0 0 1 3.8 11.538a7.586 7.586 0 0 1-.479-3.566z" transform="translate(16.139 16.246)" style="fill:#46bad1;stroke:#46bad1;stroke-width:2px"/>
</svg>
