<svg data-name="구성 요소 72 – 1" xmlns="http://www.w3.org/2000/svg" width="100.742" height="100.742" viewBox="0 0 100.742 100.742">
    <defs>
        <clipPath id="egwmeb3x7a">
            <path data-name="사각형 3566" style="fill:none" d="M0 0h46.898v52.3H0z"/>
        </clipPath>
    </defs>
    <g data-name="그룹 5130" transform="translate(-294.629 -3681.879)">
        <circle data-name="타원 129" cx="50.371" cy="50.371" r="50.371" transform="translate(294.629 3681.879)" style="fill:#76c7d3"/>
    </g>
    <g data-name="그룹 5480">
        <g data-name="그룹 5479" style="clip-path:url(#egwmeb3x7a)" transform="translate(23.371 24.221)">
            <path data-name="패스 7557" d="M25.354 72.523a.953.953 0 0 0 .14-.014 7.2 7.2 0 0 0-.432-14.381h-.034a7.205 7.205 0 0 0-7.2 7.2.98.98 0 1 0 1.961 0 5.242 5.242 0 0 1 5.236-5.237h.034a5.237 5.237 0 0 1 0 10.473H.98a.98.98 0 0 0 0 1.961z" transform="translate(0 -45.464)" style="fill:#061a3b"/>
            <path data-name="패스 7558" d="M55.177 163.22a.984.984 0 0 0-.186-.019H26.013a.98.98 0 0 0 0 1.961h28.631a6.411 6.411 0 0 1 0 12.822h-.04a6.418 6.418 0 0 1-6.411-6.411.98.98 0 1 0-1.961 0 8.381 8.381 0 0 0 8.372 8.372h.04a8.371 8.371 0 0 0 .532-16.725" transform="translate(-19.579 -127.644)" style="fill:#061a3b"/>
            <path data-name="패스 7559" d="M122.554 94.594h-.025a5.565 5.565 0 0 0-5.559 5.559.98.98 0 0 0 1.961 0 3.6 3.6 0 0 1 3.6-3.6h.025a3.6 3.6 0 0 1 0 7.2h-17.738a.98.98 0 1 0 0 1.961h17.95c.026 0 .05-.006.076-.008a5.559 5.559 0 0 0-.29-11.11" transform="translate(-81.215 -73.985)" style="fill:#061a3b"/>
            <path data-name="패스 7560" d="M17.648 47.136a6.508 6.508 0 0 1 3.909 3.9.98.98 0 0 0 .914.626.98.98 0 0 0 .914-.627 6.5 6.5 0 0 1 3.9-3.9.98.98 0 0 0 0-1.827 6.516 6.516 0 0 1-3.9-3.911.98.98 0 0 0-.914-.627h-.009a.981.981 0 0 0-.912.644 6.434 6.434 0 0 1-3.889 3.886.981.981 0 0 0-.013 1.833m3.782-1.959a8.4 8.4 0 0 0 1.045-1.274 8.207 8.207 0 0 0 2.322 2.32 8.193 8.193 0 0 0-2.326 2.324 8.208 8.208 0 0 0-2.319-2.32 8.207 8.207 0 0 0 1.279-1.051" transform="translate(-13.313 -31.89)" style="fill:#061a3b"/>
            <path data-name="패스 7561" d="M144.248 7.293a8.056 8.056 0 0 1 4.839 4.831.98.98 0 0 0 .914.626.981.981 0 0 0 .914-.627 8.045 8.045 0 0 1 4.828-4.823.98.98 0 0 0 0-1.827A8.065 8.065 0 0 1 150.91.627.98.98 0 0 0 150 0h-.009a.98.98 0 0 0-.912.644 7.944 7.944 0 0 1-1.866 2.945 7.981 7.981 0 0 1-2.948 1.87.98.98 0 0 0-.013 1.833m4.351-2.32a9.879 9.879 0 0 0 1.403-1.772 9.76 9.76 0 0 0 3.184 3.18A9.739 9.739 0 0 0 150 9.569a9.752 9.752 0 0 0-3.181-3.182 9.7 9.7 0 0 0 1.781-1.414" transform="translate(-112.331)" style="fill:#061a3b"/>
        </g>
    </g>
</svg>
