<svg data-name="구성 요소 74 – 1" xmlns="http://www.w3.org/2000/svg" width="100.742" height="100.742" viewBox="0 0 100.742 100.742">
    <defs>
        <clipPath id="se5vl26kva">
            <path data-name="사각형 3570" style="fill:none" d="M0 0h50.826v61.442H0z"/>
        </clipPath>
    </defs>
    <g data-name="그룹 5132" transform="translate(-294.629 -3681.879)">
        <circle data-name="타원 129" cx="50.371" cy="50.371" r="50.371" transform="translate(294.629 3681.879)" style="fill:#76c7d3"/>
    </g>
    <g data-name="그룹 5489">
        <g data-name="그룹 5488" style="clip-path:url(#se5vl26kva)" transform="translate(26.474 19.65)">
            <path data-name="패스 7567" d="M14.775 145.3a.927.927 0 0 1-.464-.125l-8.557-4.94a.93.93 0 0 1-.341-1.271l2.438-4.222a15.325 15.325 0 0 1-1.99-3.428H.93a.93.93 0 0 1-.93-.93V120.5a.93.93 0 0 1 .93-.93h4.876a15.318 15.318 0 0 1 1.96-3.455l-2.353-4.075a.93.93 0 0 1 .341-1.271l8.557-4.94a.931.931 0 0 1 1.271.341l2.29 3.967a15.241 15.241 0 0 1 4.228-.023l2.277-3.944a.93.93 0 0 1 1.271-.341l8.557 4.94a.93.93 0 0 1 .34 1.271l-2.277 3.944a15.3 15.3 0 0 1 2.063 3.586H39.3a.93.93 0 0 1 .93.93v9.881a.93.93 0 0 1-.93.93h-5.025a15.307 15.307 0 0 1-2.093 3.558l2.362 4.092a.93.93 0 0 1-.34 1.271l-8.557 4.94a.931.931 0 0 1-1.271-.341l-2.414-4.181a15.233 15.233 0 0 1-3.954-.023l-2.427 4.2a.931.931 0 0 1-.807.465m7.678-6.588a.93.93 0 0 1 .805.465l2.265 3.922 6.945-4.01-2.219-3.843a.93.93 0 0 1 .1-1.07 13.482 13.482 0 0 0 2.421-4.113.93.93 0 0 1 .873-.608h4.729v-8.02H33.69a.93.93 0 0 1-.876-.617 13.466 13.466 0 0 0-2.383-4.144.93.93 0 0 1-.094-1.064l2.13-3.69-6.945-4.01-2.131 3.69a.931.931 0 0 1-.967.451 13.489 13.489 0 0 0-4.866.027.931.931 0 0 1-.977-.449l-2.147-3.719-6.946 4.01 2.2 3.815a.93.93 0 0 1-.087 1.055 13.473 13.473 0 0 0-2.283 4.027.93.93 0 0 1-.876.617H1.86v8.02h4.634a.931.931 0 0 1 .873.608 13.478 13.478 0 0 0 2.321 4 .931.931 0 0 1 .092 1.062l-2.29 3.97 6.946 4.01 2.281-3.951a.931.931 0 0 1 .968-.451 13.5 13.5 0 0 0 4.616.027.927.927 0 0 1 .152-.013" transform="translate(0 -83.855)" style="fill:#061a3b"/>
            <path data-name="패스 7568" d="M61.233 174.794a9.4 9.4 0 1 1 9.4-9.4 9.412 9.412 0 0 1-9.4 9.4m0-16.943a7.541 7.541 0 1 0 7.541 7.541 7.549 7.549 0 0 0-7.541-7.541" transform="translate(-41.118 -123.746)" style="fill:#061a3b"/>
            <path data-name="패스 7569" d="M178.762 57.566h-6.171a.93.93 0 0 1-.93-.93V42.363l-3.245-.019a.93.93 0 0 1-.718-1.515l7.172-8.881a.931.931 0 0 1 .724-.346.93.93 0 0 1 .724.349l7.172 8.965a.93.93 0 0 1-.726 1.511h-.006l-3.067-.018v14.226a.93.93 0 0 1-.93.93m-5.241-1.86h4.311V41.474a.93.93 0 0 1 .93-.93h.005l2.053.012-5.231-6.539-5.231 6.478 2.237.013a.93.93 0 0 1 .925.93z" transform="translate(-132.869 -25.07)" style="fill:#061a3b"/>
            <path data-name="패스 7570" d="M104.114 19.431h-6.171a.93.93 0 0 1-.93-.93v-7.74l-3.245-.019a.93.93 0 0 1-.718-1.515l7.171-8.881a.931.931 0 0 1 .724-.346.93.93 0 0 1 .724.349l7.172 8.965a.93.93 0 0 1-.726 1.511h-.006l-3.067-.018V18.5a.93.93 0 0 1-.93.93m-5.241-1.86h4.311v-7.7a.93.93 0 0 1 .93-.93h.006l2.053.012-5.231-6.538-5.229 6.479 2.237.013a.93.93 0 0 1 .925.93z" transform="translate(-73.651)" style="fill:#061a3b"/>
        </g>
    </g>
</svg>
