<svg xmlns="http://www.w3.org/2000/svg" width="31.584" height="26.636" viewBox="0 0 31.584 26.636">
    <defs>
        <clipPath id="3tvs7j1j2a">
            <path data-name="사각형 3576" style="fill:none" d="M0 0h31.584v26.636H0z"/>
        </clipPath>
    </defs>
    <g data-name="그룹 5503">
        <g data-name="그룹 5502" style="clip-path:url(#3tvs7j1j2a)">
            <path data-name="패스 7598" d="M17.09 62.134H.485a.485.485 0 0 1 0-.969H17.09a.485.485 0 0 1 0 .969" transform="translate(0 -52.694)" style="fill:#46bad1"/>
            <path data-name="패스 7599" d="M118.951 9.44a.485.485 0 0 1 0-.969 3.751 3.751 0 1 0 0-7.5.485.485 0 0 1 0-.969 4.72 4.72 0 1 1 0 9.44" transform="translate(-102.06)" style="fill:#46bad1"/>
            <path data-name="패스 7600" d="M88.2 5.2a.485.485 0 0 1-.485-.485A4.726 4.726 0 0 1 92.438 0a.485.485 0 1 1 0 .969 3.755 3.755 0 0 0-3.751 3.751.485.485 0 0 1-.487.48" transform="translate(-75.57)" style="fill:#46bad1"/>
            <path data-name="패스 7601" d="M47.055 113.584H27.314a.485.485 0 0 1 0-.969h19.741a.485.485 0 1 1 0 .969" transform="translate(-23.113 -97.019)" style="fill:#46bad1"/>
            <path data-name="패스 7602" d="M168.157 123.655a.485.485 0 1 1 0-.969 4.551 4.551 0 1 0 0-9.1.485.485 0 1 1 0-.969 5.52 5.52 0 0 1 0 11.04" transform="translate(-144.451 -97.019)" style="fill:#46bad1"/>
            <path data-name="패스 7603" d="M136.636 154.979a5.526 5.526 0 0 1-5.52-5.52.485.485 0 1 1 .969 0 4.556 4.556 0 0 0 4.551 4.551.485.485 0 1 1 0 .969" transform="translate(-112.958 -128.343)" style="fill:#46bad1"/>
            <path data-name="패스 7604" d="M124 85.1h-12.225a.485.485 0 0 1 0-.969H124a.485.485 0 1 1 0 .969" transform="translate(-95.878 -72.479)" style="fill:#46bad1"/>
            <path data-name="패스 7605" d="M199.02 46.292a.485.485 0 0 1 0-.969 2.634 2.634 0 1 0 0-5.269.485.485 0 0 1 0-.969 3.6 3.6 0 1 1 0 7.208" transform="translate(-171.04 -33.671)" style="fill:#46bad1"/>
            <path data-name="패스 7606" d="M176.376 43.173a.485.485 0 0 1-.485-.485 3.608 3.608 0 0 1 3.6-3.6.485.485 0 1 1 0 .969 2.637 2.637 0 0 0-2.634 2.634.485.485 0 0 1-.485.485" transform="translate(-151.532 -33.671)" style="fill:#46bad1"/>
        </g>
    </g>
</svg>
