<svg data-name="그룹 5521" xmlns="http://www.w3.org/2000/svg" width="36.645" height="24.664" viewBox="0 0 36.645 24.664">
    <defs>
        <clipPath id="hh90av46da">
            <path data-name="사각형 3590" style="fill:none" d="M0 0h36.645v24.664H0z"/>
        </clipPath>
    </defs>
    <g data-name="그룹 5520" style="clip-path:url(#hh90av46da)">
        <path data-name="패스 7670" d="M34.13 18.861H2.515A2.518 2.518 0 0 1 0 16.346V2.515A2.518 2.518 0 0 1 2.515 0H34.13a2.518 2.518 0 0 1 2.515 2.515v13.83a2.518 2.518 0 0 1-2.515 2.515M2.515 1.254a1.262 1.262 0 0 0-1.261 1.261v13.83a1.263 1.263 0 0 0 1.261 1.261H34.13a1.262 1.262 0 0 0 1.261-1.261V2.515a1.262 1.262 0 0 0-1.261-1.261z" style="fill:#46bad1"/>
        <path data-name="패스 7671" d="M36.8 75.085H1.854a.627.627 0 0 1 0-1.254H36.8a.627.627 0 0 1 0 1.254" transform="translate(-1.007 -60.602)" style="fill:#46bad1"/>
        <path data-name="패스 7672" d="M175.557 55.06a.837.837 0 1 1-.837-.837.837.837 0 0 1 .837.837" transform="translate(-142.727 -44.508)" style="fill:#46bad1"/>
        <path data-name="패스 7673" d="M159.562 55.06a.837.837 0 1 1-.837-.837.837.837 0 0 1 .837.837" transform="translate(-129.598 -44.508)" style="fill:#46bad1"/>
        <path data-name="패스 7674" d="M83.854 116.835a.627.627 0 0 1-.627-.627v-3.29a.627.627 0 1 1 1.254 0v3.29a.627.627 0 0 1-.627.627" transform="translate(-68.315 -92.171)" style="fill:#46bad1"/>
        <path data-name="패스 7675" d="M116.909 116.835a.627.627 0 0 1-.627-.627v-3.29a.627.627 0 0 1 1.254 0v3.29a.627.627 0 0 1-.627.627" transform="translate(-95.447 -92.171)" style="fill:#46bad1"/>
        <path data-name="패스 7676" d="M37.992 116.6a.627.627 0 0 1-.093-1.247 3.189 3.189 0 0 0 2.519-2.767.627.627 0 1 1 1.238.2 4.479 4.479 0 0 1-1.976 3.161 4.3 4.3 0 0 1-1.6.646.649.649 0 0 1-.091.006" transform="translate(-30.671 -91.983)" style="fill:#46bad1"/>
        <path data-name="패스 7677" d="M146.834 116.6a.649.649 0 0 1-.091-.006 4.294 4.294 0 0 1-1.6-.646 4.479 4.479 0 0 1-1.976-3.161.627.627 0 1 1 1.238-.2 3.2 3.2 0 0 0 2.516 2.766.627.627 0 0 1-.089 1.248" transform="translate(-117.511 -91.985)" style="fill:#46bad1"/>
    </g>
</svg>
