<svg xmlns="http://www.w3.org/2000/svg" width="28.953" height="28.953" viewBox="0 0 28.953 28.953">
    <defs>
        <clipPath id="uzvdkeug5a">
            <path data-name="사각형 3589" style="fill:none" d="M0 0h28.953v28.953H0z"/>
        </clipPath>
    </defs>
    <g data-name="그룹 5519">
        <g data-name="그룹 5518" style="clip-path:url(#uzvdkeug5a)">
            <path data-name="패스 7658" d="M85.452 42.681a2.486 2.486 0 1 1-2.486-2.481 2.486 2.486 0 0 1 2.486 2.486" transform="translate(-68.602 -34.263)" style="fill:#fff"/>
            <path data-name="패스 7659" d="M80.409 43.052a2.929 2.929 0 1 1 2.928-2.928 2.932 2.932 0 0 1-2.928 2.928m0-4.971a2.043 2.043 0 1 0 2.043 2.043 2.045 2.045 0 0 0-2.043-2.043" transform="translate(-66.045 -31.705)" style="fill:#46bad1"/>
            <path data-name="패스 7660" d="M70.146 64.465c0 4.027-2.548 7.291-5.691 7.291s-5.691-3.264-5.691-7.291 2.548-7.291 5.691-7.291 5.691 3.264 5.691 7.291" transform="translate(-50.091 -48.736)" style="fill:#fff"/>
            <path data-name="패스 7661" d="M61.471 69.29c-3.423 0-6.208-3.5-6.208-7.808s2.785-7.808 6.208-7.808 6.207 3.5 6.207 7.808-2.785 7.808-6.207 7.808m0-14.583c-2.853 0-5.174 3.039-5.174 6.775s2.321 6.775 5.174 6.775 5.174-3.039 5.174-6.775-2.321-6.775-5.174-6.775" transform="translate(-47.107 -45.752)" style="fill:#46bad1"/>
            <path data-name="패스 7662" d="M39.894 46.062a.443.443 0 0 1-.351-.712l16.605-21.657a.443.443 0 0 1 .7.539L40.246 45.889a.442.442 0 0 1-.352.173" transform="translate(-33.629 -20.048)" style="fill:#46bad1"/>
            <path data-name="패스 7663" d="M42.378 79.125h-3.164a.517.517 0 1 1 0-1.033h3.165a.517.517 0 1 1 0 1.033" transform="translate(-32.986 -66.567)" style="fill:#46bad1"/>
            <path data-name="패스 7664" d="M41.474 106.4h-2.26a.517.517 0 1 1 0-1.033h2.26a.517.517 0 1 1 0 1.033" transform="translate(-32.986 -89.817)" style="fill:#46bad1"/>
            <path data-name="패스 7665" d="M45.46 130.069a.517.517 0 0 1-.208-.99l2.206-.969a.517.517 0 0 1 .416.946l-2.206.97a.516.516 0 0 1-.208.044" transform="translate(-38.31 -109.165)" style="fill:#46bad1"/>
            <path data-name="패스 7666" d="M132.941 129.327a.515.515 0 0 1-.207-.044l-2.206-.97a.517.517 0 0 1 .416-.946l2.206.969a.517.517 0 0 1-.208.99" transform="translate(-111 -108.532)" style="fill:#46bad1"/>
            <path data-name="패스 7667" d="M132.714 79.125h-3.164a.517.517 0 0 1 0-1.033h3.165a.517.517 0 0 1 0 1.033" transform="translate(-109.989 -66.567)" style="fill:#46bad1"/>
            <path data-name="패스 7668" d="M137.941 106.4h-2.26a.517.517 0 1 1 0-1.033h2.26a.517.517 0 0 1 0 1.033" transform="translate(-115.215 -89.817)" style="fill:#46bad1"/>
            <path data-name="패스 7669" d="M14.477 28.953a14.477 14.477 0 1 1 14.476-14.477 14.493 14.493 0 0 1-14.476 14.477m0-27.92A13.443 13.443 0 1 0 27.92 14.476 13.459 13.459 0 0 0 14.477 1.033" style="fill:#46bad1"/>
        </g>
    </g>
</svg>
