<svg data-name="그룹 5509" xmlns="http://www.w3.org/2000/svg" width="26.452" height="30.742" viewBox="0 0 26.452 30.742">
    <defs>
        <clipPath id="xfvkr2kfaa">
            <path data-name="사각형 3584" style="fill:none" d="M0 0h26.452v30.742H0z"/>
        </clipPath>
    </defs>
    <g data-name="그룹 5508" style="clip-path:url(#xfvkr2kfaa)">
        <path data-name="패스 7616" d="M70.5 139.214h-5.737a.535.535 0 0 1-.535-.535V128.6a.535.535 0 0 1 .535-.535H70.5a.535.535 0 0 1 .535.535v10.083a.535.535 0 0 1-.535.535m-5.2-1.071h4.662v-9.012H65.3z" transform="translate(-54.403 -108.471)" style="fill:#46bad1"/>
        <path data-name="패스 7617" d="M25.917 30.729H.535A.535.535 0 0 1 0 30.193V.535A.535.535 0 0 1 .535 0h25.382a.536.536 0 0 1 .535.535v29.658a.535.535 0 0 1-.535.535m-24.846-1.07h24.311V1.071H1.071z" style="fill:#46bad1"/>
        <path data-name="패스 7618" d="M29.318 34.139H25.4a.535.535 0 0 1-.535-.535v-3.918a.535.535 0 0 1 .535-.535h3.917a.535.535 0 0 1 .535.535V33.6a.535.535 0 0 1-.535.535m-3.382-1.071h2.847v-2.842h-2.846z" transform="translate(-21.062 -24.692)" style="fill:#46bad1"/>
        <path data-name="패스 7619" d="M75.633 34.139h-3.918a.535.535 0 0 1-.535-.535v-3.918a.535.535 0 0 1 .535-.535h3.917a.535.535 0 0 1 .535.535V33.6a.535.535 0 0 1-.535.535m-3.382-1.071h2.85v-2.842h-2.849z" transform="translate(-60.292 -24.692)" style="fill:#46bad1"/>
        <path data-name="패스 7620" d="M122.22 34.139h-3.92a.535.535 0 0 1-.535-.535v-3.918a.535.535 0 0 1 .535-.535h3.917a.535.535 0 0 1 .535.535V33.6a.535.535 0 0 1-.535.535m-3.382-1.071h2.847v-2.842h-2.847z" transform="translate(-99.753 -24.692)" style="fill:#46bad1"/>
        <path data-name="패스 7621" d="M29.318 76.64H25.4a.535.535 0 0 1-.535-.535v-3.918a.535.535 0 0 1 .535-.535h3.917a.535.535 0 0 1 .535.535V76.1a.535.535 0 0 1-.535.535m-3.382-1.071h2.847v-2.841h-2.846z" transform="translate(-21.062 -60.692)" style="fill:#46bad1"/>
        <path data-name="패스 7622" d="M75.633 76.64h-3.918a.535.535 0 0 1-.535-.535v-3.918a.535.535 0 0 1 .535-.535h3.917a.535.535 0 0 1 .535.535V76.1a.535.535 0 0 1-.535.535m-3.382-1.071h2.85v-2.841h-2.849z" transform="translate(-60.292 -60.692)" style="fill:#46bad1"/>
        <path data-name="패스 7623" d="M122.22 76.64h-3.92a.535.535 0 0 1-.535-.535v-3.918a.535.535 0 0 1 .535-.535h3.917a.535.535 0 0 1 .535.535V76.1a.535.535 0 0 1-.535.535m-3.382-1.071h2.847v-2.841h-2.847z" transform="translate(-99.753 -60.692)" style="fill:#46bad1"/>
    </g>
</svg>
