<svg xmlns="http://www.w3.org/2000/svg" width="29.09" height="30.146" viewBox="0 0 29.09 30.146">
    <defs>
        <clipPath id="zy2530093a">
            <path data-name="사각형 3582" style="fill:none" d="M0 0h29.09v30.146H0z"/>
        </clipPath>
    </defs>
    <g data-name="그룹 5505">
        <g data-name="그룹 5504" style="clip-path:url(#zy2530093a)">
            <path data-name="패스 7607" d="M55.06 63.777H41.417a1.964 1.964 0 0 1-1.962-1.962v-11.36a1.964 1.964 0 0 1 1.962-1.962H55.06a1.964 1.964 0 0 1 1.962 1.962v11.36a1.964 1.964 0 0 1-1.962 1.962M41.417 49.436a1.02 1.02 0 0 0-1.017 1.019v11.36a1.02 1.02 0 0 0 1.019 1.019H55.06a1.02 1.02 0 0 0 1.019-1.019v-11.36a1.02 1.02 0 0 0-1.019-1.019z" transform="translate(-33.255 -40.873)" style="fill:#46bad1"/>
            <path data-name="패스 7608" d="M44.7 26.23h-.029a.55.55 0 0 1-.521-.577 17.553 17.553 0 0 0-.159-3.59 8.7 8.7 0 0 0-8.573-7.248H19.759a.55.55 0 1 1 0-1.1h15.662a9.861 9.861 0 0 1 6.344 2.313 9.617 9.617 0 0 1 3.316 5.865 18.651 18.651 0 0 1 .171 3.816.55.55 0 0 1-.549.522" transform="translate(-16.191 -11.559)" style="fill:#46bad1"/>
            <path data-name="패스 7609" d="M14.453 5.595a.548.548 0 0 1-.369-.142l-2.5-2.269a.55.55 0 0 1 0-.817L14.065.14a.55.55 0 1 1 .735.819l-2.03 1.819 2.052 1.859a.55.55 0 0 1-.369.958" transform="translate(-9.608)" style="fill:#46bad1"/>
            <path data-name="패스 7610" d="M25.522 111H9.86a9.862 9.862 0 0 1-6.344-2.313A9.617 9.617 0 0 1 .2 102.822a18.655 18.655 0 0 1-.171-3.816.55.55 0 1 1 1.1.056 17.57 17.57 0 0 0 .159 3.59A8.7 8.7 0 0 0 9.86 109.9h15.662a.55.55 0 1 1 0 1.1" transform="translate(0 -83.008)" style="fill:#46bad1"/>
            <path data-name="패스 7611" d="M151.362 161.837a.55.55 0 0 1-.367-.959l2.029-1.819-2.052-1.859a.55.55 0 0 1 .738-.815l2.5 2.269a.55.55 0 0 1 0 .817l-2.483 2.226a.548.548 0 0 1-.367.14" transform="translate(-127.096 -131.691)" style="fill:#46bad1"/>
            <path data-name="사각형 3577" transform="translate(6.771 10.253)" style="fill:#46bad1" d="M0 0h16.738v.943H0z"/>
            <path data-name="사각형 3578" transform="translate(6.771 12.522)" style="fill:#46bad1" d="M0 0h16.738v.943H0z"/>
            <path data-name="사각형 3579" transform="translate(6.771 14.79)" style="fill:#46bad1" d="M0 0h16.738v.943H0z"/>
            <path data-name="사각형 3580" transform="translate(6.771 17.059)" style="fill:#46bad1" d="M0 0h16.738v.943H0z"/>
            <path data-name="사각형 3581" transform="translate(6.771 19.328)" style="fill:#46bad1" d="M0 0h16.738v.943H0z"/>
        </g>
    </g>
</svg>
