<svg xmlns="http://www.w3.org/2000/svg" width="30.026" height="29.439" viewBox="0 0 30.026 29.439">
    <defs>
        <clipPath id="47yuspxmma">
            <path data-name="사각형 3592" style="fill:none" d="M0 0h30.027v29.439H0z"/>
        </clipPath>
    </defs>
    <g data-name="그룹 5525">
        <g data-name="그룹 5524" style="clip-path:url(#47yuspxmma)">
            <path data-name="패스 7685" d="M71.414 155.085a.585.585 0 0 1-.585-.585v-3.068a.585.585 0 1 1 1.169 0v3.068a.585.585 0 0 1-.585.585" transform="translate(-58.996 -125.645)" style="fill:#46bad1"/>
            <path data-name="패스 7686" d="M104.47 155.085a.585.585 0 0 1-.585-.585v-3.068a.585.585 0 1 1 1.169 0v3.068a.585.585 0 0 1-.585.585" transform="translate(-86.529 -125.645)" style="fill:#46bad1"/>
            <path data-name="패스 7687" d="M25.553 154.852a.585.585 0 0 1-.086-1.163 2.974 2.974 0 0 0 2.349-2.58.585.585 0 1 1 1.154.187 4.175 4.175 0 0 1-1.842 2.948 4 4 0 0 1-1.49.6.6.6 0 0 1-.085.006" transform="translate(-20.797 -125.454)" style="fill:#46bad1"/>
            <path data-name="패스 7688" d="M134.189 154.853a.6.6 0 0 1-.085-.006 4 4 0 0 1-1.49-.6 4.176 4.176 0 0 1-1.842-2.948.585.585 0 1 1 1.154-.187 2.974 2.974 0 0 0 2.349 2.58.585.585 0 0 1-.087 1.163" transform="translate(-108.918 -125.455)" style="fill:#46bad1"/>
            <path data-name="패스 7689" d="M67.357 13.764h-9.831a.585.585 0 0 1-.585-.585V.585A.585.585 0 0 1 57.526 0h9.831a.585.585 0 0 1 .585.585v12.594a.585.585 0 0 1-.585.585m-9.247-1.169h8.662V1.169H58.11z" transform="translate(-47.428)" style="fill:#46bad1"/>
            <path data-name="패스 7690" d="M29.442 87.008H.585a.585.585 0 0 1-.429-.982l9.513-10.262a.585.585 0 0 1 .429-.187h9.695a.584.584 0 0 1 .426.184l9.649 10.261a.585.585 0 0 1-.426.985M1.924 85.838h26.165l-8.55-9.092h-9.186z" transform="translate(0 -62.951)" style="fill:#46bad1"/>
        </g>
    </g>
</svg>
