<svg xmlns="http://www.w3.org/2000/svg" width="35.569" height="30.655" viewBox="0 0 35.569 30.655">
    <defs>
        <clipPath id="b2lmx7chva">
            <path data-name="사각형 3585" style="fill:none" d="M0 0h35.569v30.655H0z"/>
        </clipPath>
    </defs>
    <g data-name="그룹 5511">
        <g data-name="그룹 5510" style="clip-path:url(#b2lmx7chva)">
            <path data-name="패스 7624" d="M35 15.856H.565a.565.565 0 0 1-.366-1L17.506.134a.566.566 0 0 1 .735 0l17.131 14.728a.565.565 0 0 1-.368.994M2.1 14.725h31.379L17.871 1.309z" style="fill:#46bad1"/>
            <path data-name="패스 7625" d="M47.7 107.15H19.318a.565.565 0 0 1-.565-.565V91.794a.565.565 0 0 1 .565-.565H47.7a.565.565 0 0 1 .565.565v14.79a.565.565 0 0 1-.565.565m-27.816-1.131h27.25V92.36h-27.25z" transform="translate(-15.724 -76.495)" style="fill:#46bad1"/>
            <path data-name="패스 7626" d="M161.191 31.339a.565.565 0 0 1-.565-.565v-5.125h-2.39v2.339a.565.565 0 0 1-1.131 0v-2.9a.565.565 0 0 1 .565-.565h3.52a.565.565 0 0 1 .565.565v5.691a.565.565 0 0 1-.565.565" transform="translate(-131.732 -20.558)" style="fill:#46bad1"/>
            <path data-name="패스 7627" d="M95.744 132.673h-5.456a.565.565 0 0 1-.565-.565v-9.717a.565.565 0 0 1 .565-.565h5.456a.565.565 0 0 1 .565.565v9.717a.565.565 0 0 1-.565.565m-4.891-1.131h4.326v-8.586h-4.325z" transform="translate(-75.232 -102.15)" style="fill:#46bad1"/>
        </g>
    </g>
</svg>
