<svg xmlns="http://www.w3.org/2000/svg" width="42" height="42" viewBox="0 0 42 42">
    <defs>
        <clipPath id="udjk8523ma">
            <path data-name="사각형 3764" style="fill:none" d="M0 0h20.07v21.226H0z"/>
        </clipPath>
    </defs>
    <g data-name="그룹 5666" transform="translate(-1151.531 -671.995)">
        <circle data-name="타원 428" cx="21" cy="21" r="21" transform="translate(1151.531 671.995)" style="fill:#ffcf00"/>
        <g data-name="그룹 5663">
            <g data-name="그룹 5644" style="clip-path:url(#udjk8523ma)" transform="translate(1162.644 683.938)">
                <path data-name="패스 7637" d="M10.035 0C4.493 0 0 4.156 0 9.282c0 3.786 1.586 5.593 3.757 7.241h.01v4.447a.255.255 0 0 0 .407.2l3.805-2.827.082.036a10.877 10.877 0 0 0 1.972.18c5.542 0 10.035-4.156 10.035-9.282S15.577 0 10.035 0M6.671 11.634a2.1 2.1 0 0 0 2.078-1.5H10.2a3.482 3.482 0 0 1-3.533 2.9A3.69 3.69 0 0 1 2.89 9.271a3.69 3.69 0 0 1 3.781-3.762 3.486 3.486 0 0 1 3.544 2.951H8.764a2.069 2.069 0 0 0-2.093-1.571A2.272 2.272 0 0 0 4.31 9.271a2.33 2.33 0 0 0 2.362 2.362m9.587 1.255h-1.335V9.881A.957.957 0 0 0 13.9 8.817c-.693 0-1.137.424-1.137 1.282v2.791h-1.332V5.533h1.333V8.3a1.71 1.71 0 0 1 1.54-.723 1.831 1.831 0 0 1 1.4.568 2.147 2.147 0 0 1 .558 1.571z" style="fill:#1a1818"/>
                <path data-name="패스 7638" d="M22.978 42.727a2.1 2.1 0 0 0 2.078-1.5h1.455a3.482 3.482 0 0 1-3.533 2.9 3.762 3.762 0 1 1 0-7.524 3.486 3.486 0 0 1 3.544 2.951h-1.451a2.07 2.07 0 0 0-2.093-1.572 2.272 2.272 0 0 0-2.361 2.383 2.33 2.33 0 0 0 2.361 2.363" transform="translate(-16.307 -31.093)" style="fill:#ffcf00"/>
                <path data-name="패스 7639" d="M80.769 44.113h-1.333v-3.007a.957.957 0 0 0-1.023-1.065c-.693 0-1.137.424-1.137 1.282v2.791h-1.334v-7.357h1.333v2.767a1.71 1.71 0 0 1 1.54-.723 1.831 1.831 0 0 1 1.4.568 2.147 2.147 0 0 1 .558 1.571z" transform="translate(-64.511 -31.224)" style="fill:#ffcf00"/>
            </g>
        </g>
    </g>
</svg>
