<svg xmlns="http://www.w3.org/2000/svg" width="30.762" height="28.464" viewBox="0 0 30.762 28.464">
    <defs>
        <clipPath id="p50ixbud1a">
            <path data-name="사각형 3586" style="fill:none" d="M0 0h30.762v28.464H0z"/>
        </clipPath>
    </defs>
    <g data-name="그룹 5513">
        <g data-name="그룹 5512" style="clip-path:url(#p50ixbud1a)">
            <path data-name="패스 7628" d="M26.218 23.868H4.543A4.549 4.549 0 0 1 0 19.324V4.543A4.549 4.549 0 0 1 4.543 0h21.675a4.548 4.548 0 0 1 4.543 4.543v14.781a4.549 4.549 0 0 1-4.543 4.543M4.543 1.158a3.39 3.39 0 0 0-3.385 3.385v14.781a3.389 3.389 0 0 0 3.385 3.386h21.675a3.389 3.389 0 0 0 3.382-3.386V4.543a3.389 3.389 0 0 0-3.385-3.386z" style="fill:#46bad1"/>
            <path data-name="패스 7629" d="M26.219 71.662H4.544A4.548 4.548 0 0 1 0 67.119V52.338a.579.579 0 0 1 1.158 0v14.781A3.389 3.389 0 0 0 4.544 70.5h21.675a3.389 3.389 0 0 0 3.381-3.381V52.338a.579.579 0 0 1 1.158 0v14.781a4.549 4.549 0 0 1-4.543 4.543" transform="translate(-.001 -43.198)" style="fill:#46bad1"/>
            <path data-name="패스 7630" d="M40.873 42.316a.577.577 0 0 1-.409-.17L38.318 40a.579.579 0 0 1 .819-.819l2.145 2.145a.579.579 0 0 1-.409.988" transform="translate(-31.839 -32.56)" style="fill:#46bad1"/>
            <path data-name="패스 7631" d="M38.727 42.316a.579.579 0 0 1-.409-.988l2.145-2.145a.579.579 0 1 1 .819.819l-2.145 2.145a.577.577 0 0 1-.409.17" transform="translate(-31.838 -32.56)" style="fill:#46bad1"/>
            <path data-name="패스 7632" d="M86.461 42.316a.578.578 0 0 1-.409-.17L83.906 40a.579.579 0 0 1 .819-.819l2.145 2.145a.579.579 0 0 1-.409.988" transform="translate(-69.887 -32.56)" style="fill:#46bad1"/>
            <path data-name="패스 7633" d="M84.315 42.316a.579.579 0 0 1-.409-.988l2.145-2.145a.579.579 0 0 1 .819.819l-2.145 2.145a.577.577 0 0 1-.409.17" transform="translate(-69.886 -32.56)" style="fill:#46bad1"/>
            <path data-name="패스 7634" d="M130.6 42.316a.578.578 0 0 1-.409-.17L128.041 40a.579.579 0 1 1 .819-.819l2.145 2.145a.579.579 0 0 1-.409.988" transform="translate(-106.723 -32.56)" style="fill:#46bad1"/>
            <path data-name="패스 7635" d="M128.45 42.316a.579.579 0 0 1-.409-.988l2.145-2.145A.579.579 0 0 1 131 40l-2.145 2.145a.577.577 0 0 1-.409.17" transform="translate(-106.722 -32.56)" style="fill:#46bad1"/>
            <path data-name="패스 7636" d="M40.873 88.63a.578.578 0 0 1-.409-.17l-2.145-2.145a.579.579 0 0 1 .819-.819l2.145 2.145a.579.579 0 0 1-.409.988" transform="translate(-31.839 -71.214)" style="fill:#46bad1"/>
            <path data-name="패스 7637" d="M38.727 88.63a.579.579 0 0 1-.409-.988l2.145-2.142a.579.579 0 1 1 .819.819l-2.146 2.141a.577.577 0 0 1-.409.17" transform="translate(-31.838 -71.214)" style="fill:#46bad1"/>
            <path data-name="패스 7638" d="M86.461 88.63a.578.578 0 0 1-.409-.17l-2.145-2.145a.579.579 0 1 1 .819-.819l2.145 2.145a.579.579 0 0 1-.409.988" transform="translate(-69.887 -71.214)" style="fill:#46bad1"/>
            <path data-name="패스 7639" d="M84.315 88.63a.579.579 0 0 1-.409-.988l2.145-2.142a.579.579 0 0 1 .819.819l-2.146 2.141a.577.577 0 0 1-.409.17" transform="translate(-69.886 -71.214)" style="fill:#46bad1"/>
            <path data-name="패스 7640" d="M130.6 88.63a.578.578 0 0 1-.409-.17l-2.145-2.145a.579.579 0 1 1 .819-.819l2.145 2.145a.579.579 0 0 1-.409.988" transform="translate(-106.723 -71.214)" style="fill:#46bad1"/>
            <path data-name="패스 7641" d="M128.45 88.63a.579.579 0 0 1-.409-.988l2.145-2.145a.579.579 0 0 1 .819.819l-2.145 2.145a.577.577 0 0 1-.409.17" transform="translate(-106.722 -71.214)" style="fill:#46bad1"/>
        </g>
    </g>
</svg>
