<svg xmlns="http://www.w3.org/2000/svg" width="35.995" height="35.994" viewBox="0 0 35.995 35.994">
    <g data-name="그룹 5667" transform="translate(-1154 -593.152)">
        <rect data-name="사각형 3457" width="35.995" height="35.994" rx="5" transform="translate(1154 593.152)" style="fill:#00c73c"/>
        <path data-name="패스 7348" d="M22.8 15.837v-4.115a.912.912 0 0 1 1.824 0v4.114a6.189 6.189 0 1 0 12.378 0v-4.114a.912.912 0 0 1 1.823 0v4.114a8.012 8.012 0 1 1-16.024 0" transform="translate(1140.883 587.076)" style="fill:#fff"/>
        <path data-name="패스 7349" d="M59.513 61.014h-2.065l-3.539-4.344v4.344h-2.381V53.7h2.065l3.539 4.425V53.7h2.382z" transform="translate(1124.736 562.97)" style="fill:#fff"/>
    </g>
</svg>
