<svg xmlns="http://www.w3.org/2000/svg" width="25.268" height="27.172" viewBox="0 0 25.268 27.172">
    <defs>
        <clipPath id="h17ayxsxda">
            <path data-name="사각형 3583" style="fill:none" d="M0 0h25.268v27.172H0z"/>
        </clipPath>
    </defs>
    <g data-name="그룹 5507">
        <g data-name="그룹 5506" style="clip-path:url(#h17ayxsxda)">
            <path data-name="패스 7612" d="M12.563 27.172a8.561 8.561 0 0 1-5.549-2.027A19.628 19.628 0 0 1 .078 10.368L0 2.783A2.755 2.755 0 0 1 2.754 0h19.76a2.757 2.757 0 0 1 2.754 2.754v7.428a19.182 19.182 0 0 1-6.351 14.247l-.617.554a8.568 8.568 0 0 1-5.738 2.189M2.754 1.044a1.711 1.711 0 0 0-1.71 1.728l.078 7.586A18.585 18.585 0 0 0 7.689 24.35a7.565 7.565 0 0 0 9.914-.142l.617-.554a18.136 18.136 0 0 0 6-13.47v-7.43a1.713 1.713 0 0 0-1.711-1.711z" style="fill:#46bad1"/>
            <path data-name="패스 7613" d="M44.325 42.394a7.079 7.079 0 1 1 7.079-7.08 7.087 7.087 0 0 1-7.079 7.08m0-13.115a6.036 6.036 0 1 0 6.036 6.036 6.043 6.043 0 0 0-6.036-6.036" transform="translate(-31.693 -24.025)" style="fill:#46bad1"/>
            <path data-name="패스 7614" d="M68.847 71.157h-4.4a.969.969 0 0 1 0-1.938h4.4a.969.969 0 1 1 0 1.938" transform="translate(-54.016 -58.899)" style="fill:#46bad1"/>
            <path data-name="패스 7615" d="M79.2 60.806a.969.969 0 0 1-.969-.969v-4.4a.969.969 0 0 1 1.938 0v4.4a.969.969 0 0 1-.969.969" transform="translate(-66.566 -46.349)" style="fill:#46bad1"/>
        </g>
    </g>
</svg>
