<svg xmlns="http://www.w3.org/2000/svg" width="55.78" height="64.863" viewBox="0 0 55.78 64.863">
    <defs>
        <clipPath id="3i2md8fd7a">
            <path data-name="사각형 3543" style="fill:none" d="M0 0h55.78v64.863H0z"/>
        </clipPath>
    </defs>
    <g data-name="그룹 5450" style="clip-path:url(#3i2md8fd7a)">
        <path data-name="패스 7417" d="M28.319 35.553h-9.377a1.018 1.018 0 0 1-1.018-1.018V23.222a1.018 1.018 0 0 1 1.018-1.022h9.377a1.018 1.018 0 0 1 1.018 1.018v11.317a1.018 1.018 0 0 1-1.018 1.018m-8.359-2.036h7.34V24.24h-7.34z" transform="translate(-10.624 -13.161)" style="fill:#46bad1"/>
        <path data-name="패스 7418" d="M65.229 35.553h-9.377a1.018 1.018 0 0 1-1.018-1.018V23.222a1.018 1.018 0 0 1 1.018-1.022h9.377a1.018 1.018 0 0 1 1.018 1.018v11.317a1.018 1.018 0 0 1-1.018 1.018m-8.359-2.036h7.34V24.24h-7.34z" transform="translate(-32.503 -13.161)" style="fill:#46bad1"/>
        <path data-name="패스 7419" d="M101.413 35.553h-9.377a1.018 1.018 0 0 1-1.018-1.018V23.222a1.018 1.018 0 0 1 1.018-1.022h9.377a1.018 1.018 0 0 1 1.018 1.018v11.317a1.018 1.018 0 0 1-1.018 1.018m-8.359-2.036h7.34V24.24h-7.34z" transform="translate(-53.95 -13.161)" style="fill:#46bad1"/>
        <path data-name="패스 7420" d="M28.319 75.056h-9.377a1.018 1.018 0 0 1-1.018-1.018V62.725a1.018 1.018 0 0 1 1.018-1.018h9.377a1.018 1.018 0 0 1 1.018 1.018v11.313a1.018 1.018 0 0 1-1.018 1.018M19.96 73.02h7.34v-9.276h-7.34z" transform="translate(-10.624 -36.576)" style="fill:#46bad1"/>
        <path data-name="패스 7421" d="M65.229 75.056h-9.377a1.018 1.018 0 0 1-1.018-1.018V62.725a1.018 1.018 0 0 1 1.018-1.018h9.377a1.018 1.018 0 0 1 1.018 1.018v11.313a1.018 1.018 0 0 1-1.018 1.018M56.87 73.02h7.34v-9.276h-7.34z" transform="translate(-32.503 -36.576)" style="fill:#46bad1"/>
        <path data-name="패스 7422" d="M65.229 125.232h-9.377a1.018 1.018 0 0 1-1.018-1.018v-21.35a1.018 1.018 0 0 1 1.018-1.018h9.377a1.018 1.018 0 0 1 1.018 1.018v21.35a1.018 1.018 0 0 1-1.018 1.018M56.87 123.2h7.34v-19.318h-7.34z" transform="translate(-32.503 -60.369)" style="fill:#46bad1"/>
        <path data-name="패스 7423" d="M101.413 75.056h-9.377a1.018 1.018 0 0 1-1.018-1.018V62.725a1.018 1.018 0 0 1 1.018-1.018h9.377a1.018 1.018 0 0 1 1.018 1.018v11.313a1.018 1.018 0 0 1-1.018 1.018m-8.359-2.036h7.34v-9.276h-7.34z" transform="translate(-53.95 -36.576)" style="fill:#46bad1"/>
        <path data-name="패스 7424" d="M28.319 115.2h-9.377a1.018 1.018 0 0 1-1.018-1.018v-11.318a1.018 1.018 0 0 1 1.018-1.018h9.377a1.018 1.018 0 0 1 1.018 1.018v11.313a1.018 1.018 0 0 1-1.018 1.018m-8.359-2.036h7.34v-9.277h-7.34z" transform="translate(-10.624 -60.369)" style="fill:#46bad1"/>
        <path data-name="패스 7425" d="M101.413 115.2h-9.377a1.018 1.018 0 0 1-1.018-1.018v-11.318a1.018 1.018 0 0 1 1.018-1.018h9.377a1.018 1.018 0 0 1 1.018 1.018v11.313a1.018 1.018 0 0 1-1.018 1.018m-8.359-2.036h7.34v-9.277h-7.34z" transform="translate(-53.95 -60.369)" style="fill:#46bad1"/>
        <path data-name="패스 7426" d="M54.762 64.835H1.018A1.018 1.018 0 0 1 0 63.817V1.018A1.018 1.018 0 0 1 1.018 0h53.744a1.018 1.018 0 0 1 1.018 1.018v62.8a1.018 1.018 0 0 1-1.018 1.018M2.036 62.8h51.708V2.037H2.036z" style="fill:#46bad1"/>
    </g>
</svg>
