<svg xmlns="http://www.w3.org/2000/svg" width="94.906" height="75.427" viewBox="0 0 94.906 75.427">
    <defs>
        <clipPath id="pniqbqmv0a">
            <path data-name="사각형 3545" style="fill:none" d="M0 0h94.906v75.427H0z"/>
        </clipPath>
    </defs>
    <g data-name="그룹 5454" style="clip-path:url(#pniqbqmv0a)">
        <path data-name="패스 7439" d="M93.785 88.6H1.121A1.121 1.121 0 0 1 0 87.476V38.242a1.121 1.121 0 0 1 1.121-1.121h31.4l14.01-12.94a1.123 1.123 0 0 1 1.517 0l14.2 12.945h31.537a1.121 1.121 0 0 1 1.121 1.121v49.229a1.121 1.121 0 0 1-1.121 1.124M2.243 86.355h90.421V39.364H61.815a1.121 1.121 0 0 1-.755-.292L47.3 26.526l-13.579 12.54a1.123 1.123 0 0 1-.761.3H2.243z" transform="translate(0 -13.171)" style="fill:#46bad1"/>
        <path data-name="패스 7440" d="M71.081 104.609a1.121 1.121 0 0 1-1.121-1.121v-48.88a1.121 1.121 0 0 1 2.243 0v48.88a1.121 1.121 0 0 1-1.121 1.121" transform="translate(-38.58 -29.496)" style="fill:#46bad1"/>
        <path data-name="패스 7441" d="M137.284 104.609a1.121 1.121 0 0 1-1.121-1.121v-48.88a1.121 1.121 0 0 1 2.243 0v48.88a1.121 1.121 0 0 1-1.121 1.121" transform="translate(-75.089 -29.496)" style="fill:#46bad1"/>
        <path data-name="패스 7442" d="M104.591 12.874a1.121 1.121 0 0 1-1.121-1.121V1.121a1.121 1.121 0 0 1 1.512-1.05L113.9 3.39a1.121 1.121 0 0 1 .015 2.1l-8.206 3.187v3.079a1.121 1.121 0 0 1-1.121 1.121m1.121-10.139v3.53l4.645-1.8z" transform="translate(-57.06)" style="fill:#46bad1"/>
        <path data-name="패스 7443" d="M96.247 73.459a8.033 8.033 0 1 1 8.033-8.033 8.042 8.042 0 0 1-8.033 8.033m0-13.823a5.79 5.79 0 1 0 5.79 5.79 5.8 5.8 0 0 0-5.79-5.79" transform="translate(-48.647 -31.65)" style="fill:#46bad1"/>
        <path data-name="패스 7444" d="M24.04 84.756h-7.217a.9.9 0 0 1-.9-.9v-7.313a.9.9 0 0 1 .9-.9h7.217a.9.9 0 0 1 .9.9v7.316a.9.9 0 0 1-.9.9m-6.32-1.794h5.423V77.44H17.72z" transform="translate(-8.783 -41.716)" style="fill:#46bad1"/>
        <path data-name="패스 7445" d="M47.871 84.756h-7.217a.9.9 0 0 1-.9-.9v-7.313a.9.9 0 0 1 .9-.9h7.217a.9.9 0 0 1 .9.9v7.316a.9.9 0 0 1-.9.9m-6.32-1.794h5.423V77.44h-5.423z" transform="translate(-21.925 -41.716)" style="fill:#46bad1"/>
        <path data-name="패스 7446" d="M24.04 107.223h-7.217a.9.9 0 0 1-.9-.9V99.01a.9.9 0 0 1 .9-.9h7.217a.9.9 0 0 1 .9.9v7.316a.9.9 0 0 1-.9.9m-6.32-1.794h5.423v-5.525H17.72z" transform="translate(-8.783 -54.106)" style="fill:#46bad1"/>
        <path data-name="패스 7447" d="M47.871 107.223h-7.217a.9.9 0 0 1-.9-.9V99.01a.9.9 0 0 1 .9-.9h7.217a.9.9 0 0 1 .9.9v7.316a.9.9 0 0 1-.9.9m-6.32-1.794h5.423v-5.525h-5.423z" transform="translate(-21.925 -54.106)" style="fill:#46bad1"/>
        <path data-name="패스 7448" d="M160.985 84.756h-7.217a.9.9 0 0 1-.9-.9v-7.313a.9.9 0 0 1 .9-.9h7.217a.9.9 0 0 1 .9.9v7.316a.9.9 0 0 1-.9.9m-6.32-1.794h5.423V77.44h-5.423z" transform="translate(-84.303 -41.716)" style="fill:#46bad1"/>
        <path data-name="패스 7449" d="M184.816 84.756H177.6a.9.9 0 0 1-.9-.9v-7.313a.9.9 0 0 1 .9-.9h7.217a.9.9 0 0 1 .9.9v7.316a.9.9 0 0 1-.9.9m-6.32-1.794h5.423V77.44h-5.42z" transform="translate(-97.445 -41.716)" style="fill:#46bad1"/>
        <path data-name="패스 7450" d="M160.985 107.223h-7.217a.9.9 0 0 1-.9-.9V99.01a.9.9 0 0 1 .9-.9h7.217a.9.9 0 0 1 .9.9v7.316a.9.9 0 0 1-.9.9m-6.32-1.794h5.423v-5.525h-5.423z" transform="translate(-84.303 -54.106)" style="fill:#46bad1"/>
        <path data-name="패스 7451" d="M184.816 107.223H177.6a.9.9 0 0 1-.9-.9V99.01a.9.9 0 0 1 .9-.9h7.217a.9.9 0 0 1 .9.9v7.316a.9.9 0 0 1-.9.9m-6.32-1.794h5.423v-5.525h-5.42z" transform="translate(-97.445 -54.106)" style="fill:#46bad1"/>
    </g>
</svg>
