<svg data-name="구성 요소 32 – 1" xmlns="http://www.w3.org/2000/svg" width="85" height="85" viewBox="0 0 85 85">
    <circle data-name="타원 521" cx="42.5" cy="42.5" r="42.5" style="fill:#fff"/>
    <path data-name="Icon zocial-call" d="M3.36 11.611a3.249 3.249 0 0 1 .827-1.764L10.8 3.23q.773-.662 1.158.221l5.348 10.034a1.444 1.444 0 0 1-.276 1.709l-2.423 2.426a2.743 2.743 0 0 0-.772 1.709 8.416 8.416 0 0 0 1.709 4.245 36.254 36.254 0 0 0 3.363 4.412l1.709 1.763a71.863 71.863 0 0 0 1.987 1.9 33.285 33.285 0 0 0 4 2.977q2.783 1.848 4.383 1.847a2.4 2.4 0 0 0 1.764-.717l2.869-2.867a1.212 1.212 0 0 1 1.652-.221l9.65 5.679a.806.806 0 0 1 .441.579.7.7 0 0 1-.221.634l-6.616 6.616a3.24 3.24 0 0 1-1.766.824 13.338 13.338 0 0 1-6.094-.744 27.571 27.571 0 0 1-6.283-3q-2.895-1.874-5.376-3.8t-3.97-3.308L15.6 34.765q-.55-.55-1.461-1.516t-3.174-3.8a55.371 55.371 0 0 1-3.914-5.541 32.323 32.323 0 0 1-2.867-6.147 13.078 13.078 0 0 1-.824-6.15z" transform="translate(19.184 15.975)" style="fill:#001a3d"/>
</svg>
