<svg data-name="그룹 5523" xmlns="http://www.w3.org/2000/svg" width="26.725" height="27.444" viewBox="0 0 26.725 27.444">
    <defs>
        <clipPath id="ae497se6xa">
            <path data-name="사각형 3591" style="fill:none" d="M0 0h26.725v27.444H0z"/>
        </clipPath>
    </defs>
    <g data-name="그룹 5522" style="clip-path:url(#ae497se6xa)">
        <path data-name="패스 7678" d="M26.132 30.369H.844a.59.59 0 1 1 0-1.18h25.288a.59.59 0 0 1 0 1.18" transform="translate(-.211 -24.27)" style="fill:#46bad1"/>
        <path data-name="패스 7679" d="M133.612 15.28a.664.664 0 1 1-.664-.664.664.664 0 0 1 .664.664" transform="translate(-109.988 -12.153)" style="fill:#46bad1"/>
        <path data-name="패스 7680" d="M120.117 15.28a.664.664 0 1 1-.664-.664.664.664 0 0 1 .664.664" transform="translate(-98.768 -12.153)" style="fill:#46bad1"/>
        <path data-name="패스 7681" d="M105.751 15.28a.664.664 0 1 1-.664-.664.664.664 0 0 1 .664.664" transform="translate(-86.823 -12.153)" style="fill:#46bad1"/>
        <path data-name="패스 7682" d="M24.6 27.444H2.122A2.124 2.124 0 0 1 0 25.322v-23.2A2.124 2.124 0 0 1 2.122 0H24.6a2.124 2.124 0 0 1 2.122 2.122v23.2a2.124 2.124 0 0 1-2.122 2.122M2.122 1.18a.943.943 0 0 0-.942.942v23.2a.943.943 0 0 0 .942.942H24.6a.943.943 0 0 0 .942-.942v-23.2a.943.943 0 0 0-.942-.942z" style="fill:#46bad1"/>
        <path data-name="패스 7683" d="M41.694 67.531a7.62 7.62 0 1 1 7.62-7.62 7.629 7.629 0 0 1-7.62 7.62m0-14.229a6.609 6.609 0 1 0 6.606 6.609 6.616 6.616 0 0 0-6.606-6.611" transform="translate(-28.331 -43.478)" style="fill:#46bad1"/>
        <path data-name="패스 7684" d="M52.826 76.406a5.364 5.364 0 1 1 5.363-5.363 5.369 5.369 0 0 1-5.363 5.363m0-9.716a4.352 4.352 0 1 0 4.352 4.352 4.357 4.357 0 0 0-4.352-4.352" transform="translate(-39.463 -54.61)" style="fill:#46bad1"/>
    </g>
</svg>
